<?xml version="1.0" encoding="utf-8"?>
<!-- Generator: Adobe Illustrator 17.1.0, SVG Export Plug-In . SVG Version: 6.00 Build 0)  -->
<!DOCTYPE svg PUBLIC "-//W3C//DTD SVG 1.1//EN" "http://www.w3.org/Graphics/SVG/1.1/DTD/svg11.dtd">
<svg version="1.1" id="Layer_1" xmlns="http://www.w3.org/2000/svg" xmlns:xlink="http://www.w3.org/1999/xlink" x="0px" y="0px"
	 viewBox="0 0 146 60" enable-background="new 0 0 146 60" xml:space="preserve">
<g>
	<path fill="#FFFFFF" d="M1.4,27.7c0-3.2,2-5.7,5.8-5.7c3.8,0,5.8,2.6,5.8,5.7v4.2H8.7v-5.3h-3v28.2h3v-5.3H13v4.2
		c0,3.2-2.1,5.7-5.8,5.7c-3.8,0-5.8-2.6-5.8-5.7C1.4,53.8,1.4,27.7,1.4,27.7z M16.4,22.3h4.3v16.2h3V22.3h4.3v36.9h-4.3V43h-3v16.2
		h-4.3V22.3z M33.7,59.2H38V42.9h3v16.3h4.3V27.7c0-3.2-2.1-5.7-5.8-5.7c-3.8,0-5.8,2.6-5.8,5.7L33.7,59.2L33.7,59.2z M38,26.6h3v12
		h-3V26.6z M68,22.3h4.1l1.7,24.9h0.2l1.4-24.9h4.2l-3.6,36.9h-4.6L68,22.3z M95.1,26.6h-7.3v11.9h5.8v4.3h-5.8v11.9h7.3v4.3h-8.6
		c-1.7,0-3-1.7-3-3.8V26.1c0-2.1,1.3-3.8,3-3.8h8.6V26.6z M101,26.7h-3.1v-4.4h10.3v4.4h-3v32.5H101V26.7z M58.3,29.3v25.5h-3V29.6
		L51,25.3v28.5c0,3.2,2,5.7,5.8,5.7c3.8,0,5.8-2.6,5.8-5.7V25L58.3,29.3z"/>
	<path fill="#FFFFFF" d="M63.5,0.7c0,0.1-0.1,0.2-0.2,0.2c-0.1,0-0.2-0.1-0.2-0.2c0-0.1,0.1-0.2,0.2-0.2C63.4,0.5,63.5,0.6,63.5,0.7
		z M65.6,1.2c-0.1,0-0.2,0.1-0.2,0.2c0,0.1,0.1,0.2,0.2,0.2s0.2-0.1,0.2-0.2C65.8,1.3,65.8,1.2,65.6,1.2z M65.5,2.5
		c0,0.1-0.1,0.3-0.3,0.3c-0.1,0-0.3-0.1-0.3-0.3c0-0.1,0.1-0.3,0.3-0.3C65.4,2.3,65.5,2.4,65.5,2.5z M65.2,3.7
		c0,0.2-0.1,0.3-0.3,0.3c-0.2,0-0.3-0.1-0.3-0.3c0-0.2,0.1-0.3,0.3-0.3C65.1,3.4,65.2,3.5,65.2,3.7z M64.9,4.8
		c0,0.2-0.2,0.4-0.4,0.4s-0.4-0.2-0.4-0.4c0-0.2,0.2-0.4,0.4-0.4S64.9,4.6,64.9,4.8z M64.6,6c0,0.2-0.2,0.4-0.4,0.4
		c-0.2,0-0.4-0.2-0.4-0.4c0-0.2,0.2-0.4,0.4-0.4C64.4,5.6,64.6,5.8,64.6,6z M64.3,7.2c0,0.3-0.2,0.5-0.5,0.5c-0.3,0-0.5-0.2-0.5-0.5
		c0-0.3,0.2-0.5,0.5-0.5C64,6.7,64.3,6.9,64.3,7.2z M63.9,8.3c0,0.3-0.2,0.5-0.5,0.5c-0.3,0-0.5-0.2-0.5-0.5c0-0.3,0.2-0.5,0.5-0.5
		C63.7,7.8,63.9,8,63.9,8.3z M63.6,9.5c0,0.3-0.2,0.5-0.5,0.5c-0.3,0-0.5-0.2-0.5-0.5c0-0.3,0.2-0.5,0.5-0.5
		C63.3,8.9,63.6,9.2,63.6,9.5z M63.2,10.6c0,0.3-0.3,0.6-0.6,0.6c-0.3,0-0.6-0.3-0.6-0.6c0-0.3,0.3-0.6,0.6-0.6
		C62.9,10.1,63.2,10.3,63.2,10.6z M62.9,11.8c0,0.3-0.3,0.6-0.6,0.6c-0.3,0-0.6-0.3-0.6-0.6c0-0.3,0.3-0.6,0.6-0.6
		C62.6,11.2,62.9,11.5,62.9,11.8z M66.8,1.6c-0.1,0-0.2,0.1-0.2,0.2c0,0.1,0.1,0.2,0.2,0.2S67,1.9,67,1.8C67,1.7,66.9,1.6,66.8,1.6z
		 M66.7,2.9c0,0.1-0.1,0.3-0.3,0.3c-0.1,0-0.3-0.1-0.3-0.3c0-0.1,0.1-0.3,0.3-0.3C66.6,2.6,66.7,2.8,66.7,2.9z M66.4,4.1
		c0,0.2-0.1,0.3-0.3,0.3c-0.2,0-0.3-0.1-0.3-0.3c0-0.2,0.1-0.3,0.3-0.3C66.2,3.7,66.4,3.9,66.4,4.1z M66.1,5.2
		c0,0.2-0.2,0.4-0.4,0.4c-0.2,0-0.4-0.2-0.4-0.4c0-0.2,0.2-0.4,0.4-0.4C65.9,4.8,66.1,5,66.1,5.2z M65.7,6.4c0,0.2-0.2,0.4-0.4,0.4
		c-0.2,0-0.4-0.2-0.4-0.4c0-0.2,0.2-0.4,0.4-0.4C65.5,6,65.7,6.2,65.7,6.4z M65.4,7.5c0,0.3-0.2,0.5-0.5,0.5c-0.3,0-0.5-0.2-0.5-0.5
		c0-0.3,0.2-0.5,0.5-0.5C65.2,7.1,65.4,7.3,65.4,7.5z M65.1,8.7c0,0.3-0.2,0.5-0.5,0.5C64.3,9.2,64,9,64,8.7c0-0.3,0.2-0.5,0.5-0.5
		C64.8,8.2,65.1,8.4,65.1,8.7z M64.7,9.8c0,0.3-0.2,0.5-0.5,0.5c-0.3,0-0.5-0.2-0.5-0.5c0-0.3,0.2-0.5,0.5-0.5
		C64.5,9.3,64.7,9.5,64.7,9.8z M64.4,11c0,0.3-0.3,0.6-0.6,0.6c-0.3,0-0.6-0.3-0.6-0.6c0-0.3,0.3-0.6,0.6-0.6
		C64.1,10.4,64.4,10.7,64.4,11z M64,12.2c0,0.3-0.3,0.6-0.6,0.6c-0.3,0-0.6-0.3-0.6-0.6c0-0.3,0.3-0.6,0.6-0.6
		C63.7,11.6,64,11.8,64,12.2z M68.3,0.8c-0.1,0-0.2,0.1-0.2,0.2c0,0.1,0.1,0.2,0.2,0.2c0.1,0,0.2-0.1,0.2-0.2
		C68.5,0.9,68.4,0.8,68.3,0.8z M68.2,2.1c0,0.1-0.1,0.3-0.3,0.3s-0.3-0.1-0.3-0.3c0-0.1,0.1-0.3,0.3-0.3S68.2,2,68.2,2.1z M67.9,3.3
		c0,0.2-0.1,0.3-0.3,0.3c-0.2,0-0.3-0.1-0.3-0.3c0-0.2,0.1-0.3,0.3-0.3C67.7,3,67.9,3.1,67.9,3.3z M67.6,4.4c0,0.2-0.2,0.4-0.4,0.4
		c-0.2,0-0.4-0.2-0.4-0.4c0-0.2,0.2-0.4,0.4-0.4C67.4,4.1,67.6,4.2,67.6,4.4z M67.2,5.6c0,0.2-0.2,0.4-0.4,0.4
		c-0.2,0-0.4-0.2-0.4-0.4c0-0.2,0.2-0.4,0.4-0.4C67.1,5.2,67.2,5.4,67.2,5.6z M66.9,6.8c0,0.3-0.2,0.5-0.5,0.5C66.2,7.2,66,7,66,6.8
		c0-0.3,0.2-0.5,0.5-0.5C66.7,6.3,66.9,6.5,66.9,6.8z M66.6,7.9c0,0.3-0.2,0.5-0.5,0.5c-0.3,0-0.5-0.2-0.5-0.5
		c0-0.3,0.2-0.5,0.5-0.5C66.3,7.4,66.6,7.6,66.6,7.9z M66.2,9.1c0,0.3-0.2,0.5-0.5,0.5c-0.3,0-0.5-0.2-0.5-0.5s0.2-0.5,0.5-0.5
		C66,8.5,66.2,8.8,66.2,9.1z M65.9,10.2c0,0.3-0.3,0.6-0.6,0.6s-0.6-0.3-0.6-0.6c0-0.3,0.3-0.6,0.6-0.6S65.9,9.9,65.9,10.2z
		 M65.5,11.4c0,0.3-0.3,0.6-0.6,0.6c-0.3,0-0.6-0.3-0.6-0.6c0-0.3,0.3-0.6,0.6-0.6C65.3,10.8,65.5,11.1,65.5,11.4z M69.5,1.2
		c-0.1,0-0.2,0.1-0.2,0.2c0,0.1,0.1,0.2,0.2,0.2c0.1,0,0.2-0.1,0.2-0.2C69.7,1.3,69.6,1.2,69.5,1.2z M69.4,2.5
		c0,0.1-0.1,0.3-0.3,0.3c-0.1,0-0.3-0.1-0.3-0.3s0.1-0.3,0.3-0.3C69.3,2.3,69.4,2.4,69.4,2.5z M69.1,3.7c0,0.2-0.1,0.3-0.3,0.3
		s-0.3-0.1-0.3-0.3c0-0.2,0.1-0.3,0.3-0.3C68.9,3.4,69.1,3.5,69.1,3.7z M68.8,4.8c0,0.2-0.2,0.4-0.4,0.4S68,5.1,68,4.8
		c0-0.2,0.2-0.4,0.4-0.4C68.6,4.5,68.8,4.6,68.8,4.8z M68.4,6c0,0.2-0.2,0.4-0.4,0.4c-0.2,0-0.4-0.2-0.4-0.4c0-0.2,0.2-0.4,0.4-0.4
		C68.2,5.6,68.4,5.8,68.4,6z M68.1,7.2c0,0.3-0.2,0.5-0.5,0.5c-0.3,0-0.5-0.2-0.5-0.5c0-0.3,0.2-0.5,0.5-0.5
		C67.9,6.7,68.1,6.9,68.1,7.2z M67.7,8.3c0,0.3-0.2,0.5-0.5,0.5c-0.3,0-0.5-0.2-0.5-0.5c0-0.3,0.2-0.5,0.5-0.5
		C67.5,7.8,67.7,8,67.7,8.3z M67.4,9.5c0,0.3-0.2,0.5-0.5,0.5c-0.3,0-0.5-0.2-0.5-0.5c0-0.3,0.2-0.5,0.5-0.5
		C67.1,8.9,67.4,9.2,67.4,9.5z M67,10.6c0,0.3-0.3,0.6-0.6,0.6s-0.6-0.3-0.6-0.6c0-0.3,0.3-0.6,0.6-0.6C66.8,10.1,67,10.3,67,10.6z
		 M66.7,11.8c0,0.3-0.3,0.6-0.6,0.6c-0.3,0-0.6-0.3-0.6-0.6c0-0.3,0.3-0.6,0.6-0.6C66.4,11.2,66.7,11.5,66.7,11.8z M70.9,1.7
		c0,0.1-0.1,0.3-0.3,0.3c-0.1,0-0.3-0.1-0.3-0.3c0-0.1,0.1-0.3,0.3-0.3C70.8,1.5,70.9,1.6,70.9,1.7z M70.6,2.9
		c0,0.2-0.1,0.3-0.3,0.3c-0.2,0-0.3-0.1-0.3-0.3c0-0.2,0.1-0.3,0.3-0.3C70.4,2.6,70.6,2.7,70.6,2.9z M70.3,4.1
		c0,0.2-0.2,0.4-0.4,0.4c-0.2,0-0.4-0.2-0.4-0.4c0-0.2,0.2-0.4,0.4-0.4C70.1,3.7,70.3,3.8,70.3,4.1z M69.9,5.2
		c0,0.2-0.2,0.4-0.4,0.4c-0.2,0-0.4-0.2-0.4-0.4c0-0.2,0.2-0.4,0.4-0.4C69.7,4.8,69.9,5,69.9,5.2z M69.6,6.4c0,0.3-0.2,0.5-0.5,0.5
		c-0.3,0-0.5-0.2-0.5-0.5c0-0.3,0.2-0.5,0.5-0.5C69.4,5.9,69.6,6.1,69.6,6.4z M69.3,7.5C69.3,7.8,69,8,68.8,8
		c-0.3,0-0.5-0.2-0.5-0.5c0-0.3,0.2-0.5,0.5-0.5C69,7,69.3,7.2,69.3,7.5z M68.9,8.7c0,0.3-0.2,0.5-0.5,0.5c-0.3,0-0.5-0.2-0.5-0.5
		c0-0.3,0.2-0.5,0.5-0.5C68.7,8.1,68.9,8.4,68.9,8.7z M68.6,9.8c0,0.3-0.3,0.6-0.6,0.6c-0.3,0-0.6-0.3-0.6-0.6
		c0-0.3,0.3-0.6,0.6-0.6C68.3,9.3,68.6,9.5,68.6,9.8z M68.2,11c0,0.3-0.3,0.6-0.6,0.6c-0.3,0-0.6-0.3-0.6-0.6c0-0.3,0.3-0.6,0.6-0.6
		C68,10.4,68.2,10.7,68.2,11z M72.2,0.8C72.1,0.8,72,0.9,72,1c0,0.1,0.1,0.2,0.2,0.2c0.1,0,0.2-0.1,0.2-0.2
		C72.4,0.9,72.3,0.8,72.2,0.8z M72.1,2.1c0,0.1-0.1,0.3-0.3,0.3c-0.1,0-0.3-0.1-0.3-0.3s0.1-0.3,0.3-0.3C71.9,1.8,72.1,2,72.1,2.1z
		 M71.7,3.3c0,0.2-0.1,0.3-0.3,0.3c-0.2,0-0.3-0.1-0.3-0.3c0-0.2,0.1-0.3,0.3-0.3C71.6,2.9,71.7,3.1,71.7,3.3z M71.4,4.4
		c0,0.2-0.2,0.4-0.4,0.4c-0.2,0-0.4-0.2-0.4-0.4C70.7,4.2,70.8,4,71,4C71.3,4,71.4,4.2,71.4,4.4z M71.1,5.6c0,0.2-0.2,0.4-0.4,0.4
		c-0.2,0-0.4-0.2-0.4-0.4c0-0.2,0.2-0.4,0.4-0.4C70.9,5.1,71.1,5.3,71.1,5.6z M70.8,6.7c0,0.3-0.2,0.5-0.5,0.5
		c-0.3,0-0.5-0.2-0.5-0.5c0-0.3,0.2-0.5,0.5-0.5C70.6,6.3,70.8,6.5,70.8,6.7z M70.4,7.9c0,0.3-0.2,0.5-0.5,0.5
		c-0.3,0-0.5-0.2-0.5-0.5c0-0.3,0.2-0.5,0.5-0.5C70.2,7.4,70.4,7.6,70.4,7.9z M70.1,9c0,0.3-0.2,0.5-0.5,0.5C69.2,9.6,69,9.3,69,9
		c0-0.3,0.2-0.5,0.5-0.5C69.8,8.5,70.1,8.7,70.1,9z M69.7,10.2c0,0.3-0.3,0.6-0.6,0.6s-0.6-0.3-0.6-0.6c0-0.3,0.3-0.6,0.6-0.6
		C69.5,9.6,69.7,9.9,69.7,10.2z M69.4,11.3c0,0.3-0.3,0.6-0.6,0.6c-0.3,0-0.6-0.3-0.6-0.6c0-0.3,0.3-0.6,0.6-0.6
		C69.1,10.8,69.4,11,69.4,11.3z M73.3,1.1c-0.1,0-0.2,0.1-0.2,0.2c0,0.1,0.1,0.2,0.2,0.2c0.1,0,0.2-0.1,0.2-0.2
		C73.5,1.2,73.4,1.1,73.3,1.1z M73.2,2.4c0,0.1-0.1,0.3-0.3,0.3c-0.1,0-0.3-0.1-0.3-0.3c0-0.1,0.1-0.3,0.3-0.3
		C73.1,2.2,73.2,2.3,73.2,2.4z M72.9,3.6c0,0.2-0.1,0.3-0.3,0.3c-0.2,0-0.3-0.1-0.3-0.3c0-0.2,0.1-0.3,0.3-0.3
		C72.7,3.3,72.9,3.4,72.9,3.6z M72.6,4.7c0,0.2-0.2,0.4-0.4,0.4c-0.2,0-0.4-0.2-0.4-0.4c0-0.2,0.2-0.4,0.4-0.4
		C72.4,4.4,72.6,4.5,72.6,4.7z M72.2,5.9c0,0.2-0.2,0.4-0.4,0.4c-0.2,0-0.4-0.2-0.4-0.4c0-0.2,0.2-0.4,0.4-0.4
		C72,5.5,72.2,5.7,72.2,5.9z M71.9,7.1c0,0.3-0.2,0.5-0.5,0.5c-0.3,0-0.5-0.2-0.5-0.5c0-0.3,0.2-0.5,0.5-0.5
		C71.7,6.6,71.9,6.8,71.9,7.1z M71.6,8.2c0,0.3-0.2,0.5-0.5,0.5c-0.3,0-0.5-0.2-0.5-0.5c0-0.3,0.2-0.5,0.5-0.5
		C71.3,7.7,71.6,7.9,71.6,8.2z M71.2,9.3c0,0.3-0.2,0.5-0.5,0.5c-0.3,0-0.5-0.2-0.5-0.5c0-0.3,0.2-0.5,0.5-0.5
		C71,8.8,71.2,9.1,71.2,9.3z M70.9,10.5c0,0.3-0.3,0.6-0.6,0.6c-0.3,0-0.6-0.3-0.6-0.6c0-0.3,0.3-0.6,0.6-0.6
		C70.6,9.9,70.9,10.2,70.9,10.5z M70.5,11.7c0,0.3-0.3,0.6-0.6,0.6c-0.3,0-0.6-0.3-0.6-0.6c0-0.3,0.3-0.6,0.6-0.6
		C70.3,11.1,70.5,11.4,70.5,11.7z M74.8,1.7c0,0.1-0.1,0.3-0.3,0.3c-0.1,0-0.3-0.1-0.3-0.3c0-0.1,0.1-0.3,0.3-0.3S74.8,1.6,74.8,1.7
		z M74.4,2.9c0,0.2-0.1,0.3-0.3,0.3c-0.2,0-0.3-0.1-0.3-0.3c0-0.2,0.1-0.3,0.3-0.3C74.3,2.5,74.4,2.7,74.4,2.9z M74.1,4
		c0,0.2-0.2,0.4-0.4,0.4c-0.2,0-0.4-0.2-0.4-0.4c0-0.2,0.2-0.4,0.4-0.4C74,3.6,74.1,3.8,74.1,4z M73.8,5.2c0,0.2-0.2,0.4-0.4,0.4
		c-0.2,0-0.4-0.2-0.4-0.4c0-0.2,0.2-0.4,0.4-0.4C73.6,4.8,73.8,4.9,73.8,5.2z M73.5,6.3c0,0.3-0.2,0.5-0.5,0.5
		c-0.3,0-0.5-0.2-0.5-0.5c0-0.3,0.2-0.5,0.5-0.5C73.3,5.9,73.5,6.1,73.5,6.3z M73.1,7.5c0,0.3-0.2,0.5-0.5,0.5
		c-0.3,0-0.5-0.2-0.5-0.5c0-0.3,0.2-0.5,0.5-0.5C72.9,7,73.1,7.2,73.1,7.5z M72.8,8.6c0,0.3-0.2,0.5-0.5,0.5c-0.3,0-0.5-0.2-0.5-0.5
		c0-0.3,0.2-0.5,0.5-0.5C72.5,8.1,72.8,8.3,72.8,8.6z M72.4,9.8c0,0.3-0.3,0.6-0.6,0.6c-0.3,0-0.6-0.3-0.6-0.6
		c0-0.3,0.3-0.6,0.6-0.6C72.2,9.2,72.4,9.5,72.4,9.8z M72.1,11c0,0.3-0.3,0.6-0.6,0.6c-0.3,0-0.6-0.3-0.6-0.6c0-0.3,0.3-0.6,0.6-0.6
		C71.8,10.4,72.1,10.6,72.1,11z M76,0.7c-0.1,0-0.2,0.1-0.2,0.2c0,0.1,0.1,0.2,0.2,0.2c0.1,0,0.2-0.1,0.2-0.2
		C76.2,0.8,76.1,0.7,76,0.7z M75.9,2.1c0,0.1-0.1,0.3-0.3,0.3c-0.1,0-0.3-0.1-0.3-0.3s0.1-0.3,0.3-0.3C75.8,1.8,75.9,1.9,75.9,2.1z
		 M75.6,3.2c0,0.2-0.1,0.3-0.3,0.3c-0.2,0-0.3-0.1-0.3-0.3c0-0.2,0.1-0.3,0.3-0.3C75.4,2.9,75.6,3.1,75.6,3.2z M75.3,4.4
		c0,0.2-0.2,0.4-0.4,0.4c-0.2,0-0.4-0.2-0.4-0.4c0-0.2,0.2-0.4,0.4-0.4C75.1,4,75.3,4.2,75.3,4.4z M74.9,5.6c0,0.2-0.2,0.4-0.4,0.4
		c-0.2,0-0.4-0.2-0.4-0.4c0-0.2,0.2-0.4,0.4-0.4C74.7,5.1,74.9,5.3,74.9,5.6z M74.6,6.7c0,0.3-0.2,0.5-0.5,0.5
		c-0.3,0-0.5-0.2-0.5-0.5c0-0.3,0.2-0.5,0.5-0.5C74.4,6.2,74.6,6.5,74.6,6.7z M74.3,7.8c0,0.3-0.2,0.5-0.5,0.5
		c-0.3,0-0.5-0.2-0.5-0.5c0-0.3,0.2-0.5,0.5-0.5C74,7.3,74.3,7.6,74.3,7.8z M73.9,9c0,0.3-0.2,0.5-0.5,0.5c-0.3,0-0.5-0.2-0.5-0.5
		c0-0.3,0.2-0.5,0.5-0.5C73.7,8.5,73.9,8.7,73.9,9z M77.2,1.1c-0.1,0-0.2,0.1-0.2,0.2c0,0.1,0.1,0.2,0.2,0.2c0.1,0,0.2-0.1,0.2-0.2
		C77.4,1.2,77.3,1.1,77.2,1.1z M77.1,2.4c0,0.1-0.1,0.3-0.3,0.3c-0.1,0-0.3-0.1-0.3-0.3c0-0.1,0.1-0.3,0.3-0.3
		C76.9,2.1,77.1,2.3,77.1,2.4z M76.8,3.6c0,0.2-0.1,0.3-0.3,0.3c-0.2,0-0.3-0.1-0.3-0.3c0-0.2,0.1-0.3,0.3-0.3
		C76.6,3.2,76.8,3.4,76.8,3.6z M76.4,4.7c0,0.2-0.2,0.4-0.4,0.4c-0.2,0-0.4-0.2-0.4-0.4c0-0.2,0.2-0.4,0.4-0.4
		C76.3,4.3,76.4,4.5,76.4,4.7z M76.1,5.9c0,0.2-0.2,0.4-0.4,0.4c-0.2,0-0.4-0.2-0.4-0.4c0-0.2,0.2-0.4,0.4-0.4
		C75.9,5.4,76.1,5.6,76.1,5.9z M75.8,7c0,0.3-0.2,0.5-0.5,0.5c-0.3,0-0.5-0.2-0.5-0.5c0-0.3,0.2-0.5,0.5-0.5
		C75.6,6.6,75.8,6.8,75.8,7z M78.3,1.5c-0.1,0-0.2,0.1-0.2,0.2c0,0.1,0.1,0.2,0.2,0.2c0.1,0,0.2-0.1,0.2-0.2
		C78.5,1.6,78.4,1.5,78.3,1.5z M78.2,2.8c0,0.1-0.1,0.3-0.3,0.3c-0.1,0-0.3-0.1-0.3-0.3c0-0.1,0.1-0.3,0.3-0.3
		C78.1,2.6,78.2,2.7,78.2,2.8z M77.9,4c0,0.2-0.1,0.3-0.3,0.3c-0.2,0-0.3-0.1-0.3-0.3s0.1-0.3,0.3-0.3C77.7,3.7,77.9,3.8,77.9,4z
		 M77.6,5.2c0,0.2-0.2,0.4-0.4,0.4c-0.2,0-0.4-0.2-0.4-0.4c0-0.2,0.2-0.4,0.4-0.4C77.4,4.8,77.6,4.9,77.6,5.2z M77.2,6.3
		c0,0.2-0.2,0.4-0.4,0.4c-0.2,0-0.4-0.2-0.4-0.4c0-0.2,0.2-0.4,0.4-0.4C77,5.9,77.2,6.1,77.2,6.3z M79.8,0.7c-0.1,0-0.2,0.1-0.2,0.2
		c0,0.1,0.1,0.2,0.2,0.2C79.9,1.1,80,1,80,0.9C80,0.8,79.9,0.7,79.8,0.7z M79.7,2c0,0.1-0.1,0.3-0.3,0.3c-0.1,0-0.3-0.1-0.3-0.3
		c0-0.1,0.1-0.3,0.3-0.3C79.6,1.8,79.7,1.9,79.7,2z M79.4,3.2c0,0.2-0.1,0.3-0.3,0.3c-0.2,0-0.3-0.1-0.3-0.3c0-0.2,0.1-0.3,0.3-0.3
		C79.2,2.9,79.4,3,79.4,3.2z M79.1,4.3c0,0.2-0.2,0.4-0.4,0.4c-0.2,0-0.4-0.2-0.4-0.4c0-0.2,0.2-0.4,0.4-0.4
		C78.9,4,79.1,4.1,79.1,4.3z M80.9,1.1c-0.1,0-0.2,0.1-0.2,0.2c0,0.1,0.1,0.2,0.2,0.2s0.2-0.1,0.2-0.2C81.1,1.1,81,1.1,80.9,1.1z
		 M80.8,2.4c0,0.1-0.1,0.3-0.3,0.3c-0.1,0-0.3-0.1-0.3-0.3c0-0.1,0.1-0.3,0.3-0.3C80.7,2.1,80.8,2.2,80.8,2.4z M61.8,1.2
		c-0.1,0-0.2,0.1-0.2,0.2c0,0.1,0.1,0.2,0.2,0.2c0.1,0,0.2-0.1,0.2-0.2S61.9,1.2,61.8,1.2z M61.7,2.6c0,0.1-0.1,0.3-0.3,0.3
		c-0.1,0-0.3-0.1-0.3-0.3c0-0.1,0.1-0.3,0.3-0.3S61.7,2.4,61.7,2.6z M61.4,3.7c0,0.2-0.1,0.3-0.3,0.3c-0.2,0-0.3-0.1-0.3-0.3
		c0-0.2,0.1-0.3,0.3-0.3C61.2,3.4,61.4,3.5,61.4,3.7z M61.1,4.9c0,0.2-0.2,0.4-0.4,0.4c-0.2,0-0.4-0.2-0.4-0.4
		c0-0.2,0.2-0.4,0.4-0.4C60.9,4.5,61.1,4.7,61.1,4.9z M60.7,6c0,0.2-0.2,0.4-0.4,0.4c-0.2,0-0.4-0.2-0.4-0.4c0-0.2,0.2-0.4,0.4-0.4
		C60.5,5.6,60.7,5.8,60.7,6z M60.4,7.2c0,0.3-0.2,0.5-0.5,0.5s-0.5-0.2-0.5-0.5c0-0.3,0.2-0.5,0.5-0.5C60.2,6.7,60.4,6.9,60.4,7.2z
		 M60.1,8.3c0,0.3-0.2,0.5-0.5,0.5c-0.3,0-0.5-0.2-0.5-0.5c0-0.3,0.2-0.5,0.5-0.5C59.8,7.8,60.1,8.1,60.1,8.3z M59.7,9.5
		c0,0.3-0.2,0.5-0.5,0.5c-0.3,0-0.5-0.2-0.5-0.5c0-0.3,0.2-0.5,0.5-0.5C59.5,8.9,59.7,9.2,59.7,9.5z M59.4,10.6
		c0,0.3-0.3,0.6-0.6,0.6c-0.3,0-0.6-0.3-0.6-0.6c0-0.3,0.3-0.6,0.6-0.6C59.1,10.1,59.4,10.3,59.4,10.6z M59,11.8
		c0,0.3-0.3,0.6-0.6,0.6c-0.3,0-0.6-0.3-0.6-0.6c0-0.3,0.3-0.6,0.6-0.6C58.8,11.2,59,11.5,59,11.8z M60.7,0.9
		c-0.1,0-0.2,0.1-0.2,0.2c0,0.1,0.1,0.2,0.2,0.2c0.1,0,0.2-0.1,0.2-0.2C60.9,1,60.8,0.9,60.7,0.9z M60.6,2.2c0,0.1-0.1,0.3-0.3,0.3
		c-0.1,0-0.3-0.1-0.3-0.3C60,2.1,60.2,2,60.3,2C60.4,2,60.6,2.1,60.6,2.2z M60.2,3.4c0,0.2-0.1,0.3-0.3,0.3c-0.2,0-0.3-0.1-0.3-0.3
		c0-0.2,0.1-0.3,0.3-0.3C60.1,3.1,60.2,3.2,60.2,3.4z M59.9,4.5c0,0.2-0.2,0.4-0.4,0.4c-0.2,0-0.4-0.2-0.4-0.4
		c0-0.2,0.2-0.4,0.4-0.4S59.9,4.3,59.9,4.5z M59.6,5.7c0,0.2-0.2,0.4-0.4,0.4c-0.2,0-0.4-0.2-0.4-0.4c0-0.2,0.2-0.4,0.4-0.4
		C59.4,5.3,59.6,5.5,59.6,5.7z M59.3,6.9c0,0.3-0.2,0.5-0.5,0.5c-0.3,0-0.5-0.2-0.5-0.5c0-0.3,0.2-0.5,0.5-0.5
		C59.1,6.4,59.3,6.6,59.3,6.9z M58.9,8c0,0.3-0.2,0.5-0.5,0.5c-0.3,0-0.5-0.2-0.5-0.5s0.2-0.5,0.5-0.5C58.7,7.5,58.9,7.7,58.9,8z
		 M58.6,9.2c0,0.3-0.2,0.5-0.5,0.5c-0.3,0-0.5-0.2-0.5-0.5c0-0.3,0.2-0.5,0.5-0.5C58.3,8.6,58.6,8.9,58.6,9.2z M58.2,10.3
		c0,0.3-0.3,0.6-0.6,0.6c-0.3,0-0.6-0.3-0.6-0.6c0-0.3,0.3-0.6,0.6-0.6C58,9.8,58.2,10,58.2,10.3z M57.9,11.5c0,0.3-0.3,0.6-0.6,0.6
		c-0.3,0-0.6-0.3-0.6-0.6c0-0.3,0.3-0.6,0.6-0.6C57.6,10.9,57.9,11.2,57.9,11.5z M59.5,0.5c-0.1,0-0.2,0.1-0.2,0.2
		c0,0.1,0.1,0.2,0.2,0.2c0.1,0,0.2-0.1,0.2-0.2C59.7,0.6,59.6,0.5,59.5,0.5z M59.4,1.8c0,0.1-0.1,0.3-0.3,0.3S58.9,2,58.9,1.8
		c0-0.1,0.1-0.3,0.3-0.3S59.4,1.7,59.4,1.8z M59.1,3c0,0.2-0.1,0.3-0.3,0.3c-0.2,0-0.3-0.1-0.3-0.3c0-0.2,0.1-0.3,0.3-0.3
		C58.9,2.7,59.1,2.8,59.1,3z M58.8,4.2c0,0.2-0.2,0.4-0.4,0.4c-0.2,0-0.4-0.2-0.4-0.4c0-0.2,0.2-0.4,0.4-0.4
		C58.6,3.8,58.8,3.9,58.8,4.2z M58.4,5.3c0,0.2-0.2,0.4-0.4,0.4c-0.2,0-0.4-0.2-0.4-0.4c0-0.2,0.2-0.4,0.4-0.4
		C58.2,4.9,58.4,5.1,58.4,5.3z M58.1,6.5c0,0.3-0.2,0.5-0.5,0.5s-0.5-0.2-0.5-0.5c0-0.3,0.2-0.5,0.5-0.5C57.9,6,58.1,6.2,58.1,6.5z
		 M57.8,7.6c0,0.3-0.2,0.5-0.5,0.5c-0.3,0-0.5-0.2-0.5-0.5c0-0.3,0.2-0.5,0.5-0.5C57.5,7.1,57.8,7.3,57.8,7.6z M57.4,8.8
		c0,0.3-0.2,0.5-0.5,0.5c-0.3,0-0.5-0.2-0.5-0.5c0-0.3,0.2-0.5,0.5-0.5C57.2,8.2,57.4,8.5,57.4,8.8z M57.1,9.9
		c0,0.3-0.3,0.6-0.6,0.6c-0.3,0-0.6-0.3-0.6-0.6c0-0.3,0.3-0.6,0.6-0.6C56.8,9.4,57.1,9.6,57.1,9.9z M56.7,11.1
		c0,0.3-0.3,0.6-0.6,0.6c-0.3,0-0.6-0.3-0.6-0.6c0-0.3,0.3-0.6,0.6-0.6C56.5,10.5,56.7,10.8,56.7,11.1z M58,1.3
		c-0.1,0-0.2,0.1-0.2,0.2c0,0.1,0.1,0.2,0.2,0.2c0.1,0,0.2-0.1,0.2-0.2C58.2,1.4,58.1,1.3,58,1.3z M57.9,2.6c0,0.1-0.1,0.3-0.3,0.3
		c-0.1,0-0.3-0.1-0.3-0.3c0-0.1,0.1-0.3,0.3-0.3C57.7,2.4,57.9,2.5,57.9,2.6z M57.5,3.8c0,0.2-0.1,0.3-0.3,0.3
		c-0.2,0-0.3-0.1-0.3-0.3c0-0.2,0.1-0.3,0.3-0.3C57.4,3.4,57.5,3.6,57.5,3.8z M57.2,4.9c0,0.2-0.2,0.4-0.4,0.4
		c-0.2,0-0.4-0.2-0.4-0.4c0-0.2,0.2-0.4,0.4-0.4C57.1,4.5,57.2,4.7,57.2,4.9z M56.9,6.1c0,0.2-0.2,0.4-0.4,0.4
		c-0.2,0-0.4-0.2-0.4-0.4c0-0.2,0.2-0.4,0.4-0.4C56.7,5.7,56.9,5.9,56.9,6.1z M56.6,7.2c0,0.3-0.2,0.5-0.5,0.5s-0.5-0.2-0.5-0.5
		c0-0.3,0.2-0.5,0.5-0.5C56.4,6.8,56.6,7,56.6,7.2z M56.2,8.4c0,0.3-0.2,0.5-0.5,0.5c-0.3,0-0.5-0.2-0.5-0.5c0-0.3,0.2-0.5,0.5-0.5
		C56,7.9,56.2,8.1,56.2,8.4z M55.9,9.5c0,0.3-0.2,0.5-0.5,0.5c-0.3,0-0.5-0.2-0.5-0.5c0-0.3,0.2-0.5,0.5-0.5
		C55.6,9,55.9,9.2,55.9,9.5z M55.5,10.7c0,0.3-0.3,0.6-0.6,0.6c-0.3,0-0.6-0.3-0.6-0.6c0-0.3,0.3-0.6,0.6-0.6
		C55.3,10.1,55.5,10.4,55.5,10.7z M55.2,11.9c0,0.3-0.3,0.6-0.6,0.6c-0.3,0-0.6-0.3-0.6-0.6c0-0.3,0.3-0.6,0.6-0.6
		C54.9,11.3,55.2,11.5,55.2,11.9z M56.8,0.9c-0.1,0-0.2,0.1-0.2,0.2c0,0.1,0.1,0.2,0.2,0.2S57,1.2,57,1.1C57,1,56.9,0.9,56.8,0.9z
		 M56.7,2.2c0,0.1-0.1,0.3-0.3,0.3c-0.1,0-0.3-0.1-0.3-0.3c0-0.1,0.1-0.3,0.3-0.3C56.6,2,56.7,2.1,56.7,2.2z M56.4,3.4
		c0,0.2-0.1,0.3-0.3,0.3s-0.3-0.1-0.3-0.3c0-0.2,0.1-0.3,0.3-0.3S56.4,3.2,56.4,3.4z M56.1,4.5c0,0.2-0.2,0.4-0.4,0.4
		c-0.2,0-0.4-0.2-0.4-0.4c0-0.2,0.2-0.4,0.4-0.4C55.9,4.2,56.1,4.3,56.1,4.5z M55.8,5.7c0,0.2-0.2,0.4-0.4,0.4
		c-0.2,0-0.4-0.2-0.4-0.4c0-0.2,0.2-0.4,0.4-0.4C55.6,5.3,55.8,5.5,55.8,5.7z M55.4,6.9c0,0.3-0.2,0.5-0.5,0.5
		c-0.3,0-0.5-0.2-0.5-0.5c0-0.3,0.2-0.5,0.5-0.5C55.2,6.4,55.4,6.6,55.4,6.9z M55.1,8c0,0.3-0.2,0.5-0.5,0.5c-0.3,0-0.5-0.2-0.5-0.5
		s0.2-0.5,0.5-0.5C54.9,7.5,55.1,7.7,55.1,8z M54.7,9.1c0,0.3-0.2,0.5-0.5,0.5c-0.3,0-0.5-0.2-0.5-0.5c0-0.3,0.2-0.5,0.5-0.5
		C54.5,8.6,54.7,8.9,54.7,9.1z M54.4,10.3c0,0.3-0.3,0.6-0.6,0.6c-0.3,0-0.6-0.3-0.6-0.6c0-0.3,0.3-0.6,0.6-0.6
		C54.1,9.7,54.4,10,54.4,10.3z M54,11.5c0,0.3-0.3,0.6-0.6,0.6c-0.3,0-0.6-0.3-0.6-0.6c0-0.3,0.3-0.6,0.6-0.6
		C53.8,10.9,54,11.1,54,11.5z M55.7,0.5c-0.1,0-0.2,0.1-0.2,0.2c0,0.1,0.1,0.2,0.2,0.2c0.1,0,0.2-0.1,0.2-0.2S55.8,0.5,55.7,0.5z
		 M55.5,1.8c0,0.1-0.1,0.3-0.3,0.3C55.1,2.1,55,2,55,1.8c0-0.1,0.1-0.3,0.3-0.3C55.4,1.6,55.5,1.7,55.5,1.8z M55.2,3
		c0,0.2-0.1,0.3-0.3,0.3c-0.2,0-0.3-0.1-0.3-0.3c0-0.2,0.1-0.3,0.3-0.3C55.1,2.7,55.2,2.8,55.2,3z M54.9,4.2c0,0.2-0.2,0.4-0.4,0.4
		c-0.2,0-0.4-0.2-0.4-0.4c0-0.2,0.2-0.4,0.4-0.4C54.8,3.8,54.9,3.9,54.9,4.2z M54.6,5.3c0,0.2-0.2,0.4-0.4,0.4
		c-0.2,0-0.4-0.2-0.4-0.4c0-0.2,0.2-0.4,0.4-0.4C54.4,4.9,54.6,5.1,54.6,5.3z M54.3,6.5c0,0.3-0.2,0.5-0.5,0.5
		c-0.3,0-0.5-0.2-0.5-0.5c0-0.3,0.2-0.5,0.5-0.5C54.1,6,54.3,6.2,54.3,6.5z M53.9,7.6c0,0.3-0.2,0.5-0.5,0.5c-0.3,0-0.5-0.2-0.5-0.5
		s0.2-0.5,0.5-0.5C53.7,7.1,53.9,7.3,53.9,7.6z M53.6,8.8c0,0.3-0.2,0.5-0.5,0.5c-0.3,0-0.5-0.2-0.5-0.5c0-0.3,0.2-0.5,0.5-0.5
		C53.3,8.2,53.6,8.5,53.6,8.8z M53.2,9.9c0,0.3-0.3,0.6-0.6,0.6c-0.3,0-0.6-0.3-0.6-0.6c0-0.3,0.3-0.6,0.6-0.6
		C53,9.4,53.2,9.6,53.2,9.9z M52.9,11.1c0,0.3-0.3,0.6-0.6,0.6c-0.3,0-0.6-0.3-0.6-0.6c0-0.3,0.3-0.6,0.6-0.6
		C52.6,10.5,52.9,10.8,52.9,11.1z M54.1,1.3c-0.1,0-0.2,0.1-0.2,0.2c0,0.1,0.1,0.2,0.2,0.2c0.1,0,0.2-0.1,0.2-0.2
		C54.3,1.4,54.2,1.3,54.1,1.3z M54,2.6c0,0.1-0.1,0.3-0.3,0.3c-0.1,0-0.3-0.1-0.3-0.3c0-0.1,0.1-0.3,0.3-0.3C53.9,2.4,54,2.5,54,2.6
		z M53.7,3.8c0,0.2-0.1,0.3-0.3,0.3c-0.2,0-0.3-0.1-0.3-0.3c0-0.2,0.1-0.3,0.3-0.3C53.6,3.4,53.7,3.6,53.7,3.8z M53.4,4.9
		c0,0.2-0.2,0.4-0.4,0.4c-0.2,0-0.4-0.2-0.4-0.4c0-0.2,0.2-0.4,0.4-0.4C53.2,4.5,53.4,4.7,53.4,4.9z M53.1,6.1
		c0,0.2-0.2,0.4-0.4,0.4c-0.2,0-0.4-0.2-0.4-0.4c0-0.2,0.2-0.4,0.4-0.4C52.9,5.7,53.1,5.9,53.1,6.1z M52.7,7.2
		c0,0.3-0.2,0.5-0.5,0.5c-0.3,0-0.5-0.2-0.5-0.5c0-0.3,0.2-0.5,0.5-0.5C52.5,6.8,52.7,7,52.7,7.2z M52.4,8.4c0,0.3-0.2,0.5-0.5,0.5
		c-0.3,0-0.5-0.2-0.5-0.5c0-0.3,0.2-0.5,0.5-0.5C52.2,7.9,52.4,8.1,52.4,8.4z M52,9.5c0,0.3-0.2,0.5-0.5,0.5c-0.3,0-0.5-0.2-0.5-0.5
		C51,9.2,51.2,9,51.5,9C51.8,9,52,9.2,52,9.5z M51.7,10.7c0,0.3-0.3,0.6-0.6,0.6c-0.3,0-0.6-0.3-0.6-0.6c0-0.3,0.3-0.6,0.6-0.6
		C51.4,10.1,51.7,10.4,51.7,10.7z M51.3,11.9c0,0.3-0.3,0.6-0.6,0.6c-0.3,0-0.6-0.3-0.6-0.6c0-0.3,0.3-0.6,0.6-0.6
		C51.1,11.3,51.3,11.5,51.3,11.9z M53,1c-0.1,0-0.2,0.1-0.2,0.2c0,0.1,0.1,0.2,0.2,0.2c0.1,0,0.2-0.1,0.2-0.2C53.2,1,53.1,1,53,1z
		 M52.9,2.3c0,0.1-0.1,0.3-0.3,0.3c-0.1,0-0.3-0.1-0.3-0.3c0-0.1,0.1-0.3,0.3-0.3C52.8,2,52.9,2.1,52.9,2.3z M52.6,3.4
		c0,0.2-0.1,0.3-0.3,0.3s-0.3-0.1-0.3-0.3c0-0.2,0.1-0.3,0.3-0.3S52.6,3.3,52.6,3.4z M52.3,4.6c0,0.2-0.2,0.4-0.4,0.4
		c-0.2,0-0.4-0.2-0.4-0.4c0-0.2,0.2-0.4,0.4-0.4C52.1,4.2,52.3,4.4,52.3,4.6z M51.9,5.8c0,0.2-0.2,0.4-0.4,0.4C51.2,6.2,51,6,51,5.8
		c0-0.2,0.2-0.4,0.4-0.4C51.7,5.3,51.9,5.5,51.9,5.8z M51.6,6.9c0,0.3-0.2,0.5-0.5,0.5c-0.3,0-0.5-0.2-0.5-0.5
		c0-0.3,0.2-0.5,0.5-0.5C51.4,6.4,51.6,6.7,51.6,6.9z M51.2,8.1c0,0.3-0.2,0.5-0.5,0.5c-0.3,0-0.5-0.2-0.5-0.5
		c0-0.3,0.2-0.5,0.5-0.5C51,7.5,51.2,7.8,51.2,8.1z M50.9,9.2c0,0.3-0.2,0.5-0.5,0.5c-0.3,0-0.5-0.2-0.5-0.5c0-0.3,0.2-0.5,0.5-0.5
		C50.6,8.7,50.9,8.9,50.9,9.2z M50.5,10.4c0,0.3-0.3,0.6-0.6,0.6c-0.3,0-0.6-0.3-0.6-0.6c0-0.3,0.3-0.6,0.6-0.6
		C50.3,9.8,50.5,10.1,50.5,10.4z M50.2,11.5c0,0.3-0.3,0.6-0.6,0.6c-0.3,0-0.6-0.3-0.6-0.6c0-0.3,0.3-0.6,0.6-0.6
		C49.9,10.9,50.2,11.2,50.2,11.5z M51.8,0.6c-0.1,0-0.2,0.1-0.2,0.2c0,0.1,0.1,0.2,0.2,0.2C51.9,1,52,0.9,52,0.8
		C52,0.7,51.9,0.6,51.8,0.6z M51.7,1.9c0,0.1-0.1,0.3-0.3,0.3S51.2,2,51.2,1.9c0-0.1,0.1-0.3,0.3-0.3S51.7,1.8,51.7,1.9z M51.4,3.1
		c0,0.2-0.1,0.3-0.3,0.3c-0.2,0-0.3-0.1-0.3-0.3c0-0.2,0.1-0.3,0.3-0.3C51.3,2.7,51.4,2.9,51.4,3.1z M51.1,4.2
		c0,0.2-0.2,0.4-0.4,0.4s-0.4-0.2-0.4-0.4s0.2-0.4,0.4-0.4S51.1,4,51.1,4.2z M50.8,5.4c0,0.2-0.2,0.4-0.4,0.4
		c-0.2,0-0.4-0.2-0.4-0.4c0-0.2,0.2-0.4,0.4-0.4C50.6,4.9,50.8,5.1,50.8,5.4z M50.4,6.5C50.4,6.8,50.2,7,50,7
		c-0.3,0-0.5-0.2-0.5-0.5c0-0.3,0.2-0.5,0.5-0.5C50.2,6.1,50.4,6.3,50.4,6.5z M50.1,7.7c0,0.3-0.2,0.5-0.5,0.5S49.1,8,49.1,7.7
		c0-0.3,0.2-0.5,0.5-0.5S50.1,7.4,50.1,7.7z M49.7,8.8c0,0.3-0.2,0.5-0.5,0.5c-0.3,0-0.5-0.2-0.5-0.5s0.2-0.5,0.5-0.5
		C49.5,8.3,49.7,8.5,49.7,8.8z M49.4,10c0,0.3-0.3,0.6-0.6,0.6c-0.3,0-0.6-0.3-0.6-0.6c0-0.3,0.3-0.6,0.6-0.6
		C49.1,9.4,49.4,9.7,49.4,10z M49,11.2c0,0.3-0.3,0.6-0.6,0.6c-0.3,0-0.6-0.3-0.6-0.6c0-0.3,0.3-0.6,0.6-0.6
		C48.8,10.6,49,10.8,49,11.2z M50.3,1.3c-0.1,0-0.2,0.1-0.2,0.2c0,0.1,0.1,0.2,0.2,0.2c0.1,0,0.2-0.1,0.2-0.2
		C50.5,1.4,50.4,1.3,50.3,1.3z M50.2,2.7c0,0.1-0.1,0.3-0.3,0.3c-0.1,0-0.3-0.1-0.3-0.3c0-0.1,0.1-0.3,0.3-0.3
		C50.1,2.4,50.2,2.5,50.2,2.7z M49.9,3.8c0,0.2-0.1,0.3-0.3,0.3c-0.2,0-0.3-0.1-0.3-0.3c0-0.2,0.1-0.3,0.3-0.3
		C49.7,3.5,49.9,3.6,49.9,3.8z M49.6,5c0,0.2-0.2,0.4-0.4,0.4c-0.2,0-0.4-0.2-0.4-0.4c0-0.2,0.2-0.4,0.4-0.4
		C49.4,4.6,49.6,4.8,49.6,5z M49.2,6.1c0,0.2-0.2,0.4-0.4,0.4c-0.2,0-0.4-0.2-0.4-0.4c0-0.2,0.2-0.4,0.4-0.4
		C49,5.7,49.2,5.9,49.2,6.1z M48.9,7.3c0,0.3-0.2,0.5-0.5,0.5c-0.3,0-0.5-0.2-0.5-0.5c0-0.3,0.2-0.5,0.5-0.5
		C48.7,6.8,48.9,7,48.9,7.3z M48.5,8.4C48.5,8.7,48.3,9,48,9c-0.3,0-0.5-0.2-0.5-0.5c0-0.3,0.2-0.5,0.5-0.5
		C48.3,7.9,48.5,8.2,48.5,8.4z M48.2,9.6c0,0.3-0.2,0.5-0.5,0.5c-0.3,0-0.5-0.2-0.5-0.5c0-0.3,0.2-0.5,0.5-0.5
		C48,9.1,48.2,9.3,48.2,9.6z M47.8,10.8c0,0.3-0.3,0.6-0.6,0.6c-0.3,0-0.6-0.3-0.6-0.6c0-0.3,0.3-0.6,0.6-0.6
		C47.6,10.2,47.8,10.4,47.8,10.8z M47.5,11.9c0,0.3-0.3,0.6-0.6,0.6s-0.6-0.3-0.6-0.6c0-0.3,0.3-0.6,0.6-0.6
		C47.2,11.3,47.5,11.6,47.5,11.9z M49.1,1C49,1,48.9,1,48.9,1.1c0,0.1,0.1,0.2,0.2,0.2c0.1,0,0.2-0.1,0.2-0.2C49.3,1,49.2,1,49.1,1z
		 M49,2.3c0,0.1-0.1,0.3-0.3,0.3c-0.1,0-0.3-0.1-0.3-0.3c0-0.1,0.1-0.3,0.3-0.3C48.9,2,49,2.1,49,2.3z M48.7,3.4
		c0,0.2-0.1,0.3-0.3,0.3S48,3.6,48,3.4c0-0.2,0.1-0.3,0.3-0.3C48.5,3.1,48.7,3.3,48.7,3.4z M48.4,4.6C48.4,4.8,48.2,5,48,5
		c-0.2,0-0.4-0.2-0.4-0.4c0-0.2,0.2-0.4,0.4-0.4C48.2,4.2,48.4,4.4,48.4,4.6z M48,5.8c0,0.2-0.2,0.4-0.4,0.4c-0.2,0-0.4-0.2-0.4-0.4
		c0-0.2,0.2-0.4,0.4-0.4C47.8,5.3,48,5.5,48,5.8z M47.7,6.9c0,0.3-0.2,0.5-0.5,0.5c-0.3,0-0.5-0.2-0.5-0.5c0-0.3,0.2-0.5,0.5-0.5
		C47.5,6.4,47.7,6.7,47.7,6.9z M47.3,8.1c0,0.3-0.2,0.5-0.5,0.5c-0.3,0-0.5-0.2-0.5-0.5c0-0.3,0.2-0.5,0.5-0.5
		C47.1,7.5,47.3,7.8,47.3,8.1z M47,9.2c0,0.3-0.2,0.5-0.5,0.5c-0.3,0-0.5-0.2-0.5-0.5c0-0.3,0.2-0.5,0.5-0.5C46.8,8.7,47,8.9,47,9.2
		z M46.6,10.4c0,0.3-0.3,0.6-0.6,0.6c-0.3,0-0.6-0.3-0.6-0.6c0-0.3,0.3-0.6,0.6-0.6C46.4,9.8,46.6,10.1,46.6,10.4z M46.3,11.5
		c0,0.3-0.3,0.6-0.6,0.6c-0.3,0-0.6-0.3-0.6-0.6c0-0.3,0.3-0.6,0.6-0.6C46,10.9,46.3,11.2,46.3,11.5z M48,0.6
		c-0.1,0-0.2,0.1-0.2,0.2C47.8,0.9,47.9,1,48,1c0.1,0,0.2-0.1,0.2-0.2C48.2,0.7,48.1,0.6,48,0.6z M47.9,2c0,0.1-0.1,0.3-0.3,0.3
		c-0.1,0-0.3-0.1-0.3-0.3c0-0.1,0.1-0.3,0.3-0.3C47.8,1.7,47.9,1.8,47.9,2z M47.6,3.1c0,0.2-0.1,0.3-0.3,0.3c-0.2,0-0.3-0.1-0.3-0.3
		c0-0.2,0.1-0.3,0.3-0.3C47.4,2.8,47.6,2.9,47.6,3.1z M47.3,4.3c0,0.2-0.2,0.4-0.4,0.4c-0.2,0-0.4-0.2-0.4-0.4
		c0-0.2,0.2-0.4,0.4-0.4C47.1,3.9,47.3,4.1,47.3,4.3z M46.9,5.4c0,0.2-0.2,0.4-0.4,0.4c-0.2,0-0.4-0.2-0.4-0.4S46.2,5,46.5,5
		C46.7,5,46.9,5.2,46.9,5.4z M46.6,6.6c0,0.3-0.2,0.5-0.5,0.5s-0.5-0.2-0.5-0.5c0-0.3,0.2-0.5,0.5-0.5C46.4,6.1,46.6,6.3,46.6,6.6z
		 M46.2,7.7c0,0.3-0.2,0.5-0.5,0.5c-0.3,0-0.5-0.2-0.5-0.5c0-0.3,0.2-0.5,0.5-0.5C46,7.2,46.2,7.4,46.2,7.7z M45.9,8.9
		c0,0.3-0.2,0.5-0.5,0.5c-0.3,0-0.5-0.2-0.5-0.5c0-0.3,0.2-0.5,0.5-0.5C45.7,8.3,45.9,8.6,45.9,8.9z M45.5,10c0,0.3-0.3,0.6-0.6,0.6
		c-0.3,0-0.6-0.3-0.6-0.6c0-0.3,0.3-0.6,0.6-0.6C45.3,9.5,45.5,9.7,45.5,10z M45.2,11.2c0,0.3-0.3,0.6-0.6,0.6
		c-0.3,0-0.6-0.3-0.6-0.6c0-0.3,0.3-0.6,0.6-0.6C44.9,10.6,45.2,10.9,45.2,11.2z M46.4,1.4c-0.1,0-0.2,0.1-0.2,0.2
		c0,0.1,0.1,0.2,0.2,0.2c0.1,0,0.2-0.1,0.2-0.2C46.6,1.5,46.5,1.4,46.4,1.4z M46.3,2.7c0,0.1-0.1,0.3-0.3,0.3
		c-0.1,0-0.3-0.1-0.3-0.3c0-0.1,0.1-0.3,0.3-0.3C46.2,2.5,46.3,2.6,46.3,2.7z M46,3.9c0,0.2-0.1,0.3-0.3,0.3c-0.2,0-0.3-0.1-0.3-0.3
		c0-0.2,0.1-0.3,0.3-0.3C45.9,3.6,46,3.7,46,3.9z M45.7,5c0,0.2-0.2,0.4-0.4,0.4c-0.2,0-0.4-0.2-0.4-0.4c0-0.2,0.2-0.4,0.4-0.4
		C45.5,4.7,45.7,4.8,45.7,5z M45.3,6.2c0,0.2-0.2,0.4-0.4,0.4c-0.2,0-0.4-0.2-0.4-0.4c0-0.2,0.2-0.4,0.4-0.4
		C45.2,5.8,45.3,6,45.3,6.2z M45,7.4c0,0.3-0.2,0.5-0.5,0.5c-0.3,0-0.5-0.2-0.5-0.5c0-0.3,0.2-0.5,0.5-0.5C44.8,6.9,45,7.1,45,7.4z
		 M44.7,8.5c0,0.3-0.2,0.5-0.5,0.5c-0.3,0-0.5-0.2-0.5-0.5S43.9,8,44.2,8C44.4,8,44.7,8.2,44.7,8.5z M44.3,9.6
		c0,0.3-0.2,0.5-0.5,0.5c-0.3,0-0.5-0.2-0.5-0.5c0-0.3,0.2-0.5,0.5-0.5C44.1,9.1,44.3,9.4,44.3,9.6z M44,10.8c0,0.3-0.3,0.6-0.6,0.6
		c-0.3,0-0.6-0.3-0.6-0.6c0-0.3,0.3-0.6,0.6-0.6C43.7,10.3,44,10.5,44,10.8z M43.6,12c0,0.3-0.3,0.6-0.6,0.6c-0.3,0-0.6-0.3-0.6-0.6
		c0-0.3,0.3-0.6,0.6-0.6S43.6,11.7,43.6,12z M45.3,1c-0.1,0-0.2,0.1-0.2,0.2s0.1,0.2,0.2,0.2s0.2-0.1,0.2-0.2S45.4,1,45.3,1z
		 M45.2,2.3c0,0.1-0.1,0.3-0.3,0.3c-0.1,0-0.3-0.1-0.3-0.3c0-0.1,0.1-0.3,0.3-0.3C45.1,2.1,45.2,2.2,45.2,2.3z M44.9,3.5
		c0,0.2-0.1,0.3-0.3,0.3c-0.2,0-0.3-0.1-0.3-0.3c0-0.2,0.1-0.3,0.3-0.3C44.7,3.2,44.9,3.3,44.9,3.5z M44.6,4.6
		c0,0.2-0.2,0.4-0.4,0.4c-0.2,0-0.4-0.2-0.4-0.4c0-0.2,0.2-0.4,0.4-0.4C44.4,4.3,44.6,4.4,44.6,4.6z M44.2,5.8
		c0,0.2-0.2,0.4-0.4,0.4S43.4,6,43.4,5.8c0-0.2,0.2-0.4,0.4-0.4C44,5.4,44.2,5.6,44.2,5.8z M43.9,7c0,0.3-0.2,0.5-0.5,0.5
		C43.2,7.4,43,7.2,43,7c0-0.3,0.2-0.5,0.5-0.5C43.7,6.5,43.9,6.7,43.9,7z M43.6,8.1c0,0.3-0.2,0.5-0.5,0.5c-0.3,0-0.5-0.2-0.5-0.5
		c0-0.3,0.2-0.5,0.5-0.5C43.3,7.6,43.6,7.8,43.6,8.1z M43.2,9.3c0,0.3-0.2,0.5-0.5,0.5c-0.3,0-0.5-0.2-0.5-0.5
		c0-0.3,0.2-0.5,0.5-0.5C43,8.7,43.2,9,43.2,9.3z M42.9,10.4c0,0.3-0.3,0.6-0.6,0.6c-0.3,0-0.6-0.3-0.6-0.6c0-0.3,0.3-0.6,0.6-0.6
		C42.6,9.9,42.9,10.1,42.9,10.4z M44.1,0.6c-0.1,0-0.2,0.1-0.2,0.2C43.9,0.9,44,1,44.1,1c0.1,0,0.2-0.1,0.2-0.2
		C44.3,0.7,44.2,0.6,44.1,0.6z M44,1.9c0,0.1-0.1,0.3-0.3,0.3c-0.1,0-0.3-0.1-0.3-0.3c0-0.1,0.1-0.3,0.3-0.3C43.9,1.7,44,1.8,44,1.9
		z M43.7,3.1c0,0.2-0.1,0.3-0.3,0.3c-0.2,0-0.3-0.1-0.3-0.3c0-0.2,0.1-0.3,0.3-0.3C43.6,2.8,43.7,2.9,43.7,3.1z M43.4,4.2
		c0,0.2-0.2,0.4-0.4,0.4c-0.2,0-0.4-0.2-0.4-0.4c0-0.2,0.2-0.4,0.4-0.4C43.2,3.9,43.4,4,43.4,4.2z M43.1,5.4c0,0.2-0.2,0.4-0.4,0.4
		c-0.2,0-0.4-0.2-0.4-0.4c0-0.2,0.2-0.4,0.4-0.4C42.9,5,43.1,5.2,43.1,5.4z M42.7,6.6c0,0.3-0.2,0.5-0.5,0.5s-0.5-0.2-0.5-0.5
		c0-0.3,0.2-0.5,0.5-0.5S42.7,6.3,42.7,6.6z M42.4,7.7c0,0.3-0.2,0.5-0.5,0.5c-0.3,0-0.5-0.2-0.5-0.5s0.2-0.5,0.5-0.5
		C42.2,7.2,42.4,7.4,42.4,7.7z M42,8.9c0,0.3-0.2,0.5-0.5,0.5c-0.3,0-0.5-0.2-0.5-0.5c0-0.3,0.2-0.5,0.5-0.5C41.8,8.3,42,8.6,42,8.9
		z M41.7,10c0,0.3-0.3,0.6-0.6,0.6c-0.3,0-0.6-0.3-0.6-0.6c0-0.3,0.3-0.6,0.6-0.6C41.4,9.5,41.7,9.7,41.7,10z M42.6,1.4
		c-0.1,0-0.2,0.1-0.2,0.2c0,0.1,0.1,0.2,0.2,0.2c0.1,0,0.2-0.1,0.2-0.2C42.8,1.5,42.7,1.4,42.6,1.4z M42.5,2.7
		c0,0.1-0.1,0.3-0.3,0.3C42.1,3,42,2.9,42,2.7c0-0.1,0.1-0.3,0.3-0.3C42.4,2.5,42.5,2.6,42.5,2.7z M42.2,3.9c0,0.2-0.1,0.3-0.3,0.3
		c-0.2,0-0.3-0.1-0.3-0.3c0-0.2,0.1-0.3,0.3-0.3C42,3.5,42.2,3.7,42.2,3.9z M41.9,5c0,0.2-0.2,0.4-0.4,0.4c-0.2,0-0.4-0.2-0.4-0.4
		c0-0.2,0.2-0.4,0.4-0.4C41.7,4.6,41.9,4.8,41.9,5z M41.5,6.2c0,0.2-0.2,0.4-0.4,0.4c-0.2,0-0.4-0.2-0.4-0.4c0-0.2,0.2-0.4,0.4-0.4
		C41.3,5.8,41.5,6,41.5,6.2z M41.2,7.4c0,0.3-0.2,0.5-0.5,0.5c-0.3,0-0.5-0.2-0.5-0.5c0-0.3,0.2-0.5,0.5-0.5
		C41,6.9,41.2,7.1,41.2,7.4z M40.8,8.5c0,0.3-0.2,0.5-0.5,0.5c-0.3,0-0.5-0.2-0.5-0.5S40,8,40.3,8C40.6,8,40.8,8.2,40.8,8.5z
		 M41.4,1c-0.1,0-0.2,0.1-0.2,0.2s0.1,0.2,0.2,0.2c0.1,0,0.2-0.1,0.2-0.2S41.6,1,41.4,1z M41.3,2.3c0,0.1-0.1,0.3-0.3,0.3
		c-0.1,0-0.3-0.1-0.3-0.3c0-0.1,0.1-0.3,0.3-0.3C41.2,2.1,41.3,2.2,41.3,2.3z M41,3.5c0,0.2-0.1,0.3-0.3,0.3c-0.2,0-0.3-0.1-0.3-0.3
		c0-0.2,0.1-0.3,0.3-0.3C40.9,3.2,41,3.3,41,3.5z M40.7,4.7c0,0.2-0.2,0.4-0.4,0.4c-0.2,0-0.4-0.2-0.4-0.4c0-0.2,0.2-0.4,0.4-0.4
		C40.5,4.3,40.7,4.4,40.7,4.7z M40.4,5.8c0,0.2-0.2,0.4-0.4,0.4c-0.2,0-0.4-0.2-0.4-0.4s0.2-0.4,0.4-0.4C40.2,5.4,40.4,5.6,40.4,5.8
		z M40.1,7c0,0.3-0.2,0.5-0.5,0.5S39.1,7.2,39.1,7c0-0.3,0.2-0.5,0.5-0.5C39.8,6.5,40.1,6.7,40.1,7z M39.7,8.1
		c0,0.3-0.2,0.5-0.5,0.5s-0.5-0.2-0.5-0.5c0-0.3,0.2-0.5,0.5-0.5S39.7,7.8,39.7,8.1z M40.3,0.6c-0.1,0-0.2,0.1-0.2,0.2
		c0,0.1,0.1,0.2,0.2,0.2c0.1,0,0.2-0.1,0.2-0.2C40.5,0.7,40.4,0.6,40.3,0.6z M40.2,2c0,0.1-0.1,0.3-0.3,0.3c-0.1,0-0.3-0.1-0.3-0.3
		c0-0.1,0.1-0.3,0.3-0.3C40.1,1.7,40.2,1.8,40.2,2z M39.9,3.1c0,0.2-0.1,0.3-0.3,0.3c-0.2,0-0.3-0.1-0.3-0.3c0-0.2,0.1-0.3,0.3-0.3
		C39.7,2.8,39.9,2.9,39.9,3.1z M39.6,4.3c0,0.2-0.2,0.4-0.4,0.4c-0.2,0-0.4-0.2-0.4-0.4c0-0.2,0.2-0.4,0.4-0.4
		C39.4,3.9,39.6,4.1,39.6,4.3z M39.2,5.4c0,0.2-0.2,0.4-0.4,0.4c-0.2,0-0.4-0.2-0.4-0.4c0-0.2,0.2-0.4,0.4-0.4
		C39,5,39.2,5.2,39.2,5.4z M38.9,6.6c0,0.3-0.2,0.5-0.5,0.5S38,6.9,38,6.6c0-0.3,0.2-0.5,0.5-0.5C38.7,6.1,38.9,6.3,38.9,6.6z
		 M38.8,1.4c-0.1,0-0.2,0.1-0.2,0.2c0,0.1,0.1,0.2,0.2,0.2c0.1,0,0.2-0.1,0.2-0.2C39,1.5,38.9,1.4,38.8,1.4z M38.7,2.7
		c0,0.1-0.1,0.3-0.3,0.3s-0.3-0.1-0.3-0.3c0-0.1,0.1-0.3,0.3-0.3C38.5,2.5,38.7,2.6,38.7,2.7z M38.3,3.9c0,0.2-0.1,0.3-0.3,0.3
		c-0.2,0-0.3-0.1-0.3-0.3c0-0.2,0.1-0.3,0.3-0.3C38.2,3.5,38.3,3.7,38.3,3.9z M38,5c0,0.2-0.2,0.4-0.4,0.4c-0.2,0-0.4-0.2-0.4-0.4
		c0-0.2,0.2-0.4,0.4-0.4C37.9,4.6,38,4.8,38,5z M37.7,6.2c0,0.2-0.2,0.4-0.4,0.4c-0.2,0-0.4-0.2-0.4-0.4c0-0.2,0.2-0.4,0.4-0.4
		C37.5,5.8,37.7,6,37.7,6.2z M37.6,1.1c-0.1,0-0.2,0.1-0.2,0.2s0.1,0.2,0.2,0.2c0.1,0,0.2-0.1,0.2-0.2S37.7,1.1,37.6,1.1z M37.5,2.4
		c0,0.1-0.1,0.3-0.3,0.3c-0.1,0-0.3-0.1-0.3-0.3s0.1-0.3,0.3-0.3S37.5,2.3,37.5,2.4z M37.2,3.6c0,0.2-0.1,0.3-0.3,0.3
		c-0.2,0-0.3-0.1-0.3-0.3c0-0.2,0.1-0.3,0.3-0.3C37,3.2,37.2,3.4,37.2,3.6z M36.9,4.7c0,0.2-0.2,0.4-0.4,0.4c-0.2,0-0.4-0.2-0.4-0.4
		c0-0.2,0.2-0.4,0.4-0.4C36.7,4.3,36.9,4.5,36.9,4.7z M36.4,0.7c-0.1,0-0.2,0.1-0.2,0.2c0,0.1,0.1,0.2,0.2,0.2
		c0.1,0,0.2-0.1,0.2-0.2C36.6,0.8,36.5,0.7,36.4,0.7z M36.3,2c0,0.1-0.1,0.3-0.3,0.3c-0.1,0-0.3-0.1-0.3-0.3c0-0.1,0.1-0.3,0.3-0.3
		S36.3,1.9,36.3,2z M36,3.2c0,0.2-0.1,0.3-0.3,0.3c-0.2,0-0.3-0.1-0.3-0.3c0-0.2,0.1-0.3,0.3-0.3C35.9,2.8,36,3,36,3.2z M35.7,4.3
		c0,0.2-0.2,0.4-0.4,0.4c-0.2,0-0.4-0.2-0.4-0.4c0-0.2,0.2-0.4,0.4-0.4C35.5,3.9,35.7,4.1,35.7,4.3z M34.9,1.4
		c-0.1,0-0.2,0.1-0.2,0.2c0,0.1,0.1,0.2,0.2,0.2c0.1,0,0.2-0.1,0.2-0.2C35.1,1.5,35,1.4,34.9,1.4z M34.8,2.8c0,0.1-0.1,0.3-0.3,0.3
		c-0.1,0-0.3-0.1-0.3-0.3c0-0.1,0.1-0.3,0.3-0.3S34.8,2.6,34.8,2.8z M33.8,1.1c-0.1,0-0.2,0.1-0.2,0.2s0.1,0.2,0.2,0.2
		c0.1,0,0.2-0.1,0.2-0.2S33.9,1.1,33.8,1.1z M33.7,2.4c0,0.1-0.1,0.3-0.3,0.3s-0.3-0.1-0.3-0.3c0-0.1,0.1-0.3,0.3-0.3
		S33.7,2.3,33.7,2.4z M32.6,0.7c-0.1,0-0.2,0.1-0.2,0.2c0,0.1,0.1,0.2,0.2,0.2c0.1,0,0.2-0.1,0.2-0.2C32.8,0.8,32.7,0.7,32.6,0.7z
		 M32.5,2c0,0.1-0.1,0.3-0.3,0.3C32.1,2.3,32,2.2,32,2s0.1-0.3,0.3-0.3C32.4,1.8,32.5,1.9,32.5,2z M31,0.6c-0.1,0-0.2,0.1-0.2,0.2
		C30.8,0.9,30.9,1,31,1c0.1,0,0.2-0.1,0.2-0.2C31.2,0.7,31.1,0.6,31,0.6z M34.2,4.3C34.2,4.3,34.2,4.3,34.2,4.3
		c0.2,0,0.3-0.1,0.3-0.3s-0.1-0.3-0.3-0.3c-0.2,0-0.3,0.1-0.3,0.3c0,0,0,0,0,0L34.2,4.3z M35.4,5.5c0-0.2-0.2-0.4-0.4-0.4L35.4,5.5z
		 M36.2,6.3c0.2,0,0.3-0.2,0.3-0.4c0-0.2-0.2-0.4-0.4-0.4c-0.2,0-0.4,0.1-0.4,0.3L36.2,6.3z M37.4,7.5c0,0,0-0.1,0-0.1
		c0-0.3-0.2-0.5-0.5-0.5c0,0-0.1,0-0.1,0L37.4,7.5z M38.1,8.2c0.2,0,0.4-0.2,0.4-0.5c0-0.3-0.2-0.5-0.5-0.5c-0.3,0-0.5,0.2-0.5,0.4
		L38.1,8.2z M39.3,9.5c0-0.1,0-0.1,0-0.2c0-0.3-0.2-0.5-0.5-0.5c-0.1,0-0.1,0-0.2,0L39.3,9.5z M40,9.1c-0.3,0-0.5,0.2-0.5,0.4
		l0.6,0.6c0.2,0,0.4-0.3,0.4-0.5C40.5,9.4,40.3,9.1,40,9.1z M41.3,11.4c0-0.1,0-0.1,0-0.2c0-0.3-0.3-0.6-0.6-0.6c-0.1,0-0.2,0-0.2,0
		L41.3,11.4z M41.9,11c-0.3,0-0.5,0.2-0.6,0.5l0.7,0.7c0.3-0.1,0.5-0.3,0.5-0.6C42.5,11.3,42.2,11,41.9,11z M43.2,13.3
		c0-0.1,0-0.1,0-0.2c0-0.3-0.3-0.6-0.6-0.6c-0.1,0-0.1,0-0.2,0L43.2,13.3z M62.4,9.1c0-0.3-0.2-0.5-0.5-0.5c-0.3,0-0.5,0.2-0.5,0.5
		s0.2,0.5,0.5,0.5C62.2,9.6,62.4,9.4,62.4,9.1z M62.2,8.4c-0.3,0-0.5-0.2-0.5-0.5c0-0.3,0.2-0.5,0.5-0.5c0.3,0,0.5,0.2,0.5,0.5
		C62.7,8.2,62.5,8.4,62.2,8.4z M61.1,10.8c0.3,0,0.6,0.3,0.6,0.6c0,0.3-0.3,0.6-0.6,0.6c-0.3,0-0.6-0.3-0.6-0.6
		C60.5,11.1,60.8,10.8,61.1,10.8z M63.4,3.3c0-0.2,0.1-0.3,0.3-0.3c0.2,0,0.3,0.1,0.3,0.3c0,0.2-0.1,0.3-0.3,0.3
		C63.5,3.7,63.4,3.5,63.4,3.3z M63.4,4.1c0.2,0,0.4,0.2,0.4,0.4c0,0.2-0.2,0.4-0.4,0.4c-0.2,0-0.4-0.2-0.4-0.4
		C63,4.3,63.2,4.1,63.4,4.1z M63,6.1c-0.2,0-0.4-0.2-0.4-0.4c0-0.2,0.2-0.4,0.4-0.4c0.2,0,0.4,0.2,0.4,0.4C63.4,5.9,63.2,6.1,63,6.1
		z M61.5,10.8c-0.3,0-0.6-0.3-0.6-0.6c0-0.3,0.3-0.6,0.6-0.6c0.3,0,0.6,0.3,0.6,0.6C62,10.6,61.8,10.8,61.5,10.8z M62.6,7.3
		c-0.3,0-0.5-0.2-0.5-0.5c0-0.3,0.2-0.5,0.5-0.5s0.5,0.2,0.5,0.5C63.1,7.1,62.9,7.3,62.6,7.3z M63.9,2.2c0-0.1,0.1-0.3,0.3-0.3
		c0.1,0,0.3,0.1,0.3,0.3c0,0.1-0.1,0.3-0.3,0.3C64,2.4,63.9,2.3,63.9,2.2z M64.3,1c0-0.1,0.1-0.2,0.2-0.2c0.1,0,0.2,0.1,0.2,0.2
		c0,0.1-0.1,0.2-0.2,0.2C64.4,1.2,64.3,1.1,64.3,1z M59.8,9.9c0-0.3,0.2-0.5,0.5-0.5c0.3,0,0.5,0.2,0.5,0.5c0,0.3-0.2,0.5-0.5,0.5
		C60,10.4,59.8,10.2,59.8,9.9z M60.2,8.7c0-0.3,0.2-0.5,0.5-0.5c0.3,0,0.5,0.2,0.5,0.5S61,9.2,60.7,9.2C60.4,9.2,60.2,9,60.2,8.7z
		 M59.4,11c0-0.3,0.3-0.6,0.6-0.6c0.3,0,0.6,0.3,0.6,0.6c0,0.3-0.3,0.6-0.6,0.6C59.6,11.6,59.4,11.3,59.4,11z M60.6,7.6
		c0-0.3,0.2-0.5,0.5-0.5c0.3,0,0.5,0.2,0.5,0.5c0,0.3-0.2,0.5-0.5,0.5C60.8,8.1,60.6,7.8,60.6,7.6z M59,12.2c0-0.3,0.3-0.6,0.6-0.6
		c0.3,0,0.6,0.3,0.6,0.6c0,0.3-0.3,0.6-0.6,0.6C59.3,12.8,59,12.5,59,12.2z M62.3,2.9c0-0.1,0.1-0.3,0.3-0.3c0.1,0,0.3,0.1,0.3,0.3
		s-0.1,0.3-0.3,0.3C62.5,3.2,62.3,3.1,62.3,2.9z M61,6.4C61,6.2,61.2,6,61.5,6c0.2,0,0.4,0.2,0.4,0.4c0,0.2-0.2,0.4-0.4,0.4
		C61.2,6.9,61,6.7,61,6.4z M62.8,1.8c0-0.1,0.1-0.2,0.2-0.2s0.2,0.1,0.2,0.2C63.2,1.9,63.1,2,63,2C62.9,2,62.8,1.9,62.8,1.8z
		 M61.9,4.1c0-0.2,0.1-0.3,0.3-0.3c0.2,0,0.3,0.1,0.3,0.3c0,0.2-0.1,0.3-0.3,0.3C62,4.4,61.9,4.3,61.9,4.1z M61.5,5.3
		c0-0.2,0.2-0.4,0.4-0.4s0.4,0.2,0.4,0.4c0,0.2-0.2,0.4-0.4,0.4C61.6,5.6,61.5,5.5,61.5,5.3z M70.2,12.8c0-0.3-0.3-0.6-0.6-0.6
		c-0.2,0-0.4,0.1-0.5,0.3c0,0,0,0,0,0c0-0.3-0.3-0.6-0.6-0.6c-0.2,0-0.4,0.1-0.5,0.3c0,0,0,0,0-0.1c0-0.3-0.3-0.6-0.6-0.6
		c-0.3,0-0.6,0.3-0.6,0.6c0,0.2,0.1,0.4,0.3,0.5c0,0,0,0,0,0c-0.2,0-0.4,0.1-0.6,0.3c0,0,0,0,0,0c0-0.3-0.3-0.6-0.6-0.6
		c-0.3,0-0.6,0.3-0.6,0.6c0,0.2,0.1,0.4,0.3,0.5c0,0,0,0,0,0c-0.2,0-0.4,0.1-0.5,0.3c0,0,0,0,0,0c0-0.2-0.1-0.4-0.3-0.5c0,0,0,0,0,0
		c0.3,0,0.6-0.3,0.6-0.6c0-0.3-0.3-0.6-0.6-0.6c-0.3,0-0.6,0.3-0.6,0.6c0,0.2,0.1,0.4,0.3,0.5c0,0,0,0,0,0c-0.2,0-0.4,0.1-0.5,0.3
		c0,0,0,0,0,0c0-0.3-0.3-0.6-0.6-0.6c-0.3,0-0.5,0.2-0.6,0.4c0,0,0-0.1,0-0.1c0-0.3-0.3-0.6-0.6-0.6c-0.3,0-0.5,0.2-0.6,0.4
		c0,0,0-0.1,0-0.1c0-0.3-0.3-0.6-0.6-0.6c-0.3,0-0.6,0.3-0.6,0.6c0,0.2,0.1,0.4,0.3,0.5c0,0,0,0,0,0c-0.2,0-0.4,0.1-0.5,0.3
		c0,0,0,0,0,0c0-0.3-0.3-0.6-0.6-0.6c-0.2,0-0.5,0.1-0.6,0.3c0,0,0-0.1,0-0.1c0-0.3-0.3-0.6-0.6-0.6c-0.2,0-0.4,0.1-0.5,0.3
		c0,0,0,0,0,0c0-0.3-0.3-0.6-0.6-0.6c-0.2,0-0.5,0.1-0.6,0.3c0,0,0-0.1,0-0.1c0-0.3-0.3-0.6-0.6-0.6c-0.3,0-0.6,0.3-0.6,0.6
		c0,0.2,0.1,0.4,0.3,0.5c0,0,0,0,0,0c-0.2,0-0.5,0.1-0.6,0.3c0,0,0,0,0-0.1c0-0.3-0.3-0.6-0.6-0.6c-0.2,0-0.4,0.1-0.5,0.3
		c0,0,0-0.1,0-0.1c0-0.3-0.3-0.6-0.6-0.6c-0.3,0-0.6,0.3-0.6,0.6c0,0.2,0.1,0.4,0.3,0.5c0,0,0,0,0,0c-0.2,0-0.4,0.1-0.5,0.3
		c0,0,0,0,0,0c0-0.2-0.1-0.4-0.3-0.5c0,0,0,0,0,0c0.3,0,0.6-0.3,0.6-0.6c0-0.3-0.3-0.6-0.6-0.6c-0.3,0-0.6,0.3-0.6,0.6
		c0,0.2,0.1,0.4,0.3,0.5c0,0,0,0,0,0c-0.2,0-0.4,0.1-0.5,0.3c0,0,0,0,0,0c0-0.3-0.3-0.6-0.6-0.6c-0.2,0-0.4,0.1-0.5,0.3c0,0,0,0,0,0
		c0-0.3-0.3-0.6-0.6-0.6c-0.2,0-0.5,0.1-0.6,0.3c0,0,0-0.1,0-0.1c0-0.3-0.3-0.6-0.6-0.6c-0.3,0-0.6,0.3-0.6,0.6
		c0,0.2,0.1,0.4,0.3,0.5c0,0,0,0,0,0c-0.2,0-0.5,0.1-0.6,0.3c0,0,0,0,0-0.1c0-0.3-0.3-0.6-0.6-0.6c-0.3,0-0.6,0.3-0.6,0.6
		c0,0.2,0.1,0.4,0.3,0.5c0,0,0,0,0,0c-0.3,0-0.5,0.2-0.6,0.4c0,0,0-0.1,0-0.1c0-0.2-0.1-0.4-0.3-0.5c0,0,0,0,0,0
		c0.3,0,0.6-0.3,0.6-0.6c0-0.3-0.3-0.6-0.6-0.6c-0.2,0-0.4,0.1-0.5,0.2c0-0.3-0.3-0.6-0.6-0.6c-0.3,0-0.6,0.3-0.6,0.6
		c0,0.2,0.1,0.4,0.3,0.5c0,0,0,0,0,0c-0.3,0-0.6,0.2-0.6,0.5l0.8,0.8c0.1,0,0.2-0.1,0.3-0.2c0,0.2,0.1,0.3,0.2,0.4
		c-0.1,0-0.2,0-0.3,0.1c0,0,1.8,1.8,1.9,1.9l10.6,10.5c0.4-0.1,11.1-11.2,11.1-11.2c0-0.1-0.1-0.2-0.2-0.2c0.2,0,0.3-0.1,0.4-0.2
		c0,0.1,0,0.1,0.1,0.2l1.6-1.6c0-0.1-0.1-0.3-0.3-0.4c0,0,0,0,0,0C69.9,13.4,70.2,13.2,70.2,12.8z M45,13.2c-0.2,0-0.4,0.1-0.5,0.2
		c0-0.2-0.1-0.3-0.3-0.4c0,0,0,0,0,0c0.2,0,0.4-0.1,0.5-0.2C44.7,12.9,44.8,13.1,45,13.2C45,13.2,45,13.2,45,13.2z M45.2,15
		C45.2,15,45.2,15,45.2,15c0-0.2-0.1-0.4-0.3-0.5c0.3,0,0.5-0.2,0.6-0.4c0,0,0,0.1,0,0.1c0,0.2,0.1,0.4,0.2,0.5
		C45.5,14.7,45.4,14.8,45.2,15z M65.7,13.5c0.2,0,0.4-0.1,0.5-0.3c0,0,0,0,0,0.1c0,0.2,0.1,0.4,0.2,0.5c-0.2,0-0.4,0.1-0.5,0.2
		C66,13.8,65.9,13.6,65.7,13.5C65.7,13.5,65.7,13.5,65.7,13.5z M64.7,14C64.7,14,64.7,14.1,64.7,14c0,0.2,0.1,0.4,0.2,0.5
		c-0.2,0-0.4,0.1-0.5,0.2c0-0.2-0.1-0.4-0.3-0.5C64.4,14.3,64.6,14.2,64.7,14z M64.3,15.3c0,0.2,0.1,0.3,0.2,0.4
		c-0.1,0-0.3,0.1-0.4,0.2c0-0.2-0.1-0.3-0.2-0.4C64.1,15.5,64.2,15.4,64.3,15.3z M63,13.9c0.2,0,0.4-0.1,0.5-0.3c0,0,0,0,0,0
		c0,0.2,0.1,0.4,0.2,0.5c-0.2,0-0.4,0.1-0.5,0.2C63.3,14.2,63.2,14,63,13.9C63,13.9,63,13.9,63,13.9z M63.1,14.9
		c0,0.2,0.1,0.3,0.2,0.4c-0.2,0-0.3,0.1-0.4,0.2c0-0.2-0.1-0.3-0.2-0.4C62.9,15.1,63,15,63.1,14.9z M62.8,20.2
		C62.7,20.2,62.7,20.2,62.8,20.2C62.7,20.2,62.7,20.2,62.8,20.2C62.7,20.2,62.7,20.1,62.8,20.2C62.7,20.2,62.7,20.2,62.8,20.2z
		 M62.8,16.1c0,0.1,0.1,0.3,0.2,0.4c-0.1,0-0.2,0.1-0.3,0.2c0-0.1-0.1-0.2-0.2-0.3C62.5,16.2,62.7,16.2,62.8,16.1z M62.4,17.3
		c0,0.1,0.1,0.2,0.1,0.3c-0.1,0-0.2,0.1-0.2,0.1c0-0.1-0.1-0.2-0.2-0.2C62.2,17.4,62.3,17.4,62.4,17.3z M61.9,13.5
		c0.3,0,0.5-0.2,0.6-0.4c0,0,0,0.1,0,0.1c0,0.2,0.1,0.4,0.3,0.5c0,0,0,0,0,0c-0.2,0-0.4,0.1-0.5,0.3c0,0,0,0,0,0
		C62.2,13.9,62.1,13.7,61.9,13.5C61.9,13.5,61.9,13.5,61.9,13.5z M62,14.4C62,14.4,62,14.4,62,14.4c0,0.2,0.1,0.4,0.2,0.5
		c-0.2,0-0.4,0.1-0.5,0.2c0-0.2-0.1-0.4-0.2-0.5C61.8,14.7,61.9,14.6,62,14.4z M61.5,16.3c0-0.1-0.1-0.3-0.2-0.4
		c0.2,0,0.3-0.1,0.4-0.2c0,0.2,0.1,0.3,0.2,0.4C61.7,16.1,61.6,16.2,61.5,16.3z M61.4,17.2c-0.1,0-0.2,0.1-0.3,0.1
		c0-0.1-0.1-0.2-0.2-0.3c0.1,0,0.2-0.1,0.3-0.2C61.3,17,61.3,17.1,61.4,17.2z M61.2,21.1L61.2,21.1c0,0,0-0.1-0.1-0.1c0,0,0,0,0,0
		C61.2,21,61.2,21,61.2,21.1z M59.7,21.8c0,0-0.1,0-0.1,0c0,0,0,0,0-0.1C59.6,21.8,59.6,21.8,59.7,21.8
		C59.7,21.8,59.7,21.8,59.7,21.8z M55.8,21.9C55.8,21.9,55.8,21.9,55.8,21.9c-0.1,0-0.1,0-0.1,0C55.8,21.8,55.8,21.8,55.8,21.9
		C55.8,21.8,55.8,21.8,55.8,21.9z M54.7,21.5c0,0-0.1,0-0.1,0c0,0,0,0,0,0C54.6,21.5,54.7,21.5,54.7,21.5
		C54.7,21.5,54.7,21.5,54.7,21.5z M53.5,21.2C53.5,21.2,53.5,21.2,53.5,21.2c-0.1,0-0.1,0-0.1,0C53.5,21.1,53.5,21.1,53.5,21.2
		C53.5,21.1,53.5,21.1,53.5,21.2z M52.4,20.8C52.4,20.8,52.4,20.8,52.4,20.8c0,0-0.1-0.1-0.1-0.1c0,0,0,0,0,0
		C52.3,20.7,52.4,20.7,52.4,20.8z M51.8,17.9c0.1,0,0.1-0.1,0.2-0.1c0,0.1,0.1,0.2,0.1,0.2c-0.1,0-0.1,0.1-0.2,0.1
		C51.9,18.1,51.9,18,51.8,17.9z M52.6,16.9c-0.1,0-0.2,0.1-0.3,0.1c0-0.1-0.1-0.2-0.2-0.3c0.1,0,0.2-0.1,0.3-0.2
		C52.4,16.7,52.5,16.8,52.6,16.9z M52.6,19.5c0,0,0.1,0,0.1-0.1c0,0,0,0.1,0,0.1c0,0-0.1,0-0.1,0.1C52.7,19.6,52.6,19.5,52.6,19.5z
		 M53,18.3c0.1,0,0.1-0.1,0.2-0.1c0,0.1,0,0.1,0.1,0.2c-0.1,0-0.1,0.1-0.2,0.1C53,18.4,53,18.4,53,18.3z M54.2,18.7
		c0.1,0,0.1-0.1,0.2-0.1c0,0.1,0,0.1,0.1,0.2c-0.1,0-0.1,0-0.2,0.1C54.2,18.8,54.2,18.8,54.2,18.7z M55.1,16.2
		c0,0.1,0.1,0.2,0.2,0.3c-0.1,0-0.2,0.1-0.3,0.1c0-0.1-0.1-0.2-0.2-0.3C54.9,16.4,55,16.3,55.1,16.2z M56.6,15.4
		c0,0.1,0.1,0.3,0.2,0.4c-0.1,0-0.3,0.1-0.4,0.2c0-0.1-0.1-0.2-0.2-0.3C56.4,15.6,56.6,15.5,56.6,15.4z M57.8,15.7
		c0,0.2,0.1,0.3,0.2,0.4c-0.1,0-0.3,0.1-0.4,0.2c0-0.1-0.1-0.3-0.2-0.4C57.6,15.9,57.7,15.8,57.8,15.7z M59.1,19
		c0.1,0,0.1-0.1,0.2-0.1c0,0.1,0,0.1,0.1,0.1c-0.1,0-0.1,0.1-0.2,0.1C59.2,19.1,59.2,19.1,59.1,19z M59.7,17.8
		c0,0.1,0.1,0.2,0.1,0.2c-0.1,0-0.1,0.1-0.2,0.1c0-0.1-0.1-0.1-0.1-0.2C59.6,17.8,59.6,17.8,59.7,17.8z M58.9,20.2
		C58.9,20.2,58.9,20.3,58.9,20.2c-0.1,0-0.1,0-0.1,0C58.8,20.2,58.9,20.2,58.9,20.2C58.9,20.2,58.9,20.2,58.9,20.2z M58.9,16.1
		c0,0.1,0.1,0.3,0.2,0.4c-0.1,0-0.2,0.1-0.3,0.1c0-0.1-0.1-0.2-0.2-0.3C58.7,16.3,58.8,16.2,58.9,16.1z M58.5,17.4
		c0,0.1,0.1,0.2,0.1,0.3c-0.1,0-0.2,0.1-0.2,0.1c0-0.1-0.1-0.2-0.2-0.3C58.3,17.5,58.4,17.4,58.5,17.4z M58.1,18.6
		c0,0.1,0,0.1,0.1,0.2c-0.1,0-0.1,0-0.2,0.1c0-0.1-0.1-0.1-0.1-0.2C58,18.6,58.1,18.6,58.1,18.6z M57.8,19.9
		C57.7,19.9,57.7,19.9,57.8,19.9c-0.1,0-0.1,0-0.2,0C57.7,19.8,57.7,19.8,57.8,19.9C57.7,19.8,57.7,19.8,57.8,19.9z M57.3,21
		C57.3,21,57.3,21,57.3,21C57.3,21,57.3,21,57.3,21L57.3,21z M57.4,16.9c0,0.1,0.1,0.2,0.2,0.3c-0.1,0-0.2,0.1-0.3,0.1
		c0-0.1-0.1-0.2-0.2-0.3C57.2,17.1,57.3,17,57.4,16.9z M57,18.2c0,0.1,0.1,0.2,0.1,0.2c-0.1,0-0.1,0.1-0.2,0.1
		c0-0.1-0.1-0.1-0.1-0.2C56.9,18.2,56.9,18.2,57,18.2z M56.7,19.5c-0.1,0-0.1,0-0.2,0.1c0-0.1,0-0.1-0.1-0.1c0.1,0,0.1-0.1,0.2-0.1
		C56.6,19.4,56.7,19.5,56.7,19.5z M56.3,16.6c0,0.1,0.1,0.2,0.2,0.3c-0.1,0-0.2,0.1-0.3,0.2c0-0.1-0.1-0.2-0.2-0.3
		C56.1,16.7,56.2,16.7,56.3,16.6z M55.9,17.8c0,0.1,0.1,0.1,0.1,0.2c-0.1,0-0.1,0.1-0.2,0.1c0-0.1-0.1-0.1-0.1-0.2
		C55.7,17.9,55.8,17.9,55.9,17.8z M55.5,19c0,0,0,0.1,0.1,0.1c-0.1,0-0.1,0.1-0.2,0.1c0,0,0-0.1-0.1-0.1
		C55.4,19.1,55.4,19.1,55.5,19z M55.1,20.3C55.1,20.3,55,20.3,55.1,20.3C55,20.3,55,20.3,55.1,20.3C55,20.2,55.1,20.2,55.1,20.3
		C55.1,20.2,55.1,20.2,55.1,20.3z M54.7,17.4c0,0.1,0.1,0.2,0.1,0.2c-0.1,0-0.1,0.1-0.2,0.1c0-0.1-0.1-0.1-0.1-0.2
		C54.6,17.5,54.6,17.5,54.7,17.4z M53.9,19.9C53.9,19.9,53.9,19.9,53.9,19.9C53.9,19.9,53.9,19.9,53.9,19.9
		C53.9,19.9,53.9,19.9,53.9,19.9C53.9,19.9,53.9,19.9,53.9,19.9z M53.9,15.8c0,0.2,0.1,0.3,0.2,0.4c-0.1,0-0.2,0.1-0.3,0.2
		c0-0.1-0.1-0.3-0.2-0.4C53.7,15.9,53.8,15.9,53.9,15.8z M53.5,17c0,0.1,0.1,0.2,0.1,0.3c-0.1,0-0.2,0.1-0.2,0.1
		c0-0.1-0.1-0.2-0.2-0.3C53.4,17.1,53.5,17.1,53.5,17z M56.2,20.6C56.2,20.6,56.2,20.6,56.2,20.6C56.2,20.6,56.2,20.6,56.2,20.6
		C56.2,20.7,56.2,20.7,56.2,20.6C56.2,20.6,56.2,20.6,56.2,20.6z M58.4,21.5c0,0,0.1,0,0.1-0.1c0,0,0,0,0,0
		C58.5,21.5,58.4,21.5,58.4,21.5C58.4,21.5,58.4,21.5,58.4,21.5z M60,20.6C60,20.6,60,20.5,60,20.6C60.1,20.6,60.1,20.6,60,20.6
		C60.1,20.6,60,20.6,60,20.6C60,20.6,60,20.6,60,20.6z M60.3,19.4c0.1,0,0.1-0.1,0.2-0.1c0,0.1,0,0.1,0.1,0.2c-0.1,0-0.1,0-0.2,0.1
		C60.3,19.5,60.3,19.5,60.3,19.4z M60.8,18.1c0,0.1,0.1,0.2,0.1,0.2c-0.1,0-0.1,0.1-0.2,0.1c0-0.1-0.1-0.1-0.1-0.2
		C60.7,18.2,60.8,18.2,60.8,18.1z M60.7,13.2c0.3,0,0.5-0.2,0.6-0.4c0,0,0,0.1,0,0.1c0,0.2,0.1,0.4,0.3,0.5c0,0,0,0,0,0
		c-0.2,0-0.4,0.1-0.5,0.3c0,0,0,0,0,0C61,13.5,60.9,13.3,60.7,13.2C60.7,13.2,60.7,13.2,60.7,13.2z M60.9,14.1L60.9,14.1
		c0,0.2,0.1,0.4,0.2,0.5c-0.2,0-0.4,0.1-0.5,0.2c0-0.2-0.1-0.3-0.2-0.5C60.6,14.3,60.8,14.2,60.9,14.1z M60.5,15.3
		c0,0.2,0.1,0.3,0.2,0.4c-0.1,0-0.3,0.1-0.4,0.2c0-0.1-0.1-0.3-0.2-0.4C60.2,15.5,60.4,15.4,60.5,15.3z M60.1,16.5
		c0,0.1,0.1,0.2,0.2,0.3c-0.1,0-0.2,0.1-0.3,0.2c0-0.1-0.1-0.2-0.2-0.3C59.9,16.7,60,16.6,60.1,16.5z M59.2,14
		c0.2,0,0.4-0.1,0.5-0.3c0,0,0,0,0,0c0,0.2,0.1,0.4,0.2,0.5c-0.2,0-0.4,0.1-0.5,0.2C59.5,14.2,59.4,14.1,59.2,14
		C59.2,14,59.2,14,59.2,14z M59.3,14.9c0,0.2,0.1,0.3,0.2,0.4c-0.2,0-0.3,0.1-0.4,0.2c0-0.2-0.1-0.3-0.2-0.4
		C59,15.1,59.2,15,59.3,14.9z M58.1,13.6c0.2,0,0.5-0.1,0.6-0.3c0,0,0,0.1,0,0.1c0,0.2,0.1,0.4,0.3,0.5c0,0,0,0,0,0
		c-0.2,0-0.4,0.1-0.5,0.3c0,0,0,0,0,0C58.3,13.9,58.2,13.7,58.1,13.6C58.1,13.6,58.1,13.6,58.1,13.6z M58.2,14.5
		C58.2,14.5,58.2,14.5,58.2,14.5c0,0.2,0.1,0.4,0.2,0.5c-0.2,0-0.4,0.1-0.5,0.2c0-0.2-0.1-0.4-0.2-0.5
		C57.9,14.7,58.1,14.6,58.2,14.5z M56.9,13.2c0.2,0,0.4-0.1,0.5-0.3c0,0,0,0,0,0c0,0.2,0.1,0.4,0.3,0.5c0,0,0,0,0,0
		c-0.2,0-0.4,0.1-0.5,0.3C57.2,13.5,57.1,13.4,56.9,13.2C56.9,13.2,56.9,13.2,56.9,13.2z M57.1,14.1c0,0.2,0.1,0.3,0.2,0.5
		c-0.2,0-0.4,0.1-0.5,0.2c0-0.2-0.1-0.3-0.2-0.4C56.8,14.4,56.9,14.3,57.1,14.1z M55.8,12.9c0.2,0,0.5-0.1,0.6-0.3c0,0,0,0.1,0,0.1
		c0,0.2,0.1,0.4,0.3,0.5c0,0,0,0,0,0c-0.2,0-0.4,0.1-0.5,0.3c0,0,0,0,0,0C56,13.2,55.9,13,55.8,12.9C55.7,12.9,55.8,12.9,55.8,12.9z
		 M55.9,13.8C55.9,13.8,55.9,13.8,55.9,13.8c0,0.2,0.1,0.4,0.2,0.5c-0.2,0-0.4,0.1-0.5,0.2c0-0.2-0.1-0.4-0.2-0.5
		C55.6,14,55.8,13.9,55.9,13.8z M55.5,15c0,0.2,0.1,0.3,0.2,0.4c-0.1,0-0.3,0.1-0.4,0.2c0-0.1-0.1-0.3-0.2-0.4
		C55.3,15.2,55.4,15.1,55.5,15z M54.2,13.6c0.2,0,0.4-0.1,0.5-0.3c0,0,0,0,0,0.1c0,0.2,0.1,0.4,0.2,0.5c-0.2,0-0.4,0.1-0.5,0.2
		C54.5,13.9,54.4,13.7,54.2,13.6C54.2,13.6,54.2,13.6,54.2,13.6z M54.3,14.6c0,0.2,0.1,0.3,0.2,0.4c-0.2,0-0.3,0.1-0.4,0.2
		c0-0.2-0.1-0.3-0.2-0.4C54.1,14.8,54.2,14.7,54.3,14.6z M53.1,13.2c0.2,0,0.4-0.1,0.5-0.3c0,0,0,0.1,0,0.1c0,0.2,0.1,0.4,0.3,0.5
		c0,0,0,0,0,0c-0.2,0-0.4,0.1-0.5,0.2C53.3,13.5,53.2,13.4,53.1,13.2C53.1,13.2,53.1,13.2,53.1,13.2z M53.2,14.2
		c0,0.2,0.1,0.4,0.2,0.5c-0.2,0-0.3,0.1-0.5,0.2c0-0.2-0.1-0.3-0.2-0.5C52.9,14.4,53.1,14.3,53.2,14.2z M52.8,15.4
		c0,0.2,0.1,0.3,0.2,0.4c-0.1,0-0.3,0.1-0.4,0.2c0-0.1-0.1-0.3-0.2-0.4C52.6,15.5,52.7,15.5,52.8,15.4z M52.1,13.7
		C52.1,13.7,52.1,13.8,52.1,13.7c0,0.2,0.1,0.4,0.2,0.5c-0.2,0-0.4,0.1-0.5,0.2c0-0.2-0.1-0.4-0.2-0.5C51.8,14,52,13.9,52.1,13.7z
		 M51.7,15c0,0.2,0.1,0.3,0.2,0.4c-0.1,0-0.3,0.1-0.4,0.2c0-0.2-0.1-0.3-0.2-0.4C51.4,15.2,51.6,15.1,51.7,15z M51.3,20.3
		C51.2,20.3,51.2,20.3,51.3,20.3C51.2,20.3,51.2,20.3,51.3,20.3C51.2,20.2,51.2,20.2,51.3,20.3C51.2,20.3,51.2,20.3,51.3,20.3z
		 M50.8,17.8c0-0.1-0.1-0.2-0.1-0.2c0.1,0,0.2-0.1,0.2-0.1c0,0.1,0.1,0.2,0.1,0.2C50.9,17.7,50.8,17.7,50.8,17.8z M51.3,16.2
		c0,0.1,0.1,0.2,0.2,0.3c-0.1,0-0.2,0.1-0.3,0.2c0-0.1-0.1-0.2-0.2-0.3C51.1,16.4,51.2,16.3,51.3,16.2z M50.4,13.6
		c0.2,0,0.4-0.1,0.5-0.3c0,0,0,0,0,0.1c0,0.2,0.1,0.4,0.2,0.5c-0.2,0-0.4,0.1-0.5,0.2C50.6,13.9,50.5,13.7,50.4,13.6
		C50.4,13.6,50.4,13.6,50.4,13.6z M50.5,14.6c0,0.2,0.1,0.3,0.2,0.4c-0.2,0-0.3,0.1-0.4,0.2c0-0.2-0.1-0.3-0.2-0.4
		C50.2,14.8,50.4,14.7,50.5,14.6z M49.9,16.3c0-0.1-0.1-0.3-0.2-0.3c0.1,0,0.3-0.1,0.4-0.2c0,0.1,0.1,0.3,0.2,0.4
		C50.1,16.2,50,16.2,49.9,16.3z M49.2,13.3c0.2,0,0.4-0.1,0.5-0.3c0,0,0,0,0,0c0,0.2,0.1,0.4,0.3,0.5c0,0,0,0,0,0
		c-0.2,0-0.4,0.1-0.5,0.3C49.5,13.6,49.4,13.4,49.2,13.3C49.2,13.3,49.2,13.3,49.2,13.3z M49.4,14.2c0,0.2,0.1,0.3,0.2,0.5
		c-0.2,0-0.4,0.1-0.5,0.2c0-0.2-0.1-0.3-0.2-0.4C49.1,14.5,49.3,14.4,49.4,14.2z M48.1,12.9c0.2,0,0.5-0.1,0.6-0.3c0,0,0,0.1,0,0.1
		c0,0.2,0.1,0.4,0.3,0.5c0,0,0,0,0,0c-0.2,0-0.4,0.1-0.5,0.3c0,0,0,0,0,0C48.3,13.2,48.2,13,48.1,12.9
		C48.1,12.9,48.1,12.9,48.1,12.9z M48.2,13.8C48.2,13.8,48.2,13.8,48.2,13.8c0,0.2,0.1,0.4,0.2,0.5c-0.2,0-0.4,0.1-0.5,0.2
		c0-0.2-0.1-0.4-0.2-0.5C47.9,14.1,48.1,14,48.2,13.8z M47.8,15c0,0.2,0.1,0.3,0.2,0.4c-0.1,0-0.3,0.1-0.4,0.2
		c0-0.1-0.1-0.3-0.2-0.4C47.6,15.2,47.7,15.1,47.8,15z M46.5,13.7c0.2,0,0.4-0.1,0.5-0.3c0,0,0,0,0,0.1c0,0.2,0.1,0.4,0.2,0.5
		c-0.2,0-0.4,0.1-0.5,0.2C46.8,14,46.7,13.8,46.5,13.7C46.5,13.7,46.5,13.7,46.5,13.7z M46.4,15.3c0-0.2-0.1-0.3-0.2-0.4
		c0.2,0,0.4-0.1,0.5-0.2c0,0.2,0.1,0.3,0.2,0.4C46.7,15.1,46.5,15.2,46.4,15.3z M47.3,16.7c0-0.1-0.1-0.2-0.2-0.3
		c0.1,0,0.2-0.1,0.3-0.2c0,0.1,0.1,0.2,0.2,0.3C47.5,16.6,47.4,16.7,47.3,16.7z M48.1,18.2C48,18.1,48,18,48,18
		c0.1,0,0.1-0.1,0.2-0.1c0,0.1,0.1,0.1,0.1,0.2C48.2,18.1,48.1,18.1,48.1,18.2z M48.4,17.1c0-0.1-0.1-0.2-0.2-0.3
		c0.1,0,0.2-0.1,0.3-0.2c0,0.1,0.1,0.2,0.2,0.3C48.6,17,48.5,17,48.4,17.1z M48.8,16c0-0.1-0.1-0.2-0.2-0.3c0.2,0,0.3-0.1,0.4-0.2
		c0,0.1,0.1,0.3,0.2,0.4C49,15.8,48.9,15.9,48.8,16z M49.2,18.5c0-0.1-0.1-0.1-0.1-0.2c0.1,0,0.1-0.1,0.2-0.1c0,0.1,0,0.1,0.1,0.2
		C49.3,18.4,49.3,18.5,49.2,18.5z M49.6,17.4c0-0.1-0.1-0.2-0.2-0.3c0.1,0,0.2-0.1,0.3-0.1c0,0.1,0.1,0.2,0.1,0.3
		C49.7,17.3,49.6,17.4,49.6,17.4z M50,19.9C50,19.9,50.1,19.8,50,19.9c0.1,0,0.1,0,0.1,0C50.1,19.9,50.1,19.9,50,19.9
		C50,19.9,50,19.9,50,19.9z M50.4,18.9c0-0.1,0-0.1-0.1-0.2c0.1,0,0.1-0.1,0.2-0.1c0,0.1,0,0.1,0.1,0.2
		C50.5,18.8,50.4,18.8,50.4,18.9z M51.6,19.2c0-0.1,0-0.1-0.1-0.1c0.1,0,0.1,0,0.2-0.1c0,0.1,0,0.1,0.1,0.2
		C51.7,19.2,51.6,19.2,51.6,19.2z M61.5,19.9C61.5,19.9,61.5,19.8,61.5,19.9c0-0.1,0-0.1,0.1-0.1c0,0,0,0.1,0,0.1
		C61.6,19.8,61.5,19.9,61.5,19.9z M61.9,18.8c0-0.1-0.1-0.1-0.1-0.2c0.1,0,0.1-0.1,0.2-0.1c0,0.1,0,0.1,0.1,0.2
		C62,18.7,61.9,18.7,61.9,18.8z M63,19.2c0-0.1,0-0.1-0.1-0.2c0.1,0,0.1-0.1,0.2-0.1c0,0.1,0,0.1,0.1,0.2
		C63.2,19.1,63.1,19.1,63,19.2z M63.4,18.1c0-0.1-0.1-0.2-0.1-0.2c0.1,0,0.1-0.1,0.2-0.1c0,0.1,0.1,0.2,0.1,0.2
		C63.5,18,63.5,18,63.4,18.1z M63.8,17c0-0.1-0.1-0.2-0.2-0.3c0.1,0,0.2-0.1,0.3-0.2c0,0.1,0.1,0.3,0.2,0.3
		C64,16.9,63.9,16.9,63.8,17z M64.6,18.4c0-0.1-0.1-0.1-0.1-0.2c0.1,0,0.1-0.1,0.2-0.1c0,0.1,0,0.1,0.1,0.2
		C64.7,18.3,64.6,18.4,64.6,18.4z M64.9,17.3c0-0.1-0.1-0.2-0.2-0.3c0.1,0,0.2-0.1,0.3-0.1c0,0.1,0.1,0.2,0.1,0.3
		C65.1,17.2,65,17.3,64.9,17.3z M65.3,16.2c0-0.1-0.1-0.3-0.2-0.3c0.1,0,0.3-0.1,0.4-0.2c0,0.1,0.1,0.3,0.2,0.4
		C65.5,16.1,65.4,16.1,65.3,16.2z M65.6,15.1c0-0.2-0.1-0.3-0.2-0.4c0.2,0,0.3-0.1,0.5-0.2c0,0.2,0.1,0.3,0.2,0.4
		C65.9,14.9,65.7,15,65.6,15.1z M66.4,16.6c0-0.1-0.1-0.2-0.2-0.3c0.1,0,0.2-0.1,0.3-0.2c0,0.1,0.1,0.2,0.2,0.3
		C66.6,16.4,66.5,16.5,66.4,16.6z M66.8,15.4c0-0.1-0.1-0.3-0.2-0.3c0.1,0,0.3-0.1,0.4-0.2c0,0.1,0.1,0.3,0.2,0.4
		C67,15.3,66.9,15.4,66.8,15.4z M67.2,14.4c0-0.2-0.1-0.3-0.2-0.4c0.2,0,0.4-0.1,0.5-0.3c0,0.2,0.1,0.4,0.2,0.5
		C67.4,14.1,67.3,14.2,67.2,14.4z M68,13c-0.2,0-0.4,0.1-0.5,0.3c0-0.2-0.1-0.4-0.3-0.5c0,0,0,0,0,0c0.2,0,0.4-0.1,0.5-0.3
		c0,0,0,0,0,0.1C67.8,12.7,67.9,12.9,68,13C68,13,68,13,68,13z M68.3,14.7c0-0.2-0.1-0.3-0.2-0.4c0.2,0,0.4-0.1,0.5-0.3
		c0,0.2,0.1,0.3,0.2,0.4C68.6,14.5,68.4,14.6,68.3,14.7z M69.2,13.3c-0.2,0-0.4,0.1-0.5,0.3c0-0.2-0.1-0.4-0.3-0.5c0,0,0,0,0,0
		c0.2,0,0.4-0.1,0.5-0.3c0,0,0,0,0,0C68.9,13,69,13.2,69.2,13.3C69.2,13.3,69.2,13.3,69.2,13.3z M71.7,11.9l-1.5,1.5
		c0-0.1,0-0.2,0-0.2c0-0.4,0.3-0.6,0.6-0.6c0,0,0,0,0,0c-0.2-0.1-0.3-0.3-0.3-0.5c0-0.3,0.3-0.6,0.6-0.6
		C71.4,11.5,71.6,11.7,71.7,11.9z M72.1,11.6c0-0.1,0-0.2,0-0.2c0-0.3,0.3-0.6,0.6-0.6c0.1,0,0.2,0,0.2,0L72.1,11.6z M72.4,10.2
		c0-0.3,0.3-0.6,0.6-0.6c0.3,0,0.5,0.2,0.6,0.5l-0.6,0.6C72.6,10.7,72.4,10.5,72.4,10.2z M74.1,9.6C74,9.5,74,9.4,74,9.3
		c0-0.3,0.2-0.5,0.5-0.5c0.1,0,0.2,0,0.2,0.1L74.1,9.6z M74.4,8.2c0-0.3,0.2-0.5,0.5-0.5c0.3,0,0.5,0.2,0.5,0.5c0,0,0,0,0,0L75,8.7
		c0,0,0,0,0,0C74.6,8.7,74.4,8.5,74.4,8.2z M76,7.6c0-0.1,0-0.1,0-0.2C76,7.2,76.2,7,76.4,7c0.1,0,0.1,0,0.2,0L76,7.6z M77.9,5.7
		c0-0.1-0.1-0.1-0.1-0.2c0-0.2,0.2-0.4,0.4-0.4c0.1,0,0.2,0,0.2,0.1L77.9,5.7z M79.9,3.7c0-0.1-0.1-0.1-0.1-0.2
		c0-0.2,0.1-0.3,0.3-0.3c0.1,0,0.1,0,0.2,0.1L79.9,3.7z M81.9,1.5c0-0.1,0.1-0.2,0.2-0.2c0.1,0,0.1,0,0.2,0.1L82,1.7
		C81.9,1.6,81.9,1.6,81.9,1.5z M82.9,0.7c0,0.1-0.1,0.2-0.2,0.2c-0.1,0-0.2-0.1-0.2-0.2c0-0.1,0.1-0.2,0.2-0.2
		C82.8,0.6,82.9,0.6,82.9,0.7z M75.1,0.6c0,0.1-0.1,0.2-0.2,0.2c-0.1,0-0.2-0.1-0.2-0.2H75.1z M71.2,0.6C71.2,0.6,71.2,0.6,71.2,0.6
		c0,0.1-0.1,0.2-0.2,0.2c-0.1,0-0.2-0.1-0.2-0.2c0,0,0,0,0,0H71.2z"/>
	<g>
		<path fill="#BB2025" d="M115.4,59.2V49c0-2.8,0.5-4.9,1.5-6.2c1.1-1.5,3.1-2.2,5.8-2.2c1.2,0,3.1,0,5.6,0c2.5,0,4.3,0,5.6,0
			c3.4,0,5.8,0.4,7.3,1.3c2,1.2,2.9,3.3,2.9,6.5v10.8L115.4,59.2L115.4,59.2z M139.4,50.9c0-2.3-0.8-3.4-2.5-3.4h-14.5
			c-1.1,0-1.7,0.6-2,1.8c-0.1,0.4-0.2,1.4-0.3,3.1h19.3c0-0.2,0-0.4,0-0.7C139.4,51.3,139.4,51.1,139.4,50.9z"/>
		<path fill="#BB2025" d="M132.5,33L132.5,33c1.1,0,2.6,0,4.7,0c0.8,0,1.4-0.1,1.8-0.4c0.4-0.3,0.7-0.9,0.7-1.7c0-1.1-0.7-1.7-2-1.7
			h-22.2v-6.9h22c4.8,0,7.2,2.9,7.2,8.8c0,3.6-0.9,6-2.6,7.3c-1.4,1-4,1.5-7.7,1.5h-1.8L132.5,33L132.5,33z"/>
	</g>
</g>
</svg>
