<?xml version="1.0" encoding="UTF-8" standalone="no"?>
<svg
   xmlns:dc="http://purl.org/dc/elements/1.1/"
   xmlns:cc="http://creativecommons.org/ns#"
   xmlns:rdf="http://www.w3.org/1999/02/22-rdf-syntax-ns#"
   xmlns:svg="http://www.w3.org/2000/svg"
   xmlns="http://www.w3.org/2000/svg"
   xmlns:sodipodi="http://sodipodi.sourceforge.net/DTD/sodipodi-0.dtd"
   xmlns:inkscape="http://www.inkscape.org/namespaces/inkscape"
   version="1.1"
   id="Layer_1"
   x="0px"
   y="0px"
   viewBox="0 0 146 60"
   enable-background="new 0 0 146 60"
   xml:space="preserve"
   sodipodi:docname="logo.svg"
   inkscape:version="1.0.1 (3bc2e813f5, 2020-09-07)"><metadata
   id="metadata19"><rdf:RDF><cc:Work
       rdf:about=""><dc:format>image/svg+xml</dc:format><dc:type
         rdf:resource="http://purl.org/dc/dcmitype/StillImage" /></cc:Work></rdf:RDF></metadata><defs
   id="defs17" /><sodipodi:namedview
   pagecolor="#ffffff"
   bordercolor="#666666"
   borderopacity="1"
   objecttolerance="10"
   gridtolerance="10"
   guidetolerance="10"
   inkscape:pageopacity="0"
   inkscape:pageshadow="2"
   inkscape:window-width="1920"
   inkscape:window-height="1010"
   id="namedview15"
   showgrid="false"
   inkscape:zoom="9.0479452"
   inkscape:cx="73"
   inkscape:cy="30"
   inkscape:window-x="1920"
   inkscape:window-y="0"
   inkscape:window-maximized="1"
   inkscape:current-layer="layer1" />

<g
   inkscape:groupmode="layer"
   id="layer1"
   inkscape:label="Background"
   style="display:inline"><rect
     style="opacity:0.994;fill:#0c2a3b;fill-opacity:1;stroke-width:2.57414;stroke-opacity:0.5"
     id="rect844"
     width="146"
     height="60"
     x="0"
     y="0" /></g><g
   inkscape:groupmode="layer"
   id="layer2"
   inkscape:label="Foreground"
   style="display:inline"><g
     id="g12">
	<path
   fill="#ffffff"
   d="m 1.4,27.7 c 0,-3.2 2,-5.7 5.8,-5.7 3.8,0 5.8,2.6 5.8,5.7 v 4.2 H 8.7 v -5.3 h -3 v 28.2 h 3 V 49.5 H 13 v 4.2 c 0,3.2 -2.1,5.7 -5.8,5.7 -3.8,0 -5.8,-2.6 -5.8,-5.7 0,0.1 0,-26 0,-26 z m 15,-5.4 h 4.3 v 16.2 h 3 V 22.3 H 28 V 59.2 H 23.7 V 43 h -3 V 59.2 H 16.4 Z M 33.7,59.2 H 38 V 42.9 h 3 v 16.3 h 4.3 V 27.7 c 0,-3.2 -2.1,-5.7 -5.8,-5.7 -3.8,0 -5.8,2.6 -5.8,5.7 z M 38,26.6 h 3 v 12 h -3 z m 30,-4.3 h 4.1 l 1.7,24.9 H 74 l 1.4,-24.9 h 4.2 L 76,59.2 h -4.6 z m 27.1,4.3 h -7.3 v 11.9 h 5.8 v 4.3 h -5.8 v 11.9 h 7.3 V 59 h -8.6 c -1.7,0 -3,-1.7 -3,-3.8 V 26.1 c 0,-2.1 1.3,-3.8 3,-3.8 h 8.6 z m 5.9,0.1 h -3.1 v -4.4 h 10.3 v 4.4 h -3 V 59.2 H 101 Z m -42.7,2.6 v 25.5 h -3 V 29.6 L 51,25.3 v 28.5 c 0,3.2 2,5.7 5.8,5.7 3.8,0 5.8,-2.6 5.8,-5.7 V 25 Z"
   id="path2" />
	<path
   fill="#ffffff"
   d="m 63.5,0.7 c 0,0.1 -0.1,0.2 -0.2,0.2 -0.1,0 -0.2,-0.1 -0.2,-0.2 0,-0.1 0.1,-0.2 0.2,-0.2 0.1,0 0.2,0.1 0.2,0.2 z m 2.1,0.5 c -0.1,0 -0.2,0.1 -0.2,0.2 0,0.1 0.1,0.2 0.2,0.2 0.1,0 0.2,-0.1 0.2,-0.2 0,-0.1 0,-0.2 -0.2,-0.2 z m -0.1,1.3 c 0,0.1 -0.1,0.3 -0.3,0.3 -0.1,0 -0.3,-0.1 -0.3,-0.3 0,-0.1 0.1,-0.3 0.3,-0.3 0.2,0.1 0.3,0.2 0.3,0.3 z M 65.2,3.7 C 65.2,3.9 65.1,4 64.9,4 64.7,4 64.6,3.9 64.6,3.7 c 0,-0.2 0.1,-0.3 0.3,-0.3 0.2,0 0.3,0.1 0.3,0.3 z m -0.3,1.1 c 0,0.2 -0.2,0.4 -0.4,0.4 -0.2,0 -0.4,-0.2 -0.4,-0.4 0,-0.2 0.2,-0.4 0.4,-0.4 0.2,0 0.4,0.2 0.4,0.4 z M 64.6,6 c 0,0.2 -0.2,0.4 -0.4,0.4 -0.2,0 -0.4,-0.2 -0.4,-0.4 0,-0.2 0.2,-0.4 0.4,-0.4 0.2,0 0.4,0.2 0.4,0.4 z m -0.3,1.2 c 0,0.3 -0.2,0.5 -0.5,0.5 -0.3,0 -0.5,-0.2 -0.5,-0.5 0,-0.3 0.2,-0.5 0.5,-0.5 0.2,0 0.5,0.2 0.5,0.5 z m -0.4,1.1 c 0,0.3 -0.2,0.5 -0.5,0.5 -0.3,0 -0.5,-0.2 -0.5,-0.5 0,-0.3 0.2,-0.5 0.5,-0.5 0.3,0 0.5,0.2 0.5,0.5 z m -0.3,1.2 c 0,0.3 -0.2,0.5 -0.5,0.5 -0.3,0 -0.5,-0.2 -0.5,-0.5 0,-0.3 0.2,-0.5 0.5,-0.5 0.2,-0.1 0.5,0.2 0.5,0.5 z m -0.4,1.1 c 0,0.3 -0.3,0.6 -0.6,0.6 -0.3,0 -0.6,-0.3 -0.6,-0.6 0,-0.3 0.3,-0.6 0.6,-0.6 0.3,0.1 0.6,0.3 0.6,0.6 z m -0.3,1.2 c 0,0.3 -0.3,0.6 -0.6,0.6 -0.3,0 -0.6,-0.3 -0.6,-0.6 0,-0.3 0.3,-0.6 0.6,-0.6 0.3,0 0.6,0.3 0.6,0.6 z M 66.8,1.6 c -0.1,0 -0.2,0.1 -0.2,0.2 0,0.1 0.1,0.2 0.2,0.2 C 66.9,2 67,1.9 67,1.8 67,1.7 66.9,1.6 66.8,1.6 Z m -0.1,1.3 c 0,0.1 -0.1,0.3 -0.3,0.3 -0.1,0 -0.3,-0.1 -0.3,-0.3 0,-0.1 0.1,-0.3 0.3,-0.3 0.2,0 0.3,0.2 0.3,0.3 z m -0.3,1.2 c 0,0.2 -0.1,0.3 -0.3,0.3 -0.2,0 -0.3,-0.1 -0.3,-0.3 0,-0.2 0.1,-0.3 0.3,-0.3 0.1,-0.1 0.3,0.1 0.3,0.3 z m -0.3,1.1 c 0,0.2 -0.2,0.4 -0.4,0.4 -0.2,0 -0.4,-0.2 -0.4,-0.4 0,-0.2 0.2,-0.4 0.4,-0.4 0.2,0 0.4,0.2 0.4,0.4 z m -0.4,1.2 c 0,0.2 -0.2,0.4 -0.4,0.4 -0.2,0 -0.4,-0.2 -0.4,-0.4 0,-0.2 0.2,-0.4 0.4,-0.4 0.2,0 0.4,0.2 0.4,0.4 z M 65.4,7.5 C 65.4,7.8 65.2,8 64.9,8 64.6,8 64.4,7.8 64.4,7.5 64.4,7.2 64.6,7 64.9,7 c 0.3,0.1 0.5,0.3 0.5,0.5 z M 65.1,8.7 C 65.1,9 64.9,9.2 64.6,9.2 64.3,9.2 64,9 64,8.7 c 0,-0.3 0.2,-0.5 0.5,-0.5 0.3,0 0.6,0.2 0.6,0.5 z m -0.4,1.1 c 0,0.3 -0.2,0.5 -0.5,0.5 -0.3,0 -0.5,-0.2 -0.5,-0.5 0,-0.3 0.2,-0.5 0.5,-0.5 0.3,0 0.5,0.2 0.5,0.5 z M 64.4,11 c 0,0.3 -0.3,0.6 -0.6,0.6 -0.3,0 -0.6,-0.3 -0.6,-0.6 0,-0.3 0.3,-0.6 0.6,-0.6 0.3,0 0.6,0.3 0.6,0.6 z M 64,12.2 c 0,0.3 -0.3,0.6 -0.6,0.6 -0.3,0 -0.6,-0.3 -0.6,-0.6 0,-0.3 0.3,-0.6 0.6,-0.6 0.3,0 0.6,0.2 0.6,0.6 z M 68.3,0.8 c -0.1,0 -0.2,0.1 -0.2,0.2 0,0.1 0.1,0.2 0.2,0.2 0.1,0 0.2,-0.1 0.2,-0.2 0,-0.1 -0.1,-0.2 -0.2,-0.2 z m -0.1,1.3 c 0,0.1 -0.1,0.3 -0.3,0.3 -0.2,0 -0.3,-0.1 -0.3,-0.3 0,-0.1 0.1,-0.3 0.3,-0.3 0.2,0 0.3,0.2 0.3,0.3 z m -0.3,1.2 c 0,0.2 -0.1,0.3 -0.3,0.3 -0.2,0 -0.3,-0.1 -0.3,-0.3 0,-0.2 0.1,-0.3 0.3,-0.3 0.1,0 0.3,0.1 0.3,0.3 z m -0.3,1.1 c 0,0.2 -0.2,0.4 -0.4,0.4 C 67,4.8 66.8,4.6 66.8,4.4 66.8,4.2 67,4 67.2,4 c 0.2,0.1 0.4,0.2 0.4,0.4 z M 67.2,5.6 C 67.2,5.8 67,6 66.8,6 66.6,6 66.4,5.8 66.4,5.6 c 0,-0.2 0.2,-0.4 0.4,-0.4 0.3,0 0.4,0.2 0.4,0.4 z m -0.3,1.2 c 0,0.3 -0.2,0.5 -0.5,0.5 C 66.2,7.2 66,7 66,6.8 c 0,-0.3 0.2,-0.5 0.5,-0.5 0.2,0 0.4,0.2 0.4,0.5 z m -0.3,1.1 c 0,0.3 -0.2,0.5 -0.5,0.5 -0.3,0 -0.5,-0.2 -0.5,-0.5 0,-0.3 0.2,-0.5 0.5,-0.5 0.2,0 0.5,0.2 0.5,0.5 z m -0.4,1.2 c 0,0.3 -0.2,0.5 -0.5,0.5 -0.3,0 -0.5,-0.2 -0.5,-0.5 0,-0.3 0.2,-0.5 0.5,-0.5 0.3,-0.1 0.5,0.2 0.5,0.5 z m -0.3,1.1 c 0,0.3 -0.3,0.6 -0.6,0.6 -0.3,0 -0.6,-0.3 -0.6,-0.6 0,-0.3 0.3,-0.6 0.6,-0.6 0.3,0 0.6,0.3 0.6,0.6 z m -0.4,1.2 c 0,0.3 -0.3,0.6 -0.6,0.6 -0.3,0 -0.6,-0.3 -0.6,-0.6 0,-0.3 0.3,-0.6 0.6,-0.6 0.4,0 0.6,0.3 0.6,0.6 z m 4,-10.2 c -0.1,0 -0.2,0.1 -0.2,0.2 0,0.1 0.1,0.2 0.2,0.2 0.1,0 0.2,-0.1 0.2,-0.2 0,-0.1 -0.1,-0.2 -0.2,-0.2 z m -0.1,1.3 c 0,0.1 -0.1,0.3 -0.3,0.3 -0.1,0 -0.3,-0.1 -0.3,-0.3 0,-0.2 0.1,-0.3 0.3,-0.3 0.2,0.1 0.3,0.2 0.3,0.3 z M 69.1,3.7 C 69.1,3.9 69,4 68.8,4 68.6,4 68.5,3.9 68.5,3.7 c 0,-0.2 0.1,-0.3 0.3,-0.3 0.1,0 0.3,0.1 0.3,0.3 z M 68.8,4.8 C 68.8,5 68.6,5.2 68.4,5.2 68.2,5.2 68,5.1 68,4.8 c 0,-0.2 0.2,-0.4 0.4,-0.4 0.2,0.1 0.4,0.2 0.4,0.4 z M 68.4,6 c 0,0.2 -0.2,0.4 -0.4,0.4 -0.2,0 -0.4,-0.2 -0.4,-0.4 0,-0.2 0.2,-0.4 0.4,-0.4 0.2,0 0.4,0.2 0.4,0.4 z m -0.3,1.2 c 0,0.3 -0.2,0.5 -0.5,0.5 -0.3,0 -0.5,-0.2 -0.5,-0.5 0,-0.3 0.2,-0.5 0.5,-0.5 0.3,0 0.5,0.2 0.5,0.5 z m -0.4,1.1 c 0,0.3 -0.2,0.5 -0.5,0.5 -0.3,0 -0.5,-0.2 -0.5,-0.5 0,-0.3 0.2,-0.5 0.5,-0.5 0.3,0 0.5,0.2 0.5,0.5 z M 67.4,9.5 C 67.4,9.8 67.2,10 66.9,10 66.6,10 66.4,9.8 66.4,9.5 66.4,9.2 66.6,9 66.9,9 67.1,8.9 67.4,9.2 67.4,9.5 Z M 67,10.6 c 0,0.3 -0.3,0.6 -0.6,0.6 -0.3,0 -0.6,-0.3 -0.6,-0.6 0,-0.3 0.3,-0.6 0.6,-0.6 0.4,0.1 0.6,0.3 0.6,0.6 z m -0.3,1.2 c 0,0.3 -0.3,0.6 -0.6,0.6 -0.3,0 -0.6,-0.3 -0.6,-0.6 0,-0.3 0.3,-0.6 0.6,-0.6 0.3,0 0.6,0.3 0.6,0.6 z M 70.9,1.7 C 70.9,1.8 70.8,2 70.6,2 70.5,2 70.3,1.9 70.3,1.7 c 0,-0.1 0.1,-0.3 0.3,-0.3 0.2,0.1 0.3,0.2 0.3,0.3 z m -0.3,1.2 c 0,0.2 -0.1,0.3 -0.3,0.3 -0.2,0 -0.3,-0.1 -0.3,-0.3 0,-0.2 0.1,-0.3 0.3,-0.3 0.1,0 0.3,0.1 0.3,0.3 z m -0.3,1.2 c 0,0.2 -0.2,0.4 -0.4,0.4 -0.2,0 -0.4,-0.2 -0.4,-0.4 0,-0.2 0.2,-0.4 0.4,-0.4 0.2,0 0.4,0.1 0.4,0.4 z m -0.4,1.1 c 0,0.2 -0.2,0.4 -0.4,0.4 -0.2,0 -0.4,-0.2 -0.4,-0.4 0,-0.2 0.2,-0.4 0.4,-0.4 0.2,0 0.4,0.2 0.4,0.4 z m -0.3,1.2 c 0,0.3 -0.2,0.5 -0.5,0.5 -0.3,0 -0.5,-0.2 -0.5,-0.5 0,-0.3 0.2,-0.5 0.5,-0.5 0.3,0 0.5,0.2 0.5,0.5 z M 69.3,7.5 C 69.3,7.8 69,8 68.8,8 68.5,8 68.3,7.8 68.3,7.5 68.3,7.2 68.5,7 68.8,7 69,7 69.3,7.2 69.3,7.5 Z m -0.4,1.2 c 0,0.3 -0.2,0.5 -0.5,0.5 -0.3,0 -0.5,-0.2 -0.5,-0.5 0,-0.3 0.2,-0.5 0.5,-0.5 0.3,-0.1 0.5,0.2 0.5,0.5 z m -0.3,1.1 c 0,0.3 -0.3,0.6 -0.6,0.6 -0.3,0 -0.6,-0.3 -0.6,-0.6 0,-0.3 0.3,-0.6 0.6,-0.6 0.3,0.1 0.6,0.3 0.6,0.6 z M 68.2,11 c 0,0.3 -0.3,0.6 -0.6,0.6 -0.3,0 -0.6,-0.3 -0.6,-0.6 0,-0.3 0.3,-0.6 0.6,-0.6 0.4,0 0.6,0.3 0.6,0.6 z m 4,-10.2 C 72.1,0.8 72,0.9 72,1 c 0,0.1 0.1,0.2 0.2,0.2 0.1,0 0.2,-0.1 0.2,-0.2 0,-0.1 -0.1,-0.2 -0.2,-0.2 z m -0.1,1.3 c 0,0.1 -0.1,0.3 -0.3,0.3 -0.1,0 -0.3,-0.1 -0.3,-0.3 0,-0.2 0.1,-0.3 0.3,-0.3 0.1,0 0.3,0.2 0.3,0.3 z m -0.4,1.2 c 0,0.2 -0.1,0.3 -0.3,0.3 -0.2,0 -0.3,-0.1 -0.3,-0.3 0,-0.2 0.1,-0.3 0.3,-0.3 0.2,-0.1 0.3,0.1 0.3,0.3 z M 71.4,4.4 C 71.4,4.6 71.2,4.8 71,4.8 70.8,4.8 70.6,4.6 70.6,4.4 70.7,4.2 70.8,4 71,4 c 0.3,0 0.4,0.2 0.4,0.4 z M 71.1,5.6 C 71.1,5.8 70.9,6 70.7,6 70.5,6 70.3,5.8 70.3,5.6 c 0,-0.2 0.2,-0.4 0.4,-0.4 0.2,-0.1 0.4,0.1 0.4,0.4 z M 70.8,6.7 C 70.8,7 70.6,7.2 70.3,7.2 70,7.2 69.8,7 69.8,6.7 c 0,-0.3 0.2,-0.5 0.5,-0.5 0.3,0.1 0.5,0.3 0.5,0.5 z m -0.4,1.2 c 0,0.3 -0.2,0.5 -0.5,0.5 -0.3,0 -0.5,-0.2 -0.5,-0.5 0,-0.3 0.2,-0.5 0.5,-0.5 0.3,0 0.5,0.2 0.5,0.5 z M 70.1,9 c 0,0.3 -0.2,0.5 -0.5,0.5 C 69.2,9.6 69,9.3 69,9 c 0,-0.3 0.2,-0.5 0.5,-0.5 0.3,0 0.6,0.2 0.6,0.5 z m -0.4,1.2 c 0,0.3 -0.3,0.6 -0.6,0.6 -0.3,0 -0.6,-0.3 -0.6,-0.6 0,-0.3 0.3,-0.6 0.6,-0.6 0.4,0 0.6,0.3 0.6,0.6 z m -0.3,1.1 c 0,0.3 -0.3,0.6 -0.6,0.6 -0.3,0 -0.6,-0.3 -0.6,-0.6 0,-0.3 0.3,-0.6 0.6,-0.6 0.3,0.1 0.6,0.3 0.6,0.6 z M 73.3,1.1 c -0.1,0 -0.2,0.1 -0.2,0.2 0,0.1 0.1,0.2 0.2,0.2 0.1,0 0.2,-0.1 0.2,-0.2 0,-0.1 -0.1,-0.2 -0.2,-0.2 z m -0.1,1.3 c 0,0.1 -0.1,0.3 -0.3,0.3 -0.1,0 -0.3,-0.1 -0.3,-0.3 0,-0.1 0.1,-0.3 0.3,-0.3 0.2,0.1 0.3,0.2 0.3,0.3 z m -0.3,1.2 c 0,0.2 -0.1,0.3 -0.3,0.3 -0.2,0 -0.3,-0.1 -0.3,-0.3 0,-0.2 0.1,-0.3 0.3,-0.3 0.1,0 0.3,0.1 0.3,0.3 z m -0.3,1.1 c 0,0.2 -0.2,0.4 -0.4,0.4 -0.2,0 -0.4,-0.2 -0.4,-0.4 0,-0.2 0.2,-0.4 0.4,-0.4 0.2,0.1 0.4,0.2 0.4,0.4 z m -0.4,1.2 c 0,0.2 -0.2,0.4 -0.4,0.4 -0.2,0 -0.4,-0.2 -0.4,-0.4 0,-0.2 0.2,-0.4 0.4,-0.4 0.2,0 0.4,0.2 0.4,0.4 z m -0.3,1.2 c 0,0.3 -0.2,0.5 -0.5,0.5 -0.3,0 -0.5,-0.2 -0.5,-0.5 0,-0.3 0.2,-0.5 0.5,-0.5 0.3,0 0.5,0.2 0.5,0.5 z m -0.3,1.1 c 0,0.3 -0.2,0.5 -0.5,0.5 -0.3,0 -0.5,-0.2 -0.5,-0.5 0,-0.3 0.2,-0.5 0.5,-0.5 0.2,0 0.5,0.2 0.5,0.5 z m -0.4,1.1 c 0,0.3 -0.2,0.5 -0.5,0.5 -0.3,0 -0.5,-0.2 -0.5,-0.5 0,-0.3 0.2,-0.5 0.5,-0.5 0.3,0 0.5,0.3 0.5,0.5 z m -0.3,1.2 c 0,0.3 -0.3,0.6 -0.6,0.6 -0.3,0 -0.6,-0.3 -0.6,-0.6 0,-0.3 0.3,-0.6 0.6,-0.6 0.3,0 0.6,0.3 0.6,0.6 z m -0.4,1.2 c 0,0.3 -0.3,0.6 -0.6,0.6 -0.3,0 -0.6,-0.3 -0.6,-0.6 0,-0.3 0.3,-0.6 0.6,-0.6 0.4,0 0.6,0.3 0.6,0.6 z m 4.3,-10 C 74.8,1.8 74.7,2 74.5,2 74.4,2 74.2,1.9 74.2,1.7 c 0,-0.1 0.1,-0.3 0.3,-0.3 0.2,0 0.3,0.2 0.3,0.3 z m -0.4,1.2 c 0,0.2 -0.1,0.3 -0.3,0.3 -0.2,0 -0.3,-0.1 -0.3,-0.3 0,-0.2 0.1,-0.3 0.3,-0.3 0.2,-0.1 0.3,0.1 0.3,0.3 z M 74.1,4 c 0,0.2 -0.2,0.4 -0.4,0.4 -0.2,0 -0.4,-0.2 -0.4,-0.4 0,-0.2 0.2,-0.4 0.4,-0.4 0.3,0 0.4,0.2 0.4,0.4 z m -0.3,1.2 c 0,0.2 -0.2,0.4 -0.4,0.4 C 73.2,5.6 73,5.4 73,5.2 73,5 73.2,4.8 73.4,4.8 c 0.2,0 0.4,0.1 0.4,0.4 z m -0.3,1.1 c 0,0.3 -0.2,0.5 -0.5,0.5 -0.3,0 -0.5,-0.2 -0.5,-0.5 0,-0.3 0.2,-0.5 0.5,-0.5 0.3,0.1 0.5,0.3 0.5,0.5 z M 73.1,7.5 C 73.1,7.8 72.9,8 72.6,8 72.3,8 72.1,7.8 72.1,7.5 72.1,7.2 72.3,7 72.6,7 c 0.3,0 0.5,0.2 0.5,0.5 z m -0.3,1.1 c 0,0.3 -0.2,0.5 -0.5,0.5 -0.3,0 -0.5,-0.2 -0.5,-0.5 0,-0.3 0.2,-0.5 0.5,-0.5 0.2,0 0.5,0.2 0.5,0.5 z m -0.4,1.2 c 0,0.3 -0.3,0.6 -0.6,0.6 -0.3,0 -0.6,-0.3 -0.6,-0.6 0,-0.3 0.3,-0.6 0.6,-0.6 0.4,0 0.6,0.3 0.6,0.6 z M 72.1,11 c 0,0.3 -0.3,0.6 -0.6,0.6 -0.3,0 -0.6,-0.3 -0.6,-0.6 0,-0.3 0.3,-0.6 0.6,-0.6 0.3,0 0.6,0.2 0.6,0.6 z M 76,0.7 c -0.1,0 -0.2,0.1 -0.2,0.2 0,0.1 0.1,0.2 0.2,0.2 0.1,0 0.2,-0.1 0.2,-0.2 0,-0.1 -0.1,-0.2 -0.2,-0.2 z m -0.1,1.4 c 0,0.1 -0.1,0.3 -0.3,0.3 -0.1,0 -0.3,-0.1 -0.3,-0.3 0,-0.2 0.1,-0.3 0.3,-0.3 0.2,0 0.3,0.1 0.3,0.3 z m -0.3,1.1 c 0,0.2 -0.1,0.3 -0.3,0.3 C 75.1,3.5 75,3.4 75,3.2 75,3 75.1,2.9 75.3,2.9 c 0.1,0 0.3,0.2 0.3,0.3 z m -0.3,1.2 c 0,0.2 -0.2,0.4 -0.4,0.4 -0.2,0 -0.4,-0.2 -0.4,-0.4 0,-0.2 0.2,-0.4 0.4,-0.4 0.2,0 0.4,0.2 0.4,0.4 z M 74.9,5.6 C 74.9,5.8 74.7,6 74.5,6 74.3,6 74.1,5.8 74.1,5.6 c 0,-0.2 0.2,-0.4 0.4,-0.4 0.2,-0.1 0.4,0.1 0.4,0.4 z m -0.3,1.1 c 0,0.3 -0.2,0.5 -0.5,0.5 -0.3,0 -0.5,-0.2 -0.5,-0.5 0,-0.3 0.2,-0.5 0.5,-0.5 0.3,0 0.5,0.3 0.5,0.5 z m -0.3,1.1 c 0,0.3 -0.2,0.5 -0.5,0.5 -0.3,0 -0.5,-0.2 -0.5,-0.5 0,-0.3 0.2,-0.5 0.5,-0.5 0.2,0 0.5,0.3 0.5,0.5 z M 73.9,9 c 0,0.3 -0.2,0.5 -0.5,0.5 -0.3,0 -0.5,-0.2 -0.5,-0.5 0,-0.3 0.2,-0.5 0.5,-0.5 0.3,0 0.5,0.2 0.5,0.5 z m 3.3,-7.9 c -0.1,0 -0.2,0.1 -0.2,0.2 0,0.1 0.1,0.2 0.2,0.2 0.1,0 0.2,-0.1 0.2,-0.2 0,-0.1 -0.1,-0.2 -0.2,-0.2 z m -0.1,1.3 c 0,0.1 -0.1,0.3 -0.3,0.3 -0.1,0 -0.3,-0.1 -0.3,-0.3 0,-0.1 0.1,-0.3 0.3,-0.3 0.1,0 0.3,0.2 0.3,0.3 z m -0.3,1.2 c 0,0.2 -0.1,0.3 -0.3,0.3 -0.2,0 -0.3,-0.1 -0.3,-0.3 0,-0.2 0.1,-0.3 0.3,-0.3 0.1,-0.1 0.3,0.1 0.3,0.3 z m -0.4,1.1 c 0,0.2 -0.2,0.4 -0.4,0.4 -0.2,0 -0.4,-0.2 -0.4,-0.4 0,-0.2 0.2,-0.4 0.4,-0.4 0.3,0 0.4,0.2 0.4,0.4 z m -0.3,1.2 c 0,0.2 -0.2,0.4 -0.4,0.4 -0.2,0 -0.4,-0.2 -0.4,-0.4 0,-0.2 0.2,-0.4 0.4,-0.4 0.2,-0.1 0.4,0.1 0.4,0.4 z M 75.8,7 c 0,0.3 -0.2,0.5 -0.5,0.5 C 75,7.5 74.8,7.3 74.8,7 74.8,6.7 75,6.5 75.3,6.5 75.6,6.6 75.8,6.8 75.8,7 Z m 2.5,-5.5 c -0.1,0 -0.2,0.1 -0.2,0.2 0,0.1 0.1,0.2 0.2,0.2 0.1,0 0.2,-0.1 0.2,-0.2 0,-0.1 -0.1,-0.2 -0.2,-0.2 z m -0.1,1.3 c 0,0.1 -0.1,0.3 -0.3,0.3 -0.1,0 -0.3,-0.1 -0.3,-0.3 0,-0.1 0.1,-0.3 0.3,-0.3 0.2,0.1 0.3,0.2 0.3,0.3 z M 77.9,4 c 0,0.2 -0.1,0.3 -0.3,0.3 -0.2,0 -0.3,-0.1 -0.3,-0.3 0,-0.2 0.1,-0.3 0.3,-0.3 0.1,0 0.3,0.1 0.3,0.3 z m -0.3,1.2 c 0,0.2 -0.2,0.4 -0.4,0.4 -0.2,0 -0.4,-0.2 -0.4,-0.4 0,-0.2 0.2,-0.4 0.4,-0.4 0.2,0 0.4,0.1 0.4,0.4 z m -0.4,1.1 c 0,0.2 -0.2,0.4 -0.4,0.4 -0.2,0 -0.4,-0.2 -0.4,-0.4 0,-0.2 0.2,-0.4 0.4,-0.4 0.2,0 0.4,0.2 0.4,0.4 z m 2.6,-5.6 c -0.1,0 -0.2,0.1 -0.2,0.2 0,0.1 0.1,0.2 0.2,0.2 C 79.9,1.1 80,1 80,0.9 80,0.8 79.9,0.7 79.8,0.7 Z M 79.7,2 c 0,0.1 -0.1,0.3 -0.3,0.3 -0.1,0 -0.3,-0.1 -0.3,-0.3 0,-0.1 0.1,-0.3 0.3,-0.3 0.2,0.1 0.3,0.2 0.3,0.3 z m -0.3,1.2 c 0,0.2 -0.1,0.3 -0.3,0.3 -0.2,0 -0.3,-0.1 -0.3,-0.3 0,-0.2 0.1,-0.3 0.3,-0.3 0.1,0 0.3,0.1 0.3,0.3 z m -0.3,1.1 c 0,0.2 -0.2,0.4 -0.4,0.4 -0.2,0 -0.4,-0.2 -0.4,-0.4 0,-0.2 0.2,-0.4 0.4,-0.4 0.2,0.1 0.4,0.2 0.4,0.4 z m 1.8,-3.2 c -0.1,0 -0.2,0.1 -0.2,0.2 0,0.1 0.1,0.2 0.2,0.2 0.1,0 0.2,-0.1 0.2,-0.2 0,-0.2 -0.1,-0.2 -0.2,-0.2 z m -0.1,1.3 c 0,0.1 -0.1,0.3 -0.3,0.3 -0.1,0 -0.3,-0.1 -0.3,-0.3 0,-0.1 0.1,-0.3 0.3,-0.3 0.2,0 0.3,0.1 0.3,0.3 z m -19,-1.2 c -0.1,0 -0.2,0.1 -0.2,0.2 0,0.1 0.1,0.2 0.2,0.2 C 61.9,1.6 62,1.5 62,1.4 62,1.3 61.9,1.2 61.8,1.2 Z m -0.1,1.4 c 0,0.1 -0.1,0.3 -0.3,0.3 -0.1,0 -0.3,-0.1 -0.3,-0.3 0,-0.1 0.1,-0.3 0.3,-0.3 0.2,0 0.3,0.1 0.3,0.3 z M 61.4,3.7 C 61.4,3.9 61.3,4 61.1,4 60.9,4 60.8,3.9 60.8,3.7 c 0,-0.2 0.1,-0.3 0.3,-0.3 0.1,0 0.3,0.1 0.3,0.3 z m -0.3,1.2 c 0,0.2 -0.2,0.4 -0.4,0.4 -0.2,0 -0.4,-0.2 -0.4,-0.4 0,-0.2 0.2,-0.4 0.4,-0.4 0.2,0 0.4,0.2 0.4,0.4 z M 60.7,6 c 0,0.2 -0.2,0.4 -0.4,0.4 -0.2,0 -0.4,-0.2 -0.4,-0.4 0,-0.2 0.2,-0.4 0.4,-0.4 0.2,0 0.4,0.2 0.4,0.4 z m -0.3,1.2 c 0,0.3 -0.2,0.5 -0.5,0.5 -0.3,0 -0.5,-0.2 -0.5,-0.5 0,-0.3 0.2,-0.5 0.5,-0.5 0.3,0 0.5,0.2 0.5,0.5 z m -0.3,1.1 c 0,0.3 -0.2,0.5 -0.5,0.5 -0.3,0 -0.5,-0.2 -0.5,-0.5 0,-0.3 0.2,-0.5 0.5,-0.5 0.2,0 0.5,0.3 0.5,0.5 z m -0.4,1.2 c 0,0.3 -0.2,0.5 -0.5,0.5 -0.3,0 -0.5,-0.2 -0.5,-0.5 0,-0.3 0.2,-0.5 0.5,-0.5 0.3,-0.1 0.5,0.2 0.5,0.5 z m -0.3,1.1 c 0,0.3 -0.3,0.6 -0.6,0.6 -0.3,0 -0.6,-0.3 -0.6,-0.6 0,-0.3 0.3,-0.6 0.6,-0.6 0.3,0.1 0.6,0.3 0.6,0.6 z M 59,11.8 c 0,0.3 -0.3,0.6 -0.6,0.6 -0.3,0 -0.6,-0.3 -0.6,-0.6 0,-0.3 0.3,-0.6 0.6,-0.6 0.4,0 0.6,0.3 0.6,0.6 z M 60.7,0.9 c -0.1,0 -0.2,0.1 -0.2,0.2 0,0.1 0.1,0.2 0.2,0.2 0.1,0 0.2,-0.1 0.2,-0.2 0,-0.1 -0.1,-0.2 -0.2,-0.2 z m -0.1,1.3 c 0,0.1 -0.1,0.3 -0.3,0.3 C 60.2,2.5 60,2.4 60,2.2 60,2.1 60.2,2 60.3,2 c 0.1,0 0.3,0.1 0.3,0.2 z m -0.4,1.2 c 0,0.2 -0.1,0.3 -0.3,0.3 -0.2,0 -0.3,-0.1 -0.3,-0.3 0,-0.2 0.1,-0.3 0.3,-0.3 0.2,0 0.3,0.1 0.3,0.3 z m -0.3,1.1 c 0,0.2 -0.2,0.4 -0.4,0.4 -0.2,0 -0.4,-0.2 -0.4,-0.4 0,-0.2 0.2,-0.4 0.4,-0.4 0.2,0 0.4,0.2 0.4,0.4 z m -0.3,1.2 c 0,0.2 -0.2,0.4 -0.4,0.4 -0.2,0 -0.4,-0.2 -0.4,-0.4 0,-0.2 0.2,-0.4 0.4,-0.4 0.2,0 0.4,0.2 0.4,0.4 z m -0.3,1.2 c 0,0.3 -0.2,0.5 -0.5,0.5 -0.3,0 -0.5,-0.2 -0.5,-0.5 0,-0.3 0.2,-0.5 0.5,-0.5 0.3,0 0.5,0.2 0.5,0.5 z M 58.9,8 c 0,0.3 -0.2,0.5 -0.5,0.5 -0.3,0 -0.5,-0.2 -0.5,-0.5 0,-0.3 0.2,-0.5 0.5,-0.5 0.3,0 0.5,0.2 0.5,0.5 z m -0.3,1.2 c 0,0.3 -0.2,0.5 -0.5,0.5 -0.3,0 -0.5,-0.2 -0.5,-0.5 0,-0.3 0.2,-0.5 0.5,-0.5 0.2,-0.1 0.5,0.2 0.5,0.5 z m -0.4,1.1 c 0,0.3 -0.3,0.6 -0.6,0.6 -0.3,0 -0.6,-0.3 -0.6,-0.6 0,-0.3 0.3,-0.6 0.6,-0.6 0.4,0.1 0.6,0.3 0.6,0.6 z m -0.3,1.2 c 0,0.3 -0.3,0.6 -0.6,0.6 -0.3,0 -0.6,-0.3 -0.6,-0.6 0,-0.3 0.3,-0.6 0.6,-0.6 0.3,0 0.6,0.3 0.6,0.6 z m 1.6,-11 c -0.1,0 -0.2,0.1 -0.2,0.2 0,0.1 0.1,0.2 0.2,0.2 0.1,0 0.2,-0.1 0.2,-0.2 0,-0.1 -0.1,-0.2 -0.2,-0.2 z m -0.1,1.3 c 0,0.1 -0.1,0.3 -0.3,0.3 -0.2,0 -0.2,-0.1 -0.2,-0.3 0,-0.1 0.1,-0.3 0.3,-0.3 0.2,0 0.2,0.2 0.2,0.3 z M 59.1,3 c 0,0.2 -0.1,0.3 -0.3,0.3 -0.2,0 -0.3,-0.1 -0.3,-0.3 0,-0.2 0.1,-0.3 0.3,-0.3 0.1,0 0.3,0.1 0.3,0.3 z m -0.3,1.2 c 0,0.2 -0.2,0.4 -0.4,0.4 C 58.2,4.6 58,4.4 58,4.2 58,4 58.2,3.8 58.4,3.8 c 0.2,0 0.4,0.1 0.4,0.4 z m -0.4,1.1 c 0,0.2 -0.2,0.4 -0.4,0.4 -0.2,0 -0.4,-0.2 -0.4,-0.4 0,-0.2 0.2,-0.4 0.4,-0.4 0.2,0 0.4,0.2 0.4,0.4 z M 58.1,6.5 C 58.1,6.8 57.9,7 57.6,7 57.3,7 57.1,6.8 57.1,6.5 57.1,6.2 57.3,6 57.6,6 c 0.3,0 0.5,0.2 0.5,0.5 z m -0.3,1.1 c 0,0.3 -0.2,0.5 -0.5,0.5 -0.3,0 -0.5,-0.2 -0.5,-0.5 0,-0.3 0.2,-0.5 0.5,-0.5 0.2,0 0.5,0.2 0.5,0.5 z m -0.4,1.2 c 0,0.3 -0.2,0.5 -0.5,0.5 -0.3,0 -0.5,-0.2 -0.5,-0.5 0,-0.3 0.2,-0.5 0.5,-0.5 0.3,-0.1 0.5,0.2 0.5,0.5 z m -0.3,1.1 c 0,0.3 -0.3,0.6 -0.6,0.6 -0.3,0 -0.6,-0.3 -0.6,-0.6 0,-0.3 0.3,-0.6 0.6,-0.6 0.3,0.1 0.6,0.3 0.6,0.6 z m -0.4,1.2 c 0,0.3 -0.3,0.6 -0.6,0.6 -0.3,0 -0.6,-0.3 -0.6,-0.6 0,-0.3 0.3,-0.6 0.6,-0.6 0.4,0 0.6,0.3 0.6,0.6 z M 58,1.3 c -0.1,0 -0.2,0.1 -0.2,0.2 0,0.1 0.1,0.2 0.2,0.2 0.1,0 0.2,-0.1 0.2,-0.2 0,-0.1 -0.1,-0.2 -0.2,-0.2 z m -0.1,1.3 c 0,0.1 -0.1,0.3 -0.3,0.3 -0.1,0 -0.3,-0.1 -0.3,-0.3 0,-0.1 0.1,-0.3 0.3,-0.3 0.1,0.1 0.3,0.2 0.3,0.3 z M 57.5,3.8 C 57.5,4 57.4,4.1 57.2,4.1 57,4.1 56.9,4 56.9,3.8 c 0,-0.2 0.1,-0.3 0.3,-0.3 0.2,-0.1 0.3,0.1 0.3,0.3 z m -0.3,1.1 c 0,0.2 -0.2,0.4 -0.4,0.4 -0.2,0 -0.4,-0.2 -0.4,-0.4 0,-0.2 0.2,-0.4 0.4,-0.4 0.3,0 0.4,0.2 0.4,0.4 z m -0.3,1.2 c 0,0.2 -0.2,0.4 -0.4,0.4 -0.2,0 -0.4,-0.2 -0.4,-0.4 0,-0.2 0.2,-0.4 0.4,-0.4 0.2,0 0.4,0.2 0.4,0.4 z m -0.3,1.1 c 0,0.3 -0.2,0.5 -0.5,0.5 -0.3,0 -0.5,-0.2 -0.5,-0.5 0,-0.3 0.2,-0.5 0.5,-0.5 0.3,0.1 0.5,0.3 0.5,0.5 z m -0.4,1.2 c 0,0.3 -0.2,0.5 -0.5,0.5 -0.3,0 -0.5,-0.2 -0.5,-0.5 0,-0.3 0.2,-0.5 0.5,-0.5 0.3,0 0.5,0.2 0.5,0.5 z m -0.3,1.1 c 0,0.3 -0.2,0.5 -0.5,0.5 -0.3,0 -0.5,-0.2 -0.5,-0.5 0,-0.3 0.2,-0.5 0.5,-0.5 0.2,0 0.5,0.2 0.5,0.5 z m -0.4,1.2 c 0,0.3 -0.3,0.6 -0.6,0.6 -0.3,0 -0.6,-0.3 -0.6,-0.6 0,-0.3 0.3,-0.6 0.6,-0.6 0.4,0 0.6,0.3 0.6,0.6 z m -0.3,1.2 c 0,0.3 -0.3,0.6 -0.6,0.6 -0.3,0 -0.6,-0.3 -0.6,-0.6 0,-0.3 0.3,-0.6 0.6,-0.6 0.3,0 0.6,0.2 0.6,0.6 z m 1.6,-11 c -0.1,0 -0.2,0.1 -0.2,0.2 0,0.1 0.1,0.2 0.2,0.2 C 56.9,1.3 57,1.2 57,1.1 57,1 56.9,0.9 56.8,0.9 Z m -0.1,1.3 c 0,0.1 -0.1,0.3 -0.3,0.3 -0.1,0 -0.3,-0.1 -0.3,-0.3 0,-0.1 0.1,-0.3 0.3,-0.3 0.2,0.1 0.3,0.2 0.3,0.3 z m -0.3,1.2 c 0,0.2 -0.1,0.3 -0.3,0.3 -0.2,0 -0.3,-0.1 -0.3,-0.3 0,-0.2 0.1,-0.3 0.3,-0.3 0.2,0 0.3,0.1 0.3,0.3 z m -0.3,1.1 c 0,0.2 -0.2,0.4 -0.4,0.4 -0.2,0 -0.4,-0.2 -0.4,-0.4 0,-0.2 0.2,-0.4 0.4,-0.4 0.2,0.1 0.4,0.2 0.4,0.4 z m -0.3,1.2 c 0,0.2 -0.2,0.4 -0.4,0.4 -0.2,0 -0.4,-0.2 -0.4,-0.4 0,-0.2 0.2,-0.4 0.4,-0.4 0.2,0 0.4,0.2 0.4,0.4 z m -0.4,1.2 c 0,0.3 -0.2,0.5 -0.5,0.5 -0.3,0 -0.5,-0.2 -0.5,-0.5 0,-0.3 0.2,-0.5 0.5,-0.5 0.3,0 0.5,0.2 0.5,0.5 z M 55.1,8 c 0,0.3 -0.2,0.5 -0.5,0.5 -0.3,0 -0.5,-0.2 -0.5,-0.5 0,-0.3 0.2,-0.5 0.5,-0.5 0.3,0 0.5,0.2 0.5,0.5 z m -0.4,1.1 c 0,0.3 -0.2,0.5 -0.5,0.5 -0.3,0 -0.5,-0.2 -0.5,-0.5 0,-0.3 0.2,-0.5 0.5,-0.5 0.3,0 0.5,0.3 0.5,0.5 z m -0.3,1.2 c 0,0.3 -0.3,0.6 -0.6,0.6 -0.3,0 -0.6,-0.3 -0.6,-0.6 0,-0.3 0.3,-0.6 0.6,-0.6 0.3,0 0.6,0.3 0.6,0.6 z M 54,11.5 c 0,0.3 -0.3,0.6 -0.6,0.6 -0.3,0 -0.6,-0.3 -0.6,-0.6 0,-0.3 0.3,-0.6 0.6,-0.6 0.4,0 0.6,0.2 0.6,0.6 z m 1.7,-11 c -0.1,0 -0.2,0.1 -0.2,0.2 0,0.1 0.1,0.2 0.2,0.2 0.1,0 0.2,-0.1 0.2,-0.2 0,-0.1 -0.1,-0.2 -0.2,-0.2 z m -0.2,1.3 c 0,0.1 -0.1,0.3 -0.3,0.3 C 55.1,2.1 55,2 55,1.8 c 0,-0.1 0.1,-0.3 0.3,-0.3 0.1,0.1 0.2,0.2 0.2,0.3 z M 55.2,3 c 0,0.2 -0.1,0.3 -0.3,0.3 -0.2,0 -0.3,-0.1 -0.3,-0.3 0,-0.2 0.1,-0.3 0.3,-0.3 0.2,0 0.3,0.1 0.3,0.3 z m -0.3,1.2 c 0,0.2 -0.2,0.4 -0.4,0.4 -0.2,0 -0.4,-0.2 -0.4,-0.4 0,-0.2 0.2,-0.4 0.4,-0.4 0.3,0 0.4,0.1 0.4,0.4 z m -0.3,1.1 c 0,0.2 -0.2,0.4 -0.4,0.4 -0.2,0 -0.4,-0.2 -0.4,-0.4 0,-0.2 0.2,-0.4 0.4,-0.4 0.2,0 0.4,0.2 0.4,0.4 z M 54.3,6.5 C 54.3,6.8 54.1,7 53.8,7 53.5,7 53.3,6.8 53.3,6.5 53.3,6.2 53.5,6 53.8,6 c 0.3,0 0.5,0.2 0.5,0.5 z m -0.4,1.1 c 0,0.3 -0.2,0.5 -0.5,0.5 -0.3,0 -0.5,-0.2 -0.5,-0.5 0,-0.3 0.2,-0.5 0.5,-0.5 0.3,0 0.5,0.2 0.5,0.5 z m -0.3,1.2 c 0,0.3 -0.2,0.5 -0.5,0.5 -0.3,0 -0.5,-0.2 -0.5,-0.5 0,-0.3 0.2,-0.5 0.5,-0.5 0.2,-0.1 0.5,0.2 0.5,0.5 z m -0.4,1.1 c 0,0.3 -0.3,0.6 -0.6,0.6 -0.3,0 -0.6,-0.3 -0.6,-0.6 0,-0.3 0.3,-0.6 0.6,-0.6 0.4,0.1 0.6,0.3 0.6,0.6 z m -0.3,1.2 c 0,0.3 -0.3,0.6 -0.6,0.6 -0.3,0 -0.6,-0.3 -0.6,-0.6 0,-0.3 0.3,-0.6 0.6,-0.6 0.3,0 0.6,0.3 0.6,0.6 z m 1.2,-9.8 c -0.1,0 -0.2,0.1 -0.2,0.2 0,0.1 0.1,0.2 0.2,0.2 0.1,0 0.2,-0.1 0.2,-0.2 0,-0.1 -0.1,-0.2 -0.2,-0.2 z M 54,2.6 c 0,0.1 -0.1,0.3 -0.3,0.3 -0.1,0 -0.3,-0.1 -0.3,-0.3 0,-0.1 0.1,-0.3 0.3,-0.3 0.2,0.1 0.3,0.2 0.3,0.3 z m -0.3,1.2 c 0,0.2 -0.1,0.3 -0.3,0.3 -0.2,0 -0.3,-0.1 -0.3,-0.3 0,-0.2 0.1,-0.3 0.3,-0.3 0.2,-0.1 0.3,0.1 0.3,0.3 z m -0.3,1.1 c 0,0.2 -0.2,0.4 -0.4,0.4 -0.2,0 -0.4,-0.2 -0.4,-0.4 0,-0.2 0.2,-0.4 0.4,-0.4 0.2,0 0.4,0.2 0.4,0.4 z m -0.3,1.2 c 0,0.2 -0.2,0.4 -0.4,0.4 -0.2,0 -0.4,-0.2 -0.4,-0.4 0,-0.2 0.2,-0.4 0.4,-0.4 0.2,0 0.4,0.2 0.4,0.4 z m -0.4,1.1 c 0,0.3 -0.2,0.5 -0.5,0.5 -0.3,0 -0.5,-0.2 -0.5,-0.5 0,-0.3 0.2,-0.5 0.5,-0.5 0.3,0.1 0.5,0.3 0.5,0.5 z m -0.3,1.2 c 0,0.3 -0.2,0.5 -0.5,0.5 -0.3,0 -0.5,-0.2 -0.5,-0.5 0,-0.3 0.2,-0.5 0.5,-0.5 0.3,0 0.5,0.2 0.5,0.5 z M 52,9.5 C 52,9.8 51.8,10 51.5,10 51.2,10 51,9.8 51,9.5 51,9.2 51.2,9 51.5,9 51.8,9 52,9.2 52,9.5 Z m -0.3,1.2 c 0,0.3 -0.3,0.6 -0.6,0.6 -0.3,0 -0.6,-0.3 -0.6,-0.6 0,-0.3 0.3,-0.6 0.6,-0.6 0.3,0 0.6,0.3 0.6,0.6 z m -0.4,1.2 c 0,0.3 -0.3,0.6 -0.6,0.6 -0.3,0 -0.6,-0.3 -0.6,-0.6 0,-0.3 0.3,-0.6 0.6,-0.6 0.4,0 0.6,0.2 0.6,0.6 z M 53,1 c -0.1,0 -0.2,0.1 -0.2,0.2 0,0.1 0.1,0.2 0.2,0.2 0.1,0 0.2,-0.1 0.2,-0.2 C 53.2,1 53.1,1 53,1 Z m -0.1,1.3 c 0,0.1 -0.1,0.3 -0.3,0.3 -0.1,0 -0.3,-0.1 -0.3,-0.3 0,-0.1 0.1,-0.3 0.3,-0.3 0.2,0 0.3,0.1 0.3,0.3 z m -0.3,1.1 c 0,0.2 -0.1,0.3 -0.3,0.3 -0.2,0 -0.3,-0.1 -0.3,-0.3 0,-0.2 0.1,-0.3 0.3,-0.3 0.2,0 0.3,0.2 0.3,0.3 z M 52.3,4.6 C 52.3,4.8 52.1,5 51.9,5 51.7,5 51.5,4.8 51.5,4.6 c 0,-0.2 0.2,-0.4 0.4,-0.4 0.2,0 0.4,0.2 0.4,0.4 z M 51.9,5.8 C 51.9,6 51.7,6.2 51.5,6.2 51.2,6.2 51,6 51,5.8 c 0,-0.2 0.2,-0.4 0.4,-0.4 0.3,-0.1 0.5,0.1 0.5,0.4 z m -0.3,1.1 c 0,0.3 -0.2,0.5 -0.5,0.5 -0.3,0 -0.5,-0.2 -0.5,-0.5 0,-0.3 0.2,-0.5 0.5,-0.5 0.3,0 0.5,0.3 0.5,0.5 z m -0.4,1.2 c 0,0.3 -0.2,0.5 -0.5,0.5 -0.3,0 -0.5,-0.2 -0.5,-0.5 0,-0.3 0.2,-0.5 0.5,-0.5 0.3,-0.1 0.5,0.2 0.5,0.5 z m -0.3,1.1 c 0,0.3 -0.2,0.5 -0.5,0.5 -0.3,0 -0.5,-0.2 -0.5,-0.5 0,-0.3 0.2,-0.5 0.5,-0.5 0.2,0 0.5,0.2 0.5,0.5 z m -0.4,1.2 c 0,0.3 -0.3,0.6 -0.6,0.6 -0.3,0 -0.6,-0.3 -0.6,-0.6 0,-0.3 0.3,-0.6 0.6,-0.6 0.4,0 0.6,0.3 0.6,0.6 z m -0.3,1.1 c 0,0.3 -0.3,0.6 -0.6,0.6 -0.3,0 -0.6,-0.3 -0.6,-0.6 0,-0.3 0.3,-0.6 0.6,-0.6 0.3,0 0.6,0.3 0.6,0.6 z M 51.8,0.6 c -0.1,0 -0.2,0.1 -0.2,0.2 0,0.1 0.1,0.2 0.2,0.2 C 51.9,1 52,0.9 52,0.8 52,0.7 51.9,0.6 51.8,0.6 Z m -0.1,1.3 c 0,0.1 -0.1,0.3 -0.3,0.3 -0.2,0 -0.2,-0.2 -0.2,-0.3 0,-0.1 0.1,-0.3 0.3,-0.3 0.2,0 0.2,0.2 0.2,0.3 z m -0.3,1.2 c 0,0.2 -0.1,0.3 -0.3,0.3 -0.2,0 -0.3,-0.1 -0.3,-0.3 0,-0.2 0.1,-0.3 0.3,-0.3 0.2,-0.1 0.3,0.1 0.3,0.3 z m -0.3,1.1 c 0,0.2 -0.2,0.4 -0.4,0.4 -0.2,0 -0.4,-0.2 -0.4,-0.4 0,-0.2 0.2,-0.4 0.4,-0.4 0.2,0 0.4,0.2 0.4,0.4 z m -0.3,1.2 c 0,0.2 -0.2,0.4 -0.4,0.4 C 50.2,5.8 50,5.6 50,5.4 50,5.2 50.2,5 50.4,5 50.6,4.9 50.8,5.1 50.8,5.4 Z M 50.4,6.5 C 50.4,6.8 50.2,7 50,7 49.7,7 49.5,6.8 49.5,6.5 49.5,6.2 49.7,6 50,6 c 0.2,0.1 0.4,0.3 0.4,0.5 z m -0.3,1.2 c 0,0.3 -0.2,0.5 -0.5,0.5 -0.3,0 -0.5,-0.2 -0.5,-0.5 0,-0.3 0.2,-0.5 0.5,-0.5 0.3,0 0.5,0.2 0.5,0.5 z m -0.4,1.1 c 0,0.3 -0.2,0.5 -0.5,0.5 -0.3,0 -0.5,-0.2 -0.5,-0.5 0,-0.3 0.2,-0.5 0.5,-0.5 0.3,0 0.5,0.2 0.5,0.5 z M 49.4,10 c 0,0.3 -0.3,0.6 -0.6,0.6 -0.3,0 -0.6,-0.3 -0.6,-0.6 0,-0.3 0.3,-0.6 0.6,-0.6 0.3,0 0.6,0.3 0.6,0.6 z M 49,11.2 c 0,0.3 -0.3,0.6 -0.6,0.6 -0.3,0 -0.6,-0.3 -0.6,-0.6 0,-0.3 0.3,-0.6 0.6,-0.6 0.4,0 0.6,0.2 0.6,0.6 z m 1.3,-9.9 c -0.1,0 -0.2,0.1 -0.2,0.2 0,0.1 0.1,0.2 0.2,0.2 0.1,0 0.2,-0.1 0.2,-0.2 0,-0.1 -0.1,-0.2 -0.2,-0.2 z M 50.2,2.7 C 50.2,2.8 50.1,3 49.9,3 49.8,3 49.6,2.9 49.6,2.7 c 0,-0.1 0.1,-0.3 0.3,-0.3 0.2,0 0.3,0.1 0.3,0.3 z m -0.3,1.1 c 0,0.2 -0.1,0.3 -0.3,0.3 -0.2,0 -0.3,-0.1 -0.3,-0.3 0,-0.2 0.1,-0.3 0.3,-0.3 0.1,0 0.3,0.1 0.3,0.3 z M 49.6,5 c 0,0.2 -0.2,0.4 -0.4,0.4 -0.2,0 -0.4,-0.2 -0.4,-0.4 0,-0.2 0.2,-0.4 0.4,-0.4 0.2,0 0.4,0.2 0.4,0.4 z m -0.4,1.1 c 0,0.2 -0.2,0.4 -0.4,0.4 -0.2,0 -0.4,-0.2 -0.4,-0.4 0,-0.2 0.2,-0.4 0.4,-0.4 0.2,0 0.4,0.2 0.4,0.4 z m -0.3,1.2 c 0,0.3 -0.2,0.5 -0.5,0.5 -0.3,0 -0.5,-0.2 -0.5,-0.5 0,-0.3 0.2,-0.5 0.5,-0.5 0.3,0 0.5,0.2 0.5,0.5 z M 48.5,8.4 C 48.5,8.7 48.3,9 48,9 47.7,9 47.5,8.8 47.5,8.5 47.5,8.2 47.7,8 48,8 c 0.3,-0.1 0.5,0.2 0.5,0.4 z m -0.3,1.2 c 0,0.3 -0.2,0.5 -0.5,0.5 -0.3,0 -0.5,-0.2 -0.5,-0.5 0,-0.3 0.2,-0.5 0.5,-0.5 0.3,0 0.5,0.2 0.5,0.5 z m -0.4,1.2 c 0,0.3 -0.3,0.6 -0.6,0.6 -0.3,0 -0.6,-0.3 -0.6,-0.6 0,-0.3 0.3,-0.6 0.6,-0.6 0.4,0 0.6,0.2 0.6,0.6 z m -0.3,1.1 c 0,0.3 -0.3,0.6 -0.6,0.6 -0.3,0 -0.6,-0.3 -0.6,-0.6 0,-0.3 0.3,-0.6 0.6,-0.6 0.3,0 0.6,0.3 0.6,0.6 z M 49.1,1 c -0.1,0 -0.2,0 -0.2,0.1 0,0.1 0.1,0.2 0.2,0.2 0.1,0 0.2,-0.1 0.2,-0.2 C 49.3,1 49.2,1 49.1,1 Z M 49,2.3 C 49,2.4 48.9,2.6 48.7,2.6 48.6,2.6 48.4,2.5 48.4,2.3 48.4,2.2 48.5,2 48.7,2 48.9,2 49,2.1 49,2.3 Z m -0.3,1.1 c 0,0.2 -0.1,0.3 -0.3,0.3 -0.2,0 -0.4,-0.1 -0.4,-0.3 0,-0.2 0.1,-0.3 0.3,-0.3 0.2,0 0.4,0.2 0.4,0.3 z M 48.4,4.6 C 48.4,4.8 48.2,5 48,5 47.8,5 47.6,4.8 47.6,4.6 c 0,-0.2 0.2,-0.4 0.4,-0.4 0.2,0 0.4,0.2 0.4,0.4 z M 48,5.8 C 48,6 47.8,6.2 47.6,6.2 47.4,6.2 47.2,6 47.2,5.8 47.2,5.6 47.4,5.4 47.6,5.4 47.8,5.3 48,5.5 48,5.8 Z m -0.3,1.1 c 0,0.3 -0.2,0.5 -0.5,0.5 -0.3,0 -0.5,-0.2 -0.5,-0.5 0,-0.3 0.2,-0.5 0.5,-0.5 0.3,0 0.5,0.3 0.5,0.5 z m -0.4,1.2 c 0,0.3 -0.2,0.5 -0.5,0.5 -0.3,0 -0.5,-0.2 -0.5,-0.5 0,-0.3 0.2,-0.5 0.5,-0.5 0.3,-0.1 0.5,0.2 0.5,0.5 z M 47,9.2 C 47,9.5 46.8,9.7 46.5,9.7 46.2,9.7 46,9.5 46,9.2 46,8.9 46.2,8.7 46.5,8.7 46.8,8.7 47,8.9 47,9.2 Z m -0.4,1.2 c 0,0.3 -0.3,0.6 -0.6,0.6 -0.3,0 -0.6,-0.3 -0.6,-0.6 0,-0.3 0.3,-0.6 0.6,-0.6 0.4,0 0.6,0.3 0.6,0.6 z m -0.3,1.1 c 0,0.3 -0.3,0.6 -0.6,0.6 -0.3,0 -0.6,-0.3 -0.6,-0.6 0,-0.3 0.3,-0.6 0.6,-0.6 0.3,0 0.6,0.3 0.6,0.6 z M 48,0.6 C 47.9,0.6 47.8,0.7 47.8,0.8 47.8,0.9 47.9,1 48,1 48.1,1 48.2,0.9 48.2,0.8 48.2,0.7 48.1,0.6 48,0.6 Z M 47.9,2 c 0,0.1 -0.1,0.3 -0.3,0.3 -0.1,0 -0.3,-0.1 -0.3,-0.3 0,-0.1 0.1,-0.3 0.3,-0.3 0.2,0 0.3,0.1 0.3,0.3 z m -0.3,1.1 c 0,0.2 -0.1,0.3 -0.3,0.3 -0.2,0 -0.3,-0.1 -0.3,-0.3 0,-0.2 0.1,-0.3 0.3,-0.3 0.1,0 0.3,0.1 0.3,0.3 z m -0.3,1.2 c 0,0.2 -0.2,0.4 -0.4,0.4 -0.2,0 -0.4,-0.2 -0.4,-0.4 0,-0.2 0.2,-0.4 0.4,-0.4 0.2,0 0.4,0.2 0.4,0.4 z m -0.4,1.1 c 0,0.2 -0.2,0.4 -0.4,0.4 -0.2,0 -0.4,-0.2 -0.4,-0.4 0,-0.2 0.1,-0.4 0.4,-0.4 0.2,0 0.4,0.2 0.4,0.4 z m -0.3,1.2 c 0,0.3 -0.2,0.5 -0.5,0.5 -0.3,0 -0.5,-0.2 -0.5,-0.5 0,-0.3 0.2,-0.5 0.5,-0.5 0.3,0 0.5,0.2 0.5,0.5 z M 46.2,7.7 C 46.2,8 46,8.2 45.7,8.2 45.4,8.2 45.2,8 45.2,7.7 c 0,-0.3 0.2,-0.5 0.5,-0.5 0.3,0 0.5,0.2 0.5,0.5 z m -0.3,1.2 c 0,0.3 -0.2,0.5 -0.5,0.5 -0.3,0 -0.5,-0.2 -0.5,-0.5 0,-0.3 0.2,-0.5 0.5,-0.5 0.3,-0.1 0.5,0.2 0.5,0.5 z M 45.5,10 c 0,0.3 -0.3,0.6 -0.6,0.6 -0.3,0 -0.6,-0.3 -0.6,-0.6 0,-0.3 0.3,-0.6 0.6,-0.6 0.4,0.1 0.6,0.3 0.6,0.6 z m -0.3,1.2 c 0,0.3 -0.3,0.6 -0.6,0.6 -0.3,0 -0.6,-0.3 -0.6,-0.6 0,-0.3 0.3,-0.6 0.6,-0.6 0.3,0 0.6,0.3 0.6,0.6 z m 1.2,-9.8 c -0.1,0 -0.2,0.1 -0.2,0.2 0,0.1 0.1,0.2 0.2,0.2 0.1,0 0.2,-0.1 0.2,-0.2 0,-0.1 -0.1,-0.2 -0.2,-0.2 z M 46.3,2.7 C 46.3,2.8 46.2,3 46,3 45.9,3 45.7,2.9 45.7,2.7 c 0,-0.1 0.1,-0.3 0.3,-0.3 0.2,0.1 0.3,0.2 0.3,0.3 z M 46,3.9 c 0,0.2 -0.1,0.3 -0.3,0.3 -0.2,0 -0.3,-0.1 -0.3,-0.3 0,-0.2 0.1,-0.3 0.3,-0.3 0.2,0 0.3,0.1 0.3,0.3 z M 45.7,5 c 0,0.2 -0.2,0.4 -0.4,0.4 -0.2,0 -0.4,-0.2 -0.4,-0.4 0,-0.2 0.2,-0.4 0.4,-0.4 0.2,0.1 0.4,0.2 0.4,0.4 z m -0.4,1.2 c 0,0.2 -0.2,0.4 -0.4,0.4 -0.2,0 -0.4,-0.2 -0.4,-0.4 0,-0.2 0.2,-0.4 0.4,-0.4 0.3,0 0.4,0.2 0.4,0.4 z M 45,7.4 C 45,7.7 44.8,7.9 44.5,7.9 44.2,7.9 44,7.7 44,7.4 44,7.1 44.2,6.9 44.5,6.9 44.8,6.9 45,7.1 45,7.4 Z M 44.7,8.5 C 44.7,8.8 44.5,9 44.2,9 43.9,9 43.7,8.8 43.7,8.5 43.7,8.2 43.9,8 44.2,8 c 0.2,0 0.5,0.2 0.5,0.5 z m -0.4,1.1 c 0,0.3 -0.2,0.5 -0.5,0.5 -0.3,0 -0.5,-0.2 -0.5,-0.5 0,-0.3 0.2,-0.5 0.5,-0.5 0.3,0 0.5,0.3 0.5,0.5 z M 44,10.8 c 0,0.3 -0.3,0.6 -0.6,0.6 -0.3,0 -0.6,-0.3 -0.6,-0.6 0,-0.3 0.3,-0.6 0.6,-0.6 0.3,0.1 0.6,0.3 0.6,0.6 z M 43.6,12 c 0,0.3 -0.3,0.6 -0.6,0.6 -0.3,0 -0.6,-0.3 -0.6,-0.6 0,-0.3 0.3,-0.6 0.6,-0.6 0.3,0 0.6,0.3 0.6,0.6 z M 45.3,1 c -0.1,0 -0.2,0.1 -0.2,0.2 0,0.1 0.1,0.2 0.2,0.2 0.1,0 0.2,-0.1 0.2,-0.2 C 45.5,1.1 45.4,1 45.3,1 Z m -0.1,1.3 c 0,0.1 -0.1,0.3 -0.3,0.3 -0.1,0 -0.3,-0.1 -0.3,-0.3 0,-0.1 0.1,-0.3 0.3,-0.3 0.2,0.1 0.3,0.2 0.3,0.3 z m -0.3,1.2 c 0,0.2 -0.1,0.3 -0.3,0.3 -0.2,0 -0.3,-0.1 -0.3,-0.3 0,-0.2 0.1,-0.3 0.3,-0.3 0.1,0 0.3,0.1 0.3,0.3 z M 44.6,4.6 C 44.6,4.8 44.4,5 44.2,5 44,5 43.8,4.8 43.8,4.6 c 0,-0.2 0.2,-0.4 0.4,-0.4 0.2,0.1 0.4,0.2 0.4,0.4 z M 44.2,5.8 C 44.2,6 44,6.2 43.8,6.2 43.6,6.2 43.4,6 43.4,5.8 c 0,-0.2 0.2,-0.4 0.4,-0.4 0.2,0 0.4,0.2 0.4,0.4 z M 43.9,7 c 0,0.3 -0.2,0.5 -0.5,0.5 C 43.2,7.4 43,7.2 43,7 c 0,-0.3 0.2,-0.5 0.5,-0.5 0.2,0 0.4,0.2 0.4,0.5 z m -0.3,1.1 c 0,0.3 -0.2,0.5 -0.5,0.5 -0.3,0 -0.5,-0.2 -0.5,-0.5 0,-0.3 0.2,-0.5 0.5,-0.5 0.2,0 0.5,0.2 0.5,0.5 z M 43.2,9.3 C 43.2,9.6 43,9.8 42.7,9.8 42.4,9.8 42.2,9.6 42.2,9.3 42.2,9 42.4,8.8 42.7,8.8 43,8.7 43.2,9 43.2,9.3 Z m -0.3,1.1 c 0,0.3 -0.3,0.6 -0.6,0.6 -0.3,0 -0.6,-0.3 -0.6,-0.6 0,-0.3 0.3,-0.6 0.6,-0.6 0.3,0.1 0.6,0.3 0.6,0.6 z M 44.1,0.6 C 44,0.6 43.9,0.7 43.9,0.8 43.9,0.9 44,1 44.1,1 44.2,1 44.3,0.9 44.3,0.8 44.3,0.7 44.2,0.6 44.1,0.6 Z M 44,1.9 c 0,0.1 -0.1,0.3 -0.3,0.3 -0.1,0 -0.3,-0.1 -0.3,-0.3 0,-0.1 0.1,-0.3 0.3,-0.3 0.2,0.1 0.3,0.2 0.3,0.3 z m -0.3,1.2 c 0,0.2 -0.1,0.3 -0.3,0.3 -0.2,0 -0.3,-0.1 -0.3,-0.3 0,-0.2 0.1,-0.3 0.3,-0.3 0.2,0 0.3,0.1 0.3,0.3 z m -0.3,1.1 c 0,0.2 -0.2,0.4 -0.4,0.4 -0.2,0 -0.4,-0.2 -0.4,-0.4 0,-0.2 0.2,-0.4 0.4,-0.4 0.2,0.1 0.4,0.2 0.4,0.4 z m -0.3,1.2 c 0,0.2 -0.2,0.4 -0.4,0.4 -0.2,0 -0.4,-0.2 -0.4,-0.4 0,-0.2 0.2,-0.4 0.4,-0.4 0.2,0 0.4,0.2 0.4,0.4 z m -0.4,1.2 c 0,0.3 -0.2,0.5 -0.5,0.5 -0.3,0 -0.5,-0.2 -0.5,-0.5 0,-0.3 0.2,-0.5 0.5,-0.5 0.3,0 0.5,0.2 0.5,0.5 z m -0.3,1.1 c 0,0.3 -0.2,0.5 -0.5,0.5 -0.3,0 -0.5,-0.2 -0.5,-0.5 0,-0.3 0.2,-0.5 0.5,-0.5 0.3,0 0.5,0.2 0.5,0.5 z M 42,8.9 C 42,9.2 41.8,9.4 41.5,9.4 41.2,9.4 41,9.2 41,8.9 41,8.6 41.2,8.4 41.5,8.4 41.8,8.3 42,8.6 42,8.9 Z M 41.7,10 c 0,0.3 -0.3,0.6 -0.6,0.6 -0.3,0 -0.6,-0.3 -0.6,-0.6 0,-0.3 0.3,-0.6 0.6,-0.6 0.3,0.1 0.6,0.3 0.6,0.6 z m 0.9,-8.6 c -0.1,0 -0.2,0.1 -0.2,0.2 0,0.1 0.1,0.2 0.2,0.2 0.1,0 0.2,-0.1 0.2,-0.2 0,-0.1 -0.1,-0.2 -0.2,-0.2 z M 42.5,2.7 C 42.5,2.8 42.4,3 42.2,3 42.1,3 42,2.9 42,2.7 c 0,-0.1 0.1,-0.3 0.3,-0.3 0.1,0.1 0.2,0.2 0.2,0.3 z m -0.3,1.2 c 0,0.2 -0.1,0.3 -0.3,0.3 -0.2,0 -0.3,-0.1 -0.3,-0.3 0,-0.2 0.1,-0.3 0.3,-0.3 0.1,-0.1 0.3,0.1 0.3,0.3 z M 41.9,5 c 0,0.2 -0.2,0.4 -0.4,0.4 -0.2,0 -0.4,-0.2 -0.4,-0.4 0,-0.2 0.2,-0.4 0.4,-0.4 0.2,0 0.4,0.2 0.4,0.4 z m -0.4,1.2 c 0,0.2 -0.2,0.4 -0.4,0.4 -0.2,0 -0.4,-0.2 -0.4,-0.4 0,-0.2 0.2,-0.4 0.4,-0.4 0.2,0 0.4,0.2 0.4,0.4 z m -0.3,1.2 c 0,0.3 -0.2,0.5 -0.5,0.5 -0.3,0 -0.5,-0.2 -0.5,-0.5 0,-0.3 0.2,-0.5 0.5,-0.5 0.3,0 0.5,0.2 0.5,0.5 z M 40.8,8.5 C 40.8,8.8 40.6,9 40.3,9 40,9 39.8,8.8 39.8,8.5 39.8,8.2 40,8 40.3,8 c 0.3,0 0.5,0.2 0.5,0.5 z M 41.4,1 c -0.1,0 -0.2,0.1 -0.2,0.2 0,0.1 0.1,0.2 0.2,0.2 0.1,0 0.2,-0.1 0.2,-0.2 0,-0.1 0,-0.2 -0.2,-0.2 z M 41.3,2.3 C 41.3,2.4 41.2,2.6 41,2.6 40.9,2.6 40.7,2.5 40.7,2.3 40.7,2.2 40.8,2 41,2 c 0.2,0.1 0.3,0.2 0.3,0.3 z M 41,3.5 c 0,0.2 -0.1,0.3 -0.3,0.3 -0.2,0 -0.3,-0.1 -0.3,-0.3 0,-0.2 0.1,-0.3 0.3,-0.3 0.2,0 0.3,0.1 0.3,0.3 z m -0.3,1.2 c 0,0.2 -0.2,0.4 -0.4,0.4 -0.2,0 -0.4,-0.2 -0.4,-0.4 0,-0.2 0.2,-0.4 0.4,-0.4 0.2,0 0.4,0.1 0.4,0.4 z M 40.4,5.8 C 40.4,6 40.2,6.2 40,6.2 39.8,6.2 39.6,6 39.6,5.8 c 0,-0.2 0.2,-0.4 0.4,-0.4 0.2,0 0.4,0.2 0.4,0.4 z M 40.1,7 c 0,0.3 -0.2,0.5 -0.5,0.5 -0.3,0 -0.5,-0.3 -0.5,-0.5 0,-0.3 0.2,-0.5 0.5,-0.5 0.2,0 0.5,0.2 0.5,0.5 z m -0.4,1.1 c 0,0.3 -0.2,0.5 -0.5,0.5 -0.3,0 -0.5,-0.2 -0.5,-0.5 0,-0.3 0.2,-0.5 0.5,-0.5 0.3,0 0.5,0.2 0.5,0.5 z m 0.6,-7.5 c -0.1,0 -0.2,0.1 -0.2,0.2 0,0.1 0.1,0.2 0.2,0.2 0.1,0 0.2,-0.1 0.2,-0.2 0,-0.1 -0.1,-0.2 -0.2,-0.2 z M 40.2,2 c 0,0.1 -0.1,0.3 -0.3,0.3 -0.1,0 -0.3,-0.1 -0.3,-0.3 0,-0.1 0.1,-0.3 0.3,-0.3 0.2,0 0.3,0.1 0.3,0.3 z m -0.3,1.1 c 0,0.2 -0.1,0.3 -0.3,0.3 -0.2,0 -0.3,-0.1 -0.3,-0.3 0,-0.2 0.1,-0.3 0.3,-0.3 0.1,0 0.3,0.1 0.3,0.3 z m -0.3,1.2 c 0,0.2 -0.2,0.4 -0.4,0.4 -0.2,0 -0.4,-0.2 -0.4,-0.4 0,-0.2 0.2,-0.4 0.4,-0.4 0.2,0 0.4,0.2 0.4,0.4 z m -0.4,1.1 c 0,0.2 -0.2,0.4 -0.4,0.4 -0.2,0 -0.4,-0.2 -0.4,-0.4 0,-0.2 0.2,-0.4 0.4,-0.4 0.2,0 0.4,0.2 0.4,0.4 z m -0.3,1.2 c 0,0.3 -0.2,0.5 -0.5,0.5 -0.3,0 -0.4,-0.2 -0.4,-0.5 0,-0.3 0.2,-0.5 0.5,-0.5 0.2,0 0.4,0.2 0.4,0.5 z M 38.8,1.4 c -0.1,0 -0.2,0.1 -0.2,0.2 0,0.1 0.1,0.2 0.2,0.2 C 38.9,1.8 39,1.7 39,1.6 39,1.5 38.9,1.4 38.8,1.4 Z M 38.7,2.7 C 38.7,2.8 38.6,3 38.4,3 38.2,3 38.1,2.9 38.1,2.7 c 0,-0.1 0.1,-0.3 0.3,-0.3 0.1,0.1 0.3,0.2 0.3,0.3 z m -0.4,1.2 c 0,0.2 -0.1,0.3 -0.3,0.3 -0.2,0 -0.3,-0.1 -0.3,-0.3 0,-0.2 0.1,-0.3 0.3,-0.3 0.2,-0.1 0.3,0.1 0.3,0.3 z M 38,5 c 0,0.2 -0.2,0.4 -0.4,0.4 -0.2,0 -0.4,-0.2 -0.4,-0.4 0,-0.2 0.2,-0.4 0.4,-0.4 0.3,0 0.4,0.2 0.4,0.4 z m -0.3,1.2 c 0,0.2 -0.2,0.4 -0.4,0.4 -0.2,0 -0.4,-0.2 -0.4,-0.4 0,-0.2 0.2,-0.4 0.4,-0.4 0.2,0 0.4,0.2 0.4,0.4 z M 37.6,1.1 c -0.1,0 -0.2,0.1 -0.2,0.2 0,0.1 0.1,0.2 0.2,0.2 0.1,0 0.2,-0.1 0.2,-0.2 0,-0.1 -0.1,-0.2 -0.2,-0.2 z m -0.1,1.3 c 0,0.1 -0.1,0.3 -0.3,0.3 -0.1,0 -0.3,-0.1 -0.3,-0.3 0,-0.2 0.1,-0.3 0.3,-0.3 0.2,0 0.3,0.2 0.3,0.3 z m -0.3,1.2 c 0,0.2 -0.1,0.3 -0.3,0.3 -0.2,0 -0.3,-0.1 -0.3,-0.3 0,-0.2 0.1,-0.3 0.3,-0.3 0.1,-0.1 0.3,0.1 0.3,0.3 z m -0.3,1.1 c 0,0.2 -0.2,0.4 -0.4,0.4 -0.2,0 -0.4,-0.2 -0.4,-0.4 0,-0.2 0.2,-0.4 0.4,-0.4 0.2,0 0.4,0.2 0.4,0.4 z m -0.5,-4 c -0.1,0 -0.2,0.1 -0.2,0.2 0,0.1 0.1,0.2 0.2,0.2 0.1,0 0.2,-0.1 0.2,-0.2 0,-0.1 -0.1,-0.2 -0.2,-0.2 z M 36.3,2 c 0,0.1 -0.1,0.3 -0.3,0.3 -0.1,0 -0.3,-0.1 -0.3,-0.3 0,-0.1 0.1,-0.3 0.3,-0.3 0.2,0 0.3,0.2 0.3,0.3 z M 36,3.2 C 36,3.4 35.9,3.5 35.7,3.5 35.5,3.5 35.4,3.4 35.4,3.2 35.4,3 35.5,2.9 35.7,2.9 35.9,2.8 36,3 36,3.2 Z m -0.3,1.1 c 0,0.2 -0.2,0.4 -0.4,0.4 -0.2,0 -0.4,-0.2 -0.4,-0.4 0,-0.2 0.2,-0.4 0.4,-0.4 0.2,0 0.4,0.2 0.4,0.4 z M 34.9,1.4 c -0.1,0 -0.2,0.1 -0.2,0.2 0,0.1 0.1,0.2 0.2,0.2 0.1,0 0.2,-0.1 0.2,-0.2 0,-0.1 -0.1,-0.2 -0.2,-0.2 z m -0.1,1.4 c 0,0.1 -0.1,0.3 -0.3,0.3 -0.1,0 -0.3,-0.1 -0.3,-0.3 0,-0.1 0.1,-0.3 0.3,-0.3 0.2,0 0.3,0.1 0.3,0.3 z m -1,-1.7 c -0.1,0 -0.2,0.1 -0.2,0.2 0,0.1 0.1,0.2 0.2,0.2 C 33.9,1.5 34,1.4 34,1.3 34,1.2 33.9,1.1 33.8,1.1 Z m -0.1,1.3 c 0,0.1 -0.1,0.3 -0.3,0.3 -0.2,0 -0.3,-0.1 -0.3,-0.3 0,-0.1 0.1,-0.3 0.3,-0.3 0.2,0 0.3,0.2 0.3,0.3 z M 32.6,0.7 c -0.1,0 -0.2,0.1 -0.2,0.2 0,0.1 0.1,0.2 0.2,0.2 0.1,0 0.2,-0.1 0.2,-0.2 0,-0.1 -0.1,-0.2 -0.2,-0.2 z M 32.5,2 c 0,0.1 -0.1,0.3 -0.3,0.3 C 32.1,2.3 32,2.2 32,2 32,1.8 32.1,1.7 32.3,1.7 32.4,1.8 32.5,1.9 32.5,2 Z M 31,0.6 c -0.1,0 -0.2,0.1 -0.2,0.2 0,0.1 0.1,0.2 0.2,0.2 0.1,0 0.2,-0.1 0.2,-0.2 0,-0.1 -0.1,-0.2 -0.2,-0.2 z m 3.2,3.7 c 0,0 0,0 0,0 0.2,0 0.3,-0.1 0.3,-0.3 0,-0.2 -0.1,-0.3 -0.3,-0.3 -0.2,0 -0.3,0.1 -0.3,0.3 0,0 0,0 0,0 z m 1.2,1.2 C 35.4,5.3 35.2,5.1 35,5.1 Z m 0.8,0.8 c 0.2,0 0.3,-0.2 0.3,-0.4 0,-0.2 -0.2,-0.4 -0.4,-0.4 -0.2,0 -0.4,0.1 -0.4,0.3 z m 1.2,1.2 c 0,0 0,-0.1 0,-0.1 0,-0.3 -0.2,-0.5 -0.5,-0.5 0,0 -0.1,0 -0.1,0 z m 0.7,0.7 c 0.2,0 0.4,-0.2 0.4,-0.5 0,-0.3 -0.2,-0.5 -0.5,-0.5 -0.3,0 -0.5,0.2 -0.5,0.4 z m 1.2,1.3 c 0,-0.1 0,-0.1 0,-0.2 0,-0.3 -0.2,-0.5 -0.5,-0.5 -0.1,0 -0.1,0 -0.2,0 z M 40,9.1 c -0.3,0 -0.5,0.2 -0.5,0.4 l 0.6,0.6 c 0.2,0 0.4,-0.3 0.4,-0.5 0,-0.2 -0.2,-0.5 -0.5,-0.5 z m 1.3,2.3 c 0,-0.1 0,-0.1 0,-0.2 0,-0.3 -0.3,-0.6 -0.6,-0.6 -0.1,0 -0.2,0 -0.2,0 z M 41.9,11 c -0.3,0 -0.5,0.2 -0.6,0.5 l 0.7,0.7 c 0.3,-0.1 0.5,-0.3 0.5,-0.6 0,-0.3 -0.3,-0.6 -0.6,-0.6 z m 1.3,2.3 c 0,-0.1 0,-0.1 0,-0.2 0,-0.3 -0.3,-0.6 -0.6,-0.6 -0.1,0 -0.1,0 -0.2,0 z M 62.4,9.1 c 0,-0.3 -0.2,-0.5 -0.5,-0.5 -0.3,0 -0.5,0.2 -0.5,0.5 0,0.3 0.2,0.5 0.5,0.5 0.3,0 0.5,-0.2 0.5,-0.5 z M 62.2,8.4 c -0.3,0 -0.5,-0.2 -0.5,-0.5 0,-0.3 0.2,-0.5 0.5,-0.5 0.3,0 0.5,0.2 0.5,0.5 0,0.3 -0.2,0.5 -0.5,0.5 z m -1.1,2.4 c 0.3,0 0.6,0.3 0.6,0.6 0,0.3 -0.3,0.6 -0.6,0.6 -0.3,0 -0.6,-0.3 -0.6,-0.6 0,-0.3 0.3,-0.6 0.6,-0.6 z M 63.4,3.3 C 63.4,3.1 63.5,3 63.7,3 63.9,3 64,3.1 64,3.3 64,3.5 63.9,3.6 63.7,3.6 63.5,3.7 63.4,3.5 63.4,3.3 Z m 0,0.8 c 0.2,0 0.4,0.2 0.4,0.4 0,0.2 -0.2,0.4 -0.4,0.4 C 63.2,4.9 63,4.7 63,4.5 63,4.3 63.2,4.1 63.4,4.1 Z m -0.4,2 c -0.2,0 -0.4,-0.2 -0.4,-0.4 0,-0.2 0.2,-0.4 0.4,-0.4 0.2,0 0.4,0.2 0.4,0.4 0,0.2 -0.2,0.4 -0.4,0.4 z m -1.5,4.7 c -0.3,0 -0.6,-0.3 -0.6,-0.6 0,-0.3 0.3,-0.6 0.6,-0.6 0.3,0 0.6,0.3 0.6,0.6 -0.1,0.4 -0.3,0.6 -0.6,0.6 z m 1.1,-3.5 c -0.3,0 -0.5,-0.2 -0.5,-0.5 0,-0.3 0.2,-0.5 0.5,-0.5 0.3,0 0.5,0.2 0.5,0.5 0,0.3 -0.2,0.5 -0.5,0.5 z m 1.3,-5.1 c 0,-0.1 0.1,-0.3 0.3,-0.3 0.1,0 0.3,0.1 0.3,0.3 0,0.1 -0.1,0.3 -0.3,0.3 C 64,2.4 63.9,2.3 63.9,2.2 Z M 64.3,1 c 0,-0.1 0.1,-0.2 0.2,-0.2 0.1,0 0.2,0.1 0.2,0.2 0,0.1 -0.1,0.2 -0.2,0.2 -0.1,0 -0.2,-0.1 -0.2,-0.2 z m -4.5,8.9 c 0,-0.3 0.2,-0.5 0.5,-0.5 0.3,0 0.5,0.2 0.5,0.5 0,0.3 -0.2,0.5 -0.5,0.5 -0.3,0 -0.5,-0.2 -0.5,-0.5 z m 0.4,-1.2 c 0,-0.3 0.2,-0.5 0.5,-0.5 0.3,0 0.5,0.2 0.5,0.5 C 61.2,9 61,9.2 60.7,9.2 60.4,9.2 60.2,9 60.2,8.7 Z M 59.4,11 c 0,-0.3 0.3,-0.6 0.6,-0.6 0.3,0 0.6,0.3 0.6,0.6 0,0.3 -0.3,0.6 -0.6,0.6 -0.4,0 -0.6,-0.3 -0.6,-0.6 z m 1.2,-3.4 c 0,-0.3 0.2,-0.5 0.5,-0.5 0.3,0 0.5,0.2 0.5,0.5 0,0.3 -0.2,0.5 -0.5,0.5 -0.3,0 -0.5,-0.3 -0.5,-0.5 z M 59,12.2 c 0,-0.3 0.3,-0.6 0.6,-0.6 0.3,0 0.6,0.3 0.6,0.6 0,0.3 -0.3,0.6 -0.6,0.6 -0.3,0 -0.6,-0.3 -0.6,-0.6 z m 3.3,-9.3 c 0,-0.1 0.1,-0.3 0.3,-0.3 0.1,0 0.3,0.1 0.3,0.3 0,0.2 -0.1,0.3 -0.3,0.3 -0.1,0 -0.3,-0.1 -0.3,-0.3 z M 61,6.4 C 61,6.2 61.2,6 61.5,6 c 0.2,0 0.4,0.2 0.4,0.4 0,0.2 -0.2,0.4 -0.4,0.4 C 61.2,6.9 61,6.7 61,6.4 Z m 1.8,-4.6 c 0,-0.1 0.1,-0.2 0.2,-0.2 0.1,0 0.2,0.1 0.2,0.2 C 63.2,1.9 63.1,2 63,2 62.9,2 62.8,1.9 62.8,1.8 Z m -0.9,2.3 c 0,-0.2 0.1,-0.3 0.3,-0.3 0.2,0 0.3,0.1 0.3,0.3 0,0.2 -0.1,0.3 -0.3,0.3 -0.2,0 -0.3,-0.1 -0.3,-0.3 z m -0.4,1.2 c 0,-0.2 0.2,-0.4 0.4,-0.4 0.2,0 0.4,0.2 0.4,0.4 0,0.2 -0.2,0.4 -0.4,0.4 C 61.6,5.6 61.5,5.5 61.5,5.3 Z m 8.7,7.5 c 0,-0.3 -0.3,-0.6 -0.6,-0.6 -0.2,0 -0.4,0.1 -0.5,0.3 0,0 0,0 0,0 0,-0.3 -0.3,-0.6 -0.6,-0.6 -0.2,0 -0.4,0.1 -0.5,0.3 0,0 0,0 0,-0.1 0,-0.3 -0.3,-0.6 -0.6,-0.6 -0.3,0 -0.6,0.3 -0.6,0.6 0,0.2 0.1,0.4 0.3,0.5 0,0 0,0 0,0 -0.2,0 -0.4,0.1 -0.6,0.3 0,0 0,0 0,0 0,-0.3 -0.3,-0.6 -0.6,-0.6 -0.3,0 -0.6,0.3 -0.6,0.6 0,0.2 0.1,0.4 0.3,0.5 0,0 0,0 0,0 -0.2,0 -0.4,0.1 -0.5,0.3 0,0 0,0 0,0 0,-0.2 -0.1,-0.4 -0.3,-0.5 0,0 0,0 0,0 0.3,0 0.6,-0.3 0.6,-0.6 0,-0.3 -0.3,-0.6 -0.6,-0.6 -0.3,0 -0.6,0.3 -0.6,0.6 0,0.2 0.1,0.4 0.3,0.5 0,0 0,0 0,0 -0.2,0 -0.4,0.1 -0.5,0.3 0,0 0,0 0,0 0,-0.3 -0.3,-0.6 -0.6,-0.6 -0.3,0 -0.5,0.2 -0.6,0.4 0,0 0,-0.1 0,-0.1 0,-0.3 -0.3,-0.6 -0.6,-0.6 -0.3,0 -0.5,0.2 -0.6,0.4 0,0 0,-0.1 0,-0.1 0,-0.3 -0.3,-0.6 -0.6,-0.6 -0.3,0 -0.6,0.3 -0.6,0.6 0,0.2 0.1,0.4 0.3,0.5 0,0 0,0 0,0 -0.2,0 -0.4,0.1 -0.5,0.3 0,0 0,0 0,0 0,-0.3 -0.3,-0.6 -0.6,-0.6 -0.2,0 -0.5,0.1 -0.6,0.3 0,0 0,-0.1 0,-0.1 0,-0.3 -0.3,-0.6 -0.6,-0.6 -0.2,0 -0.4,0.1 -0.5,0.3 0,0 0,0 0,0 0,-0.3 -0.3,-0.6 -0.6,-0.6 -0.2,0 -0.5,0.1 -0.6,0.3 0,0 0,-0.1 0,-0.1 0,-0.3 -0.3,-0.6 -0.6,-0.6 -0.3,0 -0.6,0.3 -0.6,0.6 0,0.2 0.1,0.4 0.3,0.5 0,0 0,0 0,0 -0.2,0 -0.5,0.1 -0.6,0.3 0,0 0,0 0,-0.1 0,-0.3 -0.3,-0.6 -0.6,-0.6 -0.2,0 -0.4,0.1 -0.5,0.3 0,0 0,-0.1 0,-0.1 0,-0.3 -0.3,-0.6 -0.6,-0.6 -0.3,0 -0.6,0.3 -0.6,0.6 0,0.2 0.1,0.4 0.3,0.5 0,0 0,0 0,0 -0.2,0 -0.4,0.1 -0.5,0.3 0,0 0,0 0,0 0,-0.2 -0.1,-0.4 -0.3,-0.5 0,0 0,0 0,0 0.3,0 0.6,-0.3 0.6,-0.6 0,-0.3 -0.3,-0.6 -0.6,-0.6 -0.3,0 -0.6,0.3 -0.6,0.6 0,0.2 0.1,0.4 0.3,0.5 0,0 0,0 0,0 -0.2,0 -0.4,0.1 -0.5,0.3 0,0 0,0 0,0 0,-0.3 -0.3,-0.6 -0.6,-0.6 -0.2,0 -0.4,0.1 -0.5,0.3 0,0 0,0 0,0 0,-0.3 -0.3,-0.6 -0.6,-0.6 -0.2,0 -0.5,0.1 -0.6,0.3 0,0 0,-0.1 0,-0.1 0,-0.3 -0.3,-0.6 -0.6,-0.6 -0.3,0 -0.6,0.3 -0.6,0.6 0,0.2 0.1,0.4 0.3,0.5 0,0 0,0 0,0 -0.2,0 -0.5,0.1 -0.6,0.3 0,0 0,0 0,-0.1 0,-0.3 -0.3,-0.6 -0.6,-0.6 -0.3,0 -0.6,0.3 -0.6,0.6 0,0.2 0.1,0.4 0.3,0.5 0,0 0,0 0,0 -0.3,0 -0.5,0.2 -0.6,0.4 0,0 0,-0.1 0,-0.1 0,-0.2 -0.1,-0.4 -0.3,-0.5 0,0 0,0 0,0 0.3,0 0.6,-0.3 0.6,-0.6 0,-0.3 -0.3,-0.6 -0.6,-0.6 -0.2,0 -0.4,0.1 -0.5,0.2 0,-0.3 -0.3,-0.6 -0.6,-0.6 -0.3,0 -0.6,0.3 -0.6,0.6 0,0.2 0.1,0.4 0.3,0.5 0,0 0,0 0,0 -0.3,0 -0.6,0.2 -0.6,0.5 l 0.8,0.8 c 0.1,0 0.2,-0.1 0.3,-0.2 0,0.2 0.1,0.3 0.2,0.4 -0.1,0 -0.2,0 -0.3,0.1 0,0 1.8,1.8 1.9,1.9 L 57.5,27.1 C 57.9,27 68.6,15.9 68.6,15.9 c 0,-0.1 -0.1,-0.2 -0.2,-0.2 0.2,0 0.3,-0.1 0.4,-0.2 0,0.1 0,0.1 0.1,0.2 l 1.6,-1.6 c 0,-0.1 -0.1,-0.3 -0.3,-0.4 0,0 0,0 0,0 -0.3,-0.3 0,-0.5 0,-0.9 z M 45,13.2 c -0.2,0 -0.4,0.1 -0.5,0.2 0,-0.2 -0.1,-0.3 -0.3,-0.4 0,0 0,0 0,0 0.2,0 0.4,-0.1 0.5,-0.2 0,0.1 0.1,0.3 0.3,0.4 0,0 0,0 0,0 z m 0.2,1.8 c 0,0 0,0 0,0 0,-0.2 -0.1,-0.4 -0.3,-0.5 0.3,0 0.5,-0.2 0.6,-0.4 0,0 0,0.1 0,0.1 0,0.2 0.1,0.4 0.2,0.5 -0.2,0 -0.3,0.1 -0.5,0.3 z m 20.5,-1.5 c 0.2,0 0.4,-0.1 0.5,-0.3 0,0 0,0 0,0.1 0,0.2 0.1,0.4 0.2,0.5 -0.2,0 -0.4,0.1 -0.5,0.2 0.1,-0.2 0,-0.4 -0.2,-0.5 0,0 0,0 0,0 z m -1,0.5 c 0,0 0,0.1 0,0 0,0.2 0.1,0.4 0.2,0.5 -0.2,0 -0.4,0.1 -0.5,0.2 0,-0.2 -0.1,-0.4 -0.3,-0.5 0.3,0.1 0.5,0 0.6,-0.2 z m -0.4,1.3 c 0,0.2 0.1,0.3 0.2,0.4 -0.1,0 -0.3,0.1 -0.4,0.2 0,-0.2 -0.1,-0.3 -0.2,-0.4 0.2,0 0.3,-0.1 0.4,-0.2 z M 63,13.9 c 0.2,0 0.4,-0.1 0.5,-0.3 0,0 0,0 0,0 0,0.2 0.1,0.4 0.2,0.5 -0.2,0 -0.4,0.1 -0.5,0.2 0.1,-0.1 0,-0.3 -0.2,-0.4 0,0 0,0 0,0 z m 0.1,1 c 0,0.2 0.1,0.3 0.2,0.4 -0.2,0 -0.3,0.1 -0.4,0.2 0,-0.2 -0.1,-0.3 -0.2,-0.4 0.2,0 0.3,-0.1 0.4,-0.2 z m -0.3,5.3 c -0.1,0 -0.1,0 0,0 -0.1,0 -0.1,0 0,0 -0.1,0 -0.1,-0.1 0,0 -0.1,0 -0.1,0 0,0 z m 0,-4.1 c 0,0.1 0.1,0.3 0.2,0.4 -0.1,0 -0.2,0.1 -0.3,0.2 0,-0.1 -0.1,-0.2 -0.2,-0.3 0,-0.2 0.2,-0.2 0.3,-0.3 z m -0.4,1.2 c 0,0.1 0.1,0.2 0.1,0.3 -0.1,0 -0.2,0.1 -0.2,0.1 0,-0.1 -0.1,-0.2 -0.2,-0.2 0.1,-0.1 0.2,-0.1 0.3,-0.2 z m -0.5,-3.8 c 0.3,0 0.5,-0.2 0.6,-0.4 0,0 0,0.1 0,0.1 0,0.2 0.1,0.4 0.3,0.5 0,0 0,0 0,0 -0.2,0 -0.4,0.1 -0.5,0.3 0,0 0,0 0,0 -0.1,-0.1 -0.2,-0.3 -0.4,-0.5 0,0 0,0 0,0 z m 0.1,0.9 c 0,0 0,0 0,0 0,0.2 0.1,0.4 0.2,0.5 -0.2,0 -0.4,0.1 -0.5,0.2 0,-0.2 -0.1,-0.4 -0.2,-0.5 0.3,0.1 0.4,0 0.5,-0.2 z m -0.5,1.9 c 0,-0.1 -0.1,-0.3 -0.2,-0.4 0.2,0 0.3,-0.1 0.4,-0.2 0,0.2 0.1,0.3 0.2,0.4 -0.2,0 -0.3,0.1 -0.4,0.2 z m -0.1,0.9 c -0.1,0 -0.2,0.1 -0.3,0.1 0,-0.1 -0.1,-0.2 -0.2,-0.3 0.1,0 0.2,-0.1 0.3,-0.2 0.1,0.2 0.1,0.3 0.2,0.4 z m -0.2,3.9 v 0 c 0,0 0,-0.1 -0.1,-0.1 0,0 0,0 0,0 0.1,0 0.1,0 0.1,0.1 z m -1.5,0.7 c 0,0 -0.1,0 -0.1,0 0,0 0,0 0,-0.1 0,0.1 0,0.1 0.1,0.1 0,0 0,0 0,0 z m -3.9,0.1 c 0,0 0,0 0,0 -0.1,0 -0.1,0 -0.1,0 0.1,-0.1 0.1,-0.1 0.1,0 0,-0.1 0,-0.1 0,0 z m -1.1,-0.4 c 0,0 -0.1,0 -0.1,0 0,0 0,0 0,0 0,0 0.1,0 0.1,0 0,0 0,0 0,0 z m -1.2,-0.3 c 0,0 0,0 0,0 -0.1,0 -0.1,0 -0.1,0 0.1,-0.1 0.1,-0.1 0.1,0 0,-0.1 0,-0.1 0,0 z m -1.1,-0.4 c 0,0 0,0 0,0 0,0 -0.1,-0.1 -0.1,-0.1 0,0 0,0 0,0 0,0 0.1,0 0.1,0.1 z m -0.6,-2.9 c 0.1,0 0.1,-0.1 0.2,-0.1 0,0.1 0.1,0.2 0.1,0.2 -0.1,0 -0.1,0.1 -0.2,0.1 0,0 0,-0.1 -0.1,-0.2 z m 0.8,-1 c -0.1,0 -0.2,0.1 -0.3,0.1 0,-0.1 -0.1,-0.2 -0.2,-0.3 0.1,0 0.2,-0.1 0.3,-0.2 0,0.2 0.1,0.3 0.2,0.4 z m 0,2.6 c 0,0 0.1,0 0.1,-0.1 0,0 0,0.1 0,0.1 0,0 -0.1,0 -0.1,0.1 0.1,0 0,-0.1 0,-0.1 z M 53,18.3 c 0.1,0 0.1,-0.1 0.2,-0.1 0,0.1 0,0.1 0.1,0.2 -0.1,0 -0.1,0.1 -0.2,0.1 C 53,18.4 53,18.4 53,18.3 Z m 1.2,0.4 c 0.1,0 0.1,-0.1 0.2,-0.1 0,0.1 0,0.1 0.1,0.2 -0.1,0 -0.1,0 -0.2,0.1 -0.1,-0.1 -0.1,-0.1 -0.1,-0.2 z m 0.9,-2.5 c 0,0.1 0.1,0.2 0.2,0.3 -0.1,0 -0.2,0.1 -0.3,0.1 0,-0.1 -0.1,-0.2 -0.2,-0.3 0.1,0.1 0.2,0 0.3,-0.1 z m 1.5,-0.8 c 0,0.1 0.1,0.3 0.2,0.4 -0.1,0 -0.3,0.1 -0.4,0.2 0,-0.1 -0.1,-0.2 -0.2,-0.3 0.2,-0.1 0.4,-0.2 0.4,-0.3 z m 1.2,0.3 c 0,0.2 0.1,0.3 0.2,0.4 -0.1,0 -0.3,0.1 -0.4,0.2 0,-0.1 -0.1,-0.3 -0.2,-0.4 0.2,0 0.3,-0.1 0.4,-0.2 z m 1.3,3.3 c 0.1,0 0.1,-0.1 0.2,-0.1 0,0.1 0,0.1 0.1,0.1 -0.1,0 -0.1,0.1 -0.2,0.1 0,0 0,0 -0.1,-0.1 z m 0.6,-1.2 c 0,0.1 0.1,0.2 0.1,0.2 -0.1,0 -0.1,0.1 -0.2,0.1 0,-0.1 -0.1,-0.1 -0.1,-0.2 0.1,-0.1 0.1,-0.1 0.2,-0.1 z m -0.8,2.4 c 0,0 0,0.1 0,0 -0.1,0 -0.1,0 -0.1,0 0,0 0.1,0 0.1,0 0,0 0,0 0,0 z m 0,-4.1 c 0,0.1 0.1,0.3 0.2,0.4 -0.1,0 -0.2,0.1 -0.3,0.1 0,-0.1 -0.1,-0.2 -0.2,-0.3 0.1,0 0.2,-0.1 0.3,-0.2 z m -0.4,1.3 c 0,0.1 0.1,0.2 0.1,0.3 -0.1,0 -0.2,0.1 -0.2,0.1 0,-0.1 -0.1,-0.2 -0.2,-0.3 0.1,0 0.2,-0.1 0.3,-0.1 z m -0.4,1.2 c 0,0.1 0,0.1 0.1,0.2 -0.1,0 -0.1,0 -0.2,0.1 0,-0.1 -0.1,-0.1 -0.1,-0.2 0.1,-0.1 0.2,-0.1 0.2,-0.1 z m -0.3,1.3 c -0.1,0 -0.1,0 0,0 -0.1,0 -0.1,0 -0.2,0 0.1,-0.1 0.1,-0.1 0.2,0 -0.1,-0.1 -0.1,-0.1 0,0 z M 57.3,21 c 0,0 0,0 0,0 0,0 0,0 0,0 z m 0.1,-4.1 c 0,0.1 0.1,0.2 0.2,0.3 -0.1,0 -0.2,0.1 -0.3,0.1 0,-0.1 -0.1,-0.2 -0.2,-0.3 0.1,0.1 0.2,0 0.3,-0.1 z M 57,18.2 c 0,0.1 0.1,0.2 0.1,0.2 -0.1,0 -0.1,0.1 -0.2,0.1 0,-0.1 -0.1,-0.1 -0.1,-0.2 0.1,-0.1 0.1,-0.1 0.2,-0.1 z m -0.3,1.3 c -0.1,0 -0.1,0 -0.2,0.1 0,-0.1 0,-0.1 -0.1,-0.1 0.1,0 0.1,-0.1 0.2,-0.1 0,0 0.1,0.1 0.1,0.1 z m -0.4,-2.9 c 0,0.1 0.1,0.2 0.2,0.3 -0.1,0 -0.2,0.1 -0.3,0.2 0,-0.1 -0.1,-0.2 -0.2,-0.3 0.1,-0.1 0.2,-0.1 0.3,-0.2 z m -0.4,1.2 c 0,0.1 0.1,0.1 0.1,0.2 -0.1,0 -0.1,0.1 -0.2,0.1 0,-0.1 -0.1,-0.1 -0.1,-0.2 0,0 0.1,0 0.2,-0.1 z M 55.5,19 c 0,0 0,0.1 0.1,0.1 -0.1,0 -0.1,0.1 -0.2,0.1 0,0 0,-0.1 -0.1,-0.1 0.1,0 0.1,0 0.2,-0.1 z m -0.4,1.3 c 0,0 -0.1,0 0,0 -0.1,0 -0.1,0 0,0 -0.1,-0.1 0,-0.1 0,0 0,-0.1 0,-0.1 0,0 z m -0.4,-2.9 c 0,0.1 0.1,0.2 0.1,0.2 -0.1,0 -0.1,0.1 -0.2,0.1 0,-0.1 -0.1,-0.1 -0.1,-0.2 0.1,0 0.1,0 0.2,-0.1 z m -0.8,2.5 c 0,0 0,0 0,0 0,0 0,0 0,0 0,0 0,0 0,0 0,0 0,0 0,0 z m 0,-4.1 c 0,0.2 0.1,0.3 0.2,0.4 -0.1,0 -0.2,0.1 -0.3,0.2 0,-0.1 -0.1,-0.3 -0.2,-0.4 0.1,-0.1 0.2,-0.1 0.3,-0.2 z M 53.5,17 c 0,0.1 0.1,0.2 0.1,0.3 -0.1,0 -0.2,0.1 -0.2,0.1 0,-0.1 -0.1,-0.2 -0.2,-0.3 0.2,0 0.3,0 0.3,-0.1 z m 2.7,3.6 c 0,0 0,0 0,0 0,0 0,0 0,0 0,0.1 0,0.1 0,0 0,0 0,0 0,0 z m 2.2,0.9 c 0,0 0.1,0 0.1,-0.1 0,0 0,0 0,0 0,0.1 -0.1,0.1 -0.1,0.1 0,0 0,0 0,0 z M 60,20.6 c 0,0 0,-0.1 0,0 0.1,0 0.1,0 0,0 0.1,0 0,0 0,0 0,0 0,0 0,0 z m 0.3,-1.2 c 0.1,0 0.1,-0.1 0.2,-0.1 0,0.1 0,0.1 0.1,0.2 -0.1,0 -0.1,0 -0.2,0.1 -0.1,-0.1 -0.1,-0.1 -0.1,-0.2 z m 0.5,-1.3 c 0,0.1 0.1,0.2 0.1,0.2 -0.1,0 -0.1,0.1 -0.2,0.1 0,-0.1 -0.1,-0.1 -0.1,-0.2 0.1,0 0.2,0 0.2,-0.1 z m -0.1,-4.9 c 0.3,0 0.5,-0.2 0.6,-0.4 0,0 0,0.1 0,0.1 0,0.2 0.1,0.4 0.3,0.5 0,0 0,0 0,0 -0.2,0 -0.4,0.1 -0.5,0.3 0,0 0,0 0,0 -0.1,-0.2 -0.2,-0.4 -0.4,-0.5 0,0 0,0 0,0 z m 0.2,0.9 v 0 c 0,0.2 0.1,0.4 0.2,0.5 -0.2,0 -0.4,0.1 -0.5,0.2 0,-0.2 -0.1,-0.3 -0.2,-0.5 0.2,0 0.4,-0.1 0.5,-0.2 z m -0.4,1.2 c 0,0.2 0.1,0.3 0.2,0.4 -0.1,0 -0.3,0.1 -0.4,0.2 0,-0.1 -0.1,-0.3 -0.2,-0.4 0.1,0 0.3,-0.1 0.4,-0.2 z m -0.4,1.2 c 0,0.1 0.1,0.2 0.2,0.3 -0.1,0 -0.2,0.1 -0.3,0.2 0,-0.1 -0.1,-0.2 -0.2,-0.3 0.1,0 0.2,-0.1 0.3,-0.2 z M 59.2,14 c 0.2,0 0.4,-0.1 0.5,-0.3 0,0 0,0 0,0 0,0.2 0.1,0.4 0.2,0.5 -0.2,0 -0.4,0.1 -0.5,0.2 0.1,-0.2 0,-0.3 -0.2,-0.4 0,0 0,0 0,0 z m 0.1,0.9 c 0,0.2 0.1,0.3 0.2,0.4 -0.2,0 -0.3,0.1 -0.4,0.2 0,-0.2 -0.1,-0.3 -0.2,-0.4 0.1,0 0.3,-0.1 0.4,-0.2 z m -1.2,-1.3 c 0.2,0 0.5,-0.1 0.6,-0.3 0,0 0,0.1 0,0.1 0,0.2 0.1,0.4 0.3,0.5 0,0 0,0 0,0 -0.2,0 -0.4,0.1 -0.5,0.3 0,0 0,0 0,0 -0.2,-0.3 -0.3,-0.5 -0.4,-0.6 0,0 0,0 0,0 z m 0.1,0.9 c 0,0 0,0 0,0 0,0.2 0.1,0.4 0.2,0.5 -0.2,0 -0.4,0.1 -0.5,0.2 0,-0.2 -0.1,-0.4 -0.2,-0.5 0.2,0 0.4,-0.1 0.5,-0.2 z m -1.3,-1.3 c 0.2,0 0.4,-0.1 0.5,-0.3 0,0 0,0 0,0 0,0.2 0.1,0.4 0.3,0.5 0,0 0,0 0,0 -0.2,0 -0.4,0.1 -0.5,0.3 0,-0.2 -0.1,-0.3 -0.3,-0.5 0,0 0,0 0,0 z m 0.2,0.9 c 0,0.2 0.1,0.3 0.2,0.5 -0.2,0 -0.4,0.1 -0.5,0.2 0,-0.2 -0.1,-0.3 -0.2,-0.4 0.2,0 0.3,-0.1 0.5,-0.3 z m -1.3,-1.2 c 0.2,0 0.5,-0.1 0.6,-0.3 0,0 0,0.1 0,0.1 0,0.2 0.1,0.4 0.3,0.5 0,0 0,0 0,0 -0.2,0 -0.4,0.1 -0.5,0.3 0,0 0,0 0,0 -0.2,-0.3 -0.3,-0.5 -0.4,-0.6 -0.1,0 0,0 0,0 z m 0.1,0.9 c 0,0 0,0 0,0 0,0.2 0.1,0.4 0.2,0.5 -0.2,0 -0.4,0.1 -0.5,0.2 0,-0.2 -0.1,-0.4 -0.2,-0.5 0.2,0 0.4,-0.1 0.5,-0.2 z M 55.5,15 c 0,0.2 0.1,0.3 0.2,0.4 -0.1,0 -0.3,0.1 -0.4,0.2 0,-0.1 -0.1,-0.3 -0.2,-0.4 0.2,0 0.3,-0.1 0.4,-0.2 z m -1.3,-1.4 c 0.2,0 0.4,-0.1 0.5,-0.3 0,0 0,0 0,0.1 0,0.2 0.1,0.4 0.2,0.5 -0.2,0 -0.4,0.1 -0.5,0.2 0.1,-0.2 0,-0.4 -0.2,-0.5 0,0 0,0 0,0 z m 0.1,1 c 0,0.2 0.1,0.3 0.2,0.4 -0.2,0 -0.3,0.1 -0.4,0.2 0,-0.2 -0.1,-0.3 -0.2,-0.4 0.2,0 0.3,-0.1 0.4,-0.2 z m -1.2,-1.4 c 0.2,0 0.4,-0.1 0.5,-0.3 0,0 0,0.1 0,0.1 0,0.2 0.1,0.4 0.3,0.5 0,0 0,0 0,0 -0.2,0 -0.4,0.1 -0.5,0.2 -0.1,-0.2 -0.2,-0.3 -0.3,-0.5 0,0 0,0 0,0 z m 0.1,1 c 0,0.2 0.1,0.4 0.2,0.5 -0.2,0 -0.3,0.1 -0.5,0.2 0,-0.2 -0.1,-0.3 -0.2,-0.5 0.2,0 0.4,-0.1 0.5,-0.2 z m -0.4,1.2 c 0,0.2 0.1,0.3 0.2,0.4 -0.1,0 -0.3,0.1 -0.4,0.2 0,-0.1 -0.1,-0.3 -0.2,-0.4 0.2,-0.1 0.3,-0.1 0.4,-0.2 z m -0.7,-1.7 c 0,0 0,0.1 0,0 0,0.2 0.1,0.4 0.2,0.5 -0.2,0 -0.4,0.1 -0.5,0.2 0,-0.2 -0.1,-0.4 -0.2,-0.5 0.2,0.1 0.4,0 0.5,-0.2 z M 51.7,15 c 0,0.2 0.1,0.3 0.2,0.4 -0.1,0 -0.3,0.1 -0.4,0.2 0,-0.2 -0.1,-0.3 -0.2,-0.4 0.1,0 0.3,-0.1 0.4,-0.2 z m -0.4,5.3 c -0.1,0 -0.1,0 0,0 -0.1,0 -0.1,0 0,0 -0.1,-0.1 -0.1,-0.1 0,0 -0.1,0 -0.1,0 0,0 z m -0.5,-2.5 c 0,-0.1 -0.1,-0.2 -0.1,-0.2 0.1,0 0.2,-0.1 0.2,-0.1 0,0.1 0.1,0.2 0.1,0.2 -0.1,0 -0.2,0 -0.2,0.1 z m 0.5,-1.6 c 0,0.1 0.1,0.2 0.2,0.3 -0.1,0 -0.2,0.1 -0.3,0.2 0,-0.1 -0.1,-0.2 -0.2,-0.3 0.1,0 0.2,-0.1 0.3,-0.2 z m -0.9,-2.6 c 0.2,0 0.4,-0.1 0.5,-0.3 0,0 0,0 0,0.1 0,0.2 0.1,0.4 0.2,0.5 -0.2,0 -0.4,0.1 -0.5,0.2 0,-0.2 -0.1,-0.4 -0.2,-0.5 0,0 0,0 0,0 z m 0.1,1 c 0,0.2 0.1,0.3 0.2,0.4 -0.2,0 -0.3,0.1 -0.4,0.2 0,-0.2 -0.1,-0.3 -0.2,-0.4 0.1,0 0.3,-0.1 0.4,-0.2 z m -0.6,1.7 c 0,-0.1 -0.1,-0.3 -0.2,-0.3 0.1,0 0.3,-0.1 0.4,-0.2 0,0.1 0.1,0.3 0.2,0.4 -0.2,0 -0.3,0 -0.4,0.1 z m -0.7,-3 c 0.2,0 0.4,-0.1 0.5,-0.3 0,0 0,0 0,0 0,0.2 0.1,0.4 0.3,0.5 0,0 0,0 0,0 -0.2,0 -0.4,0.1 -0.5,0.3 0,-0.2 -0.1,-0.4 -0.3,-0.5 0,0 0,0 0,0 z m 0.2,0.9 c 0,0.2 0.1,0.3 0.2,0.5 -0.2,0 -0.4,0.1 -0.5,0.2 0,-0.2 -0.1,-0.3 -0.2,-0.4 0.2,0 0.4,-0.1 0.5,-0.3 z m -1.3,-1.3 c 0.2,0 0.5,-0.1 0.6,-0.3 0,0 0,0.1 0,0.1 0,0.2 0.1,0.4 0.3,0.5 0,0 0,0 0,0 -0.2,0 -0.4,0.1 -0.5,0.3 0,0 0,0 0,0 -0.2,-0.3 -0.3,-0.5 -0.4,-0.6 0,0 0,0 0,0 z m 0.1,0.9 c 0,0 0,0 0,0 0,0.2 0.1,0.4 0.2,0.5 -0.2,0 -0.4,0.1 -0.5,0.2 0,-0.2 -0.1,-0.4 -0.2,-0.5 0.2,0.1 0.4,0 0.5,-0.2 z M 47.8,15 c 0,0.2 0.1,0.3 0.2,0.4 -0.1,0 -0.3,0.1 -0.4,0.2 0,-0.1 -0.1,-0.3 -0.2,-0.4 0.2,0 0.3,-0.1 0.4,-0.2 z m -1.3,-1.3 c 0.2,0 0.4,-0.1 0.5,-0.3 0,0 0,0 0,0.1 0,0.2 0.1,0.4 0.2,0.5 -0.2,0 -0.4,0.1 -0.5,0.2 0.1,-0.2 0,-0.4 -0.2,-0.5 0,0 0,0 0,0 z m -0.1,1.6 c 0,-0.2 -0.1,-0.3 -0.2,-0.4 0.2,0 0.4,-0.1 0.5,-0.2 0,0.2 0.1,0.3 0.2,0.4 -0.2,0 -0.4,0.1 -0.5,0.2 z m 0.9,1.4 c 0,-0.1 -0.1,-0.2 -0.2,-0.3 0.1,0 0.2,-0.1 0.3,-0.2 0,0.1 0.1,0.2 0.2,0.3 -0.1,0.1 -0.2,0.2 -0.3,0.2 z m 0.8,1.5 C 48,18.1 48,18 48,18 c 0.1,0 0.1,-0.1 0.2,-0.1 0,0.1 0.1,0.1 0.1,0.2 -0.1,0 -0.2,0 -0.2,0.1 z m 0.3,-1.1 c 0,-0.1 -0.1,-0.2 -0.2,-0.3 0.1,0 0.2,-0.1 0.3,-0.2 0,0.1 0.1,0.2 0.2,0.3 -0.1,0.1 -0.2,0.1 -0.3,0.2 z M 48.8,16 c 0,-0.1 -0.1,-0.2 -0.2,-0.3 0.2,0 0.3,-0.1 0.4,-0.2 0,0.1 0.1,0.3 0.2,0.4 -0.2,-0.1 -0.3,0 -0.4,0.1 z m 0.4,2.5 c 0,-0.1 -0.1,-0.1 -0.1,-0.2 0.1,0 0.1,-0.1 0.2,-0.1 0,0.1 0,0.1 0.1,0.2 -0.1,0 -0.1,0.1 -0.2,0.1 z m 0.4,-1.1 c 0,-0.1 -0.1,-0.2 -0.2,-0.3 0.1,0 0.2,-0.1 0.3,-0.1 0,0.1 0.1,0.2 0.1,0.3 -0.1,0 -0.2,0.1 -0.2,0.1 z m 0.4,2.5 c 0,0 0.1,-0.1 0,0 0.1,0 0.1,0 0.1,0 0,0 0,0 -0.1,0 0,0 0,0 0,0 z m 0.4,-1 c 0,-0.1 0,-0.1 -0.1,-0.2 0.1,0 0.1,-0.1 0.2,-0.1 0,0.1 0,0.1 0.1,0.2 -0.1,0 -0.2,0 -0.2,0.1 z m 1.2,0.3 c 0,-0.1 0,-0.1 -0.1,-0.1 0.1,0 0.1,0 0.2,-0.1 0,0.1 0,0.1 0.1,0.2 -0.1,0 -0.2,0 -0.2,0 z m 9.9,0.7 c 0,0 0,-0.1 0,0 0,-0.1 0,-0.1 0.1,-0.1 0,0 0,0.1 0,0.1 0,-0.1 -0.1,0 -0.1,0 z m 0.4,-1.1 c 0,-0.1 -0.1,-0.1 -0.1,-0.2 0.1,0 0.1,-0.1 0.2,-0.1 0,0.1 0,0.1 0.1,0.2 -0.1,0 -0.2,0 -0.2,0.1 z m 1.1,0.4 c 0,-0.1 0,-0.1 -0.1,-0.2 0.1,0 0.1,-0.1 0.2,-0.1 0,0.1 0,0.1 0.1,0.2 0,0 -0.1,0 -0.2,0.1 z m 0.4,-1.1 c 0,-0.1 -0.1,-0.2 -0.1,-0.2 0.1,0 0.1,-0.1 0.2,-0.1 0,0.1 0.1,0.2 0.1,0.2 -0.1,0 -0.1,0 -0.2,0.1 z M 63.8,17 c 0,-0.1 -0.1,-0.2 -0.2,-0.3 0.1,0 0.2,-0.1 0.3,-0.2 0,0.1 0.1,0.3 0.2,0.3 -0.1,0.1 -0.2,0.1 -0.3,0.2 z m 0.8,1.4 c 0,-0.1 -0.1,-0.1 -0.1,-0.2 0.1,0 0.1,-0.1 0.2,-0.1 0,0.1 0,0.1 0.1,0.2 -0.1,0 -0.2,0.1 -0.2,0.1 z m 0.3,-1.1 c 0,-0.1 -0.1,-0.2 -0.2,-0.3 0.1,0 0.2,-0.1 0.3,-0.1 0,0.1 0.1,0.2 0.1,0.3 0,0 -0.1,0.1 -0.2,0.1 z m 0.4,-1.1 c 0,-0.1 -0.1,-0.3 -0.2,-0.3 0.1,0 0.3,-0.1 0.4,-0.2 0,0.1 0.1,0.3 0.2,0.4 -0.2,0 -0.3,0 -0.4,0.1 z m 0.3,-1.1 c 0,-0.2 -0.1,-0.3 -0.2,-0.4 0.2,0 0.3,-0.1 0.5,-0.2 0,0.2 0.1,0.3 0.2,0.4 -0.2,0 -0.4,0.1 -0.5,0.2 z m 0.8,1.5 c 0,-0.1 -0.1,-0.2 -0.2,-0.3 0.1,0 0.2,-0.1 0.3,-0.2 0,0.1 0.1,0.2 0.2,0.3 -0.1,0 -0.2,0.1 -0.3,0.2 z m 0.4,-1.2 c 0,-0.1 -0.1,-0.3 -0.2,-0.3 0.1,0 0.3,-0.1 0.4,-0.2 0,0.1 0.1,0.3 0.2,0.4 -0.2,0 -0.3,0.1 -0.4,0.1 z m 0.4,-1 c 0,-0.2 -0.1,-0.3 -0.2,-0.4 0.2,0 0.4,-0.1 0.5,-0.3 0,0.2 0.1,0.4 0.2,0.5 -0.3,-0.1 -0.4,0 -0.5,0.2 z M 68,13 c -0.2,0 -0.4,0.1 -0.5,0.3 0,-0.2 -0.1,-0.4 -0.3,-0.5 0,0 0,0 0,0 0.2,0 0.4,-0.1 0.5,-0.3 0,0 0,0 0,0.1 0.1,0.1 0.2,0.3 0.3,0.4 0,0 0,0 0,0 z m 0.3,1.7 c 0,-0.2 -0.1,-0.3 -0.2,-0.4 0.2,0 0.4,-0.1 0.5,-0.3 0,0.2 0.1,0.3 0.2,0.4 -0.2,0.1 -0.4,0.2 -0.5,0.3 z m 0.9,-1.4 c -0.2,0 -0.4,0.1 -0.5,0.3 0,-0.2 -0.1,-0.4 -0.3,-0.5 0,0 0,0 0,0 0.2,0 0.4,-0.1 0.5,-0.3 0,0 0,0 0,0 0,0.2 0.1,0.4 0.3,0.5 0,0 0,0 0,0 z m 2.5,-1.4 -1.5,1.5 c 0,-0.1 0,-0.2 0,-0.2 0,-0.4 0.3,-0.6 0.6,-0.6 0,0 0,0 0,0 -0.2,-0.1 -0.3,-0.3 -0.3,-0.5 0,-0.3 0.3,-0.6 0.6,-0.6 0.3,0 0.5,0.2 0.6,0.4 z m 0.4,-0.3 c 0,-0.1 0,-0.2 0,-0.2 0,-0.3 0.3,-0.6 0.6,-0.6 0.1,0 0.2,0 0.2,0 z m 0.3,-1.4 c 0,-0.3 0.3,-0.6 0.6,-0.6 0.3,0 0.5,0.2 0.6,0.5 L 73,10.7 c -0.4,0 -0.6,-0.2 -0.6,-0.5 z M 74.1,9.6 C 74,9.5 74,9.4 74,9.3 74,9 74.2,8.8 74.5,8.8 c 0.1,0 0.2,0 0.2,0.1 z m 0.3,-1.4 c 0,-0.3 0.2,-0.5 0.5,-0.5 0.3,0 0.5,0.2 0.5,0.5 0,0 0,0 0,0 L 75,8.7 c 0,0 0,0 0,0 -0.4,0 -0.6,-0.2 -0.6,-0.5 z M 76,7.6 C 76,7.5 76,7.5 76,7.4 76,7.2 76.2,7 76.4,7 c 0.1,0 0.1,0 0.2,0 z m 1.9,-1.9 c 0,-0.1 -0.1,-0.1 -0.1,-0.2 0,-0.2 0.2,-0.4 0.4,-0.4 0.1,0 0.2,0 0.2,0.1 z m 2,-2 c 0,-0.1 -0.1,-0.1 -0.1,-0.2 0,-0.2 0.1,-0.3 0.3,-0.3 0.1,0 0.1,0 0.2,0.1 z m 2,-2.2 c 0,-0.1 0.1,-0.2 0.2,-0.2 0.1,0 0.1,0 0.2,0.1 L 82,1.7 C 81.9,1.6 81.9,1.6 81.9,1.5 Z m 1,-0.8 c 0,0.1 -0.1,0.2 -0.2,0.2 -0.1,0 -0.2,-0.1 -0.2,-0.2 0,-0.1 0.1,-0.2 0.2,-0.2 0.1,0.1 0.2,0.1 0.2,0.2 z M 75.1,0.6 c 0,0.1 -0.1,0.2 -0.2,0.2 -0.1,0 -0.2,-0.1 -0.2,-0.2 z m -3.9,0 c 0,0 0,0 0,0 0,0.1 -0.1,0.2 -0.2,0.2 -0.1,0 -0.2,-0.1 -0.2,-0.2 0,0 0,0 0,0 z"
   id="path4" />
	<g
   id="g10">
		<path
   fill="#bb2025"
   d="M 115.4,59.2 V 49 c 0,-2.8 0.5,-4.9 1.5,-6.2 1.1,-1.5 3.1,-2.2 5.8,-2.2 1.2,0 3.1,0 5.6,0 2.5,0 4.3,0 5.6,0 3.4,0 5.8,0.4 7.3,1.3 2,1.2 2.9,3.3 2.9,6.5 v 10.8 z m 24,-8.3 c 0,-2.3 -0.8,-3.4 -2.5,-3.4 h -14.5 c -1.1,0 -1.7,0.6 -2,1.8 -0.1,0.4 -0.2,1.4 -0.3,3.1 h 19.3 c 0,-0.2 0,-0.4 0,-0.7 0,-0.4 0,-0.6 0,-0.8 z"
   id="path6" />
		<path
   fill="#bb2025"
   d="m 132.5,33 v 0 c 1.1,0 2.6,0 4.7,0 0.8,0 1.4,-0.1 1.8,-0.4 0.4,-0.3 0.7,-0.9 0.7,-1.7 0,-1.1 -0.7,-1.7 -2,-1.7 h -22.2 v -6.9 h 22 c 4.8,0 7.2,2.9 7.2,8.8 0,3.6 -0.9,6 -2.6,7.3 -1.4,1 -4,1.5 -7.7,1.5 h -1.8 z"
   id="path8" />
	</g>
</g></g></svg>
